%TF.GenerationSoftware,Altium Limited,Altium Designer,18.1.6 (161)*%
G04 Layer_Physical_Order=1*
G04 Layer_Color=255*
%FSLAX26Y26*%
%MOIN*%
%TF.FileFunction,Copper,L1,Top,Signal*%
%TF.Part,Single*%
G01*
G75*
%TA.AperFunction,NonConductor*%
%ADD10C,0.000500*%
%TA.AperFunction,Conductor*%
%ADD11R,0.650000X0.125000*%
%TA.AperFunction,ComponentPad*%
%ADD12C,0.055118*%
%ADD13R,0.055118X0.055118*%
%TA.AperFunction,ViaPad*%
%ADD14C,0.150000*%
G36*
X4972249Y8615483D02*
X4971962Y8610601D01*
X4971959Y8609995D01*
X4971984Y8605610D01*
X4972342Y8540800D01*
X4972324Y8540708D01*
X4972452Y8497342D01*
X4972453Y8497335D01*
X4972452Y8497329D01*
X4972537Y8476838D01*
X4972538Y8476834D01*
X4972537Y8476829D01*
X4972636Y8457235D01*
X4972637Y8457230D01*
X4972637Y8457225D01*
X4972749Y8438605D01*
X4972751Y8438596D01*
X4972749Y8438588D01*
X4973010Y8404574D01*
X4973011Y8404566D01*
X4973010Y8404558D01*
X4973081Y8396782D01*
X4973082Y8396778D01*
X4973082Y8396775D01*
X4973156Y8389310D01*
X4973157Y8389306D01*
X4973156Y8389302D01*
X4973233Y8382158D01*
X4973234Y8382153D01*
X4973233Y8382148D01*
X4973312Y8375334D01*
X4973313Y8375329D01*
X4973312Y8375324D01*
X4973394Y8368850D01*
X4973395Y8368844D01*
X4973394Y8368838D01*
X4973478Y8362713D01*
X4973479Y8362707D01*
X4973478Y8362700D01*
X4973564Y8356935D01*
X4973566Y8356927D01*
X4973564Y8356920D01*
X4973652Y8351523D01*
X4973655Y8351510D01*
X4973653Y8351496D01*
X4973835Y8341849D01*
X4973839Y8341829D01*
X4973836Y8341810D01*
X4973931Y8337578D01*
X4973934Y8337565D01*
X4973932Y8337551D01*
X4973981Y8335588D01*
X4973983Y8335578D01*
X4973982Y8335569D01*
X4974032Y8333709D01*
X4974034Y8333699D01*
X4974032Y8333689D01*
X4974083Y8331934D01*
X4974085Y8331923D01*
X4974084Y8331913D01*
X4974135Y8330265D01*
X4974137Y8330253D01*
X4974135Y8330242D01*
X4974186Y8328702D01*
X4974189Y8328689D01*
X4974187Y8328676D01*
X4974238Y8327247D01*
X4974243Y8327225D01*
X4974240Y8327202D01*
X4974341Y8324680D01*
X4974347Y8324653D01*
X4974343Y8324627D01*
X4974363Y8324187D01*
X4974376Y8324132D01*
X4974368Y8324076D01*
X4974375Y8323955D01*
X4974378Y8323943D01*
X4974376Y8323931D01*
X4974383Y8323818D01*
X4974386Y8323806D01*
X4974384Y8323793D01*
X4974397Y8323586D01*
X4974401Y8323516D01*
X4974413Y8323279D01*
X4974677Y8322235D01*
X4974742Y8321161D01*
X4975172Y8320278D01*
X4975413Y8319326D01*
X4976057Y8318463D01*
X4976528Y8317495D01*
X4977263Y8316844D01*
X4977850Y8316057D01*
X4978775Y8315505D01*
X4979581Y8314792D01*
X4980509Y8314471D01*
X4981353Y8313969D01*
X4982418Y8313813D01*
X4983436Y8313462D01*
X4984039Y8313380D01*
X4984042Y8313380D01*
X4984044Y8313379D01*
X4984675Y8313293D01*
X4984678Y8313294D01*
X4984681Y8313293D01*
X4985339Y8313203D01*
X4986027Y8313110D01*
X4986755Y8313011D01*
X4987517Y8312907D01*
X4988292Y8312800D01*
X4990969Y8312427D01*
X4993242Y8312104D01*
X4995702Y8311753D01*
X4998342Y8311375D01*
X5001159Y8310970D01*
X5004140Y8310542D01*
X5007284Y8310088D01*
X5010584Y8309612D01*
X5014040Y8309113D01*
X5021393Y8308049D01*
X5029307Y8306902D01*
X5037735Y8305678D01*
X5046654Y8304380D01*
X5056014Y8303016D01*
X5075932Y8300105D01*
X5119530Y8293707D01*
X5119535Y8293701D01*
X5119503Y8293481D01*
X5147903Y8289553D01*
X5240926Y8272941D01*
X5289738Y8262231D01*
X5294616Y8261161D01*
X5294616Y8261161D01*
X5295137Y8261485D01*
X5381108Y8240448D01*
X5458634Y8217851D01*
X5458835Y8217478D01*
Y8217478D01*
X5498832Y8205093D01*
X5578883Y8176189D01*
X5612269Y8162360D01*
X5612390Y8162461D01*
X5627217Y8156741D01*
X5695249Y8126585D01*
X5761720Y8093126D01*
X5826469Y8056446D01*
X5889340Y8016633D01*
X5950182Y7973784D01*
X6008848Y7928000D01*
X6065197Y7879394D01*
X6117127Y7829952D01*
X6120501Y7826270D01*
X6123929Y7822670D01*
X6163730Y7780866D01*
X6214845Y7721609D01*
X6262992Y7659915D01*
X6308052Y7595934D01*
X6349920Y7529818D01*
X6388493Y7461728D01*
X6394208Y7450373D01*
X6394208Y7450373D01*
X6396601Y7445982D01*
X6401101Y7437400D01*
X6408146Y7423620D01*
X6415377Y7409162D01*
X6422744Y7394140D01*
X6422929Y7393897D01*
X6426499Y7386826D01*
X6465713Y7301343D01*
X6465713Y7301343D01*
X6465713Y7301343D01*
X6465721Y7301340D01*
X6472094Y7286764D01*
X6478063Y7272850D01*
X6480888Y7266159D01*
X6483578Y7259709D01*
X6486139Y7253489D01*
X6488554Y7247533D01*
X6492951Y7236406D01*
X6493944Y7233825D01*
X6494892Y7231333D01*
X6495798Y7228920D01*
X6496666Y7226576D01*
X6497479Y7224345D01*
X6498008Y7222867D01*
X6499370Y7218050D01*
X6500573Y7214506D01*
X6502023Y7209741D01*
X6502358Y7208444D01*
X6499641Y7204915D01*
X6499377Y7204710D01*
X6498756Y7204410D01*
X6497883Y7204050D01*
X6495931Y7203255D01*
X6493777Y7202393D01*
X6491425Y7201466D01*
X6488895Y7200481D01*
X6486168Y7199432D01*
X6483243Y7198316D01*
X6480147Y7197147D01*
X6476866Y7195916D01*
X6473444Y7194641D01*
X6466000Y7191891D01*
X6457930Y7188940D01*
X6449206Y7185776D01*
X6439830Y7182401D01*
X6429876Y7178839D01*
X6419342Y7175090D01*
X6408262Y7171165D01*
X6396640Y7167065D01*
X6384503Y7162800D01*
X6358783Y7153805D01*
X6331266Y7144236D01*
X6302164Y7134166D01*
X6271624Y7123643D01*
X6239824Y7112728D01*
X6173220Y7089981D01*
X6032759Y7042426D01*
X5926681Y7006846D01*
X5858246Y6984055D01*
X5825274Y6973127D01*
X5793327Y6962575D01*
X5762619Y6952472D01*
X5705592Y6933840D01*
X5692394Y6929559D01*
X5679635Y6925432D01*
X5667371Y6921481D01*
X5655613Y6917707D01*
X5644384Y6914120D01*
X5633705Y6910726D01*
X5623604Y6907535D01*
X5614097Y6904551D01*
X5596941Y6899234D01*
X5593067Y6898049D01*
X5589373Y6896926D01*
X5589373D01*
X5585836Y6895856D01*
X5582452Y6894842D01*
X5579274Y6893897D01*
X5576260Y6893010D01*
X5573439Y6892189D01*
X5570834Y6891442D01*
X5566106Y6890122D01*
X5565085Y6889845D01*
X5564067Y6889573D01*
X5564026Y6889562D01*
X5559143Y6888488D01*
X5556345Y6892221D01*
X5556188Y6892549D01*
X5555613Y6893758D01*
X5555027Y6895003D01*
X5554385Y6896378D01*
X5553731Y6897789D01*
X5553039Y6899293D01*
X5552340Y6900820D01*
X5550022Y6905949D01*
X5548381Y6909626D01*
X5546640Y6913558D01*
X5544824Y6917693D01*
X5542929Y6922036D01*
X5538981Y6931176D01*
X5530538Y6951075D01*
X5530001Y6951864D01*
X5519659Y6976831D01*
X5500583Y7016008D01*
X5498492Y7020477D01*
X5498490Y7020481D01*
X5498490Y7020481D01*
X5475309Y7063849D01*
X5465245Y7080034D01*
X5463498Y7082845D01*
X5463474Y7082967D01*
X5462612Y7084271D01*
X5460087Y7088527D01*
X5452088Y7102007D01*
X5422607Y7144469D01*
X5390171Y7184719D01*
X5354946Y7222553D01*
X5317112Y7257778D01*
X5279682Y7287941D01*
X5279703Y7288069D01*
X5236543Y7318035D01*
X5190925Y7345102D01*
X5162194Y7359483D01*
X5161744Y7359784D01*
X5161876Y7360056D01*
X5110010Y7383556D01*
X5053819Y7404705D01*
X5026061Y7413125D01*
X5025162Y7413608D01*
X5012348Y7417518D01*
X5012312Y7417522D01*
X5012279Y7417539D01*
X5000422Y7421069D01*
X5000363Y7421075D01*
X5000310Y7421102D01*
X4989207Y7424272D01*
X4988184Y7424356D01*
X4978385Y7427120D01*
X4978354Y7427000D01*
X4955702Y7432674D01*
X4936777Y7435481D01*
X4936499Y7435537D01*
X4936503Y7435561D01*
X4935024Y7435830D01*
X4934801Y7435785D01*
X4931559Y7436212D01*
X4931553Y7436212D01*
X4913639Y7438571D01*
Y7438571D01*
X4913470Y7438434D01*
X4906007Y7439318D01*
X4905626Y7439363D01*
X4901041Y7439714D01*
Y7439713D01*
X4887773Y7440187D01*
X4887292Y7440306D01*
X4872555Y7440966D01*
X4872486Y7440955D01*
X4872417Y7440971D01*
X4856210Y7441482D01*
X4856156Y7441473D01*
X4856103Y7441485D01*
X4838228Y7441865D01*
X4838188Y7441858D01*
X4838147Y7441867D01*
X4818408Y7442135D01*
X4818379Y7442130D01*
X4818349Y7442136D01*
X4796549Y7442310D01*
X4796528Y7442306D01*
X4796508Y7442310D01*
X4772449Y7442408D01*
X4772432Y7442404D01*
X4772414Y7442408D01*
X4716736Y7442448D01*
X4716696Y7442440D01*
X4716655Y7442448D01*
X4651433Y7441987D01*
X4650511Y7441797D01*
X4593868Y7440738D01*
Y7440738D01*
X4588880Y7440323D01*
X4572705Y7439926D01*
X4548107Y7438111D01*
X4543113Y7438004D01*
X4543113Y7438004D01*
X4497925Y7433898D01*
Y7433898D01*
X4492984Y7433175D01*
X4472509Y7430974D01*
X4457442Y7428255D01*
X4457141Y7428468D01*
X4457142Y7428467D01*
X4415175Y7420120D01*
X4384446Y7411453D01*
X4384419Y7411466D01*
X4384419Y7411466D01*
X4383411Y7411217D01*
X4383318Y7411155D01*
X4379671Y7410127D01*
X4373111Y7408276D01*
X4351092Y7400153D01*
X4350277Y7399991D01*
X4350150Y7400201D01*
X4345596Y7398315D01*
X4302255Y7380362D01*
X4285535Y7371993D01*
X4281992Y7370288D01*
X4281610Y7370212D01*
X4281029Y7369824D01*
X4276545Y7367630D01*
X4260885Y7360224D01*
X4228994Y7341109D01*
X4199129Y7318960D01*
X4171580Y7293990D01*
X4146610Y7266441D01*
X4124461Y7236577D01*
X4105346Y7204685D01*
X4089449Y7171073D01*
X4076923Y7136065D01*
X4067889Y7099998D01*
X4067755Y7099099D01*
X4066895Y7094173D01*
X4066895Y7094173D01*
X4062287Y7059176D01*
X4060686Y7022502D01*
X4062287Y6985829D01*
X4067079Y6949434D01*
X4070528Y6933876D01*
X4070519Y6933863D01*
X4070519Y6933863D01*
X4070519Y6933863D01*
X4074003Y6916351D01*
X4077232Y6904900D01*
X4078254Y6899996D01*
X4078254D01*
X4086894Y6872596D01*
X4088285Y6868181D01*
X4088525Y6867652D01*
X4088939Y6867033D01*
X4095773Y6847931D01*
X4098245Y6842706D01*
X4100122Y6838616D01*
X4100161Y6838421D01*
X4101990Y6834764D01*
X4102404Y6833916D01*
X4102578Y6833548D01*
X4104635Y6829201D01*
X4110697Y6816383D01*
X4127597Y6788186D01*
X4131330Y6783154D01*
X4131330D01*
X4131371Y6783146D01*
X4146476Y6762780D01*
X4168314Y6738685D01*
X4169597Y6737523D01*
X4173018Y6734379D01*
X4173068Y6734303D01*
X4173229Y6734185D01*
X4173229Y6734185D01*
X4194735Y6714693D01*
X4195518Y6713983D01*
X4198660Y6711653D01*
X4198661Y6711655D01*
X4198817Y6711786D01*
X4222786Y6693394D01*
X4255411Y6672609D01*
X4258519Y6670629D01*
X4259690Y6670020D01*
X4264173Y6667787D01*
X4273784Y6662085D01*
X4295230Y6651350D01*
X4295775Y6650985D01*
X4295660Y6650754D01*
X4298543Y6649213D01*
X4300110Y6648503D01*
X4331118Y6634453D01*
X4335456Y6632462D01*
X4335614Y6632357D01*
D01*
X4335615Y6632356D01*
X4335757Y6632261D01*
X4336077Y6632198D01*
X4340217Y6630483D01*
X4379524Y6614202D01*
X4379542Y6614250D01*
X4423376Y6598727D01*
X4427906Y6596888D01*
X4427907Y6596888D01*
X4427907Y6596888D01*
X4433304Y6594939D01*
X4476240Y6581644D01*
X4480851Y6579981D01*
X4480853Y6579980D01*
X4480854Y6579980D01*
X4494567Y6575587D01*
X4533793Y6564786D01*
X4537078Y6563863D01*
X4537345Y6563684D01*
X4538605Y6563434D01*
X4543432Y6562131D01*
X4596356Y6547612D01*
X4597595Y6547272D01*
X4601197Y6546421D01*
X4601234Y6546567D01*
X4601339Y6546617D01*
X4669075Y6530032D01*
X4669154Y6529929D01*
X4669146Y6529897D01*
X4684546Y6526118D01*
X4821499Y6496160D01*
X4821499Y6496160D01*
X4821627Y6496244D01*
X4956793Y6467128D01*
X5085754Y6437728D01*
X5208007Y6408178D01*
X5323147Y6378590D01*
X5430682Y6349103D01*
X5430765Y6348955D01*
Y6348954D01*
X5430766Y6348955D01*
X5525768Y6321186D01*
X5530513Y6319603D01*
X5530513Y6319603D01*
X5555356Y6312271D01*
X5617326Y6291929D01*
X5621926Y6290419D01*
X5621954Y6290504D01*
X5622042Y6290765D01*
X5629107Y6288553D01*
X5700046Y6263527D01*
X5704731Y6261781D01*
X5704731Y6261781D01*
X5751050Y6245057D01*
X5830880Y6211990D01*
X5842588Y6206494D01*
X5842553Y6206419D01*
X5891064Y6183281D01*
X5949825Y6151376D01*
X6004514Y6117862D01*
X6008641Y6115038D01*
Y6115038D01*
X6008642Y6115038D01*
X6061627Y6078622D01*
X6121306Y6032829D01*
X6178506Y5983975D01*
X6233071Y5932195D01*
X6284852Y5877630D01*
X6333706Y5820430D01*
X6379499Y5760751D01*
X6422106Y5698757D01*
X6461410Y5634619D01*
X6497303Y5568511D01*
X6512808Y5536005D01*
X6514897Y5531625D01*
X6517231Y5527198D01*
X6540976Y5474133D01*
X6565739Y5409262D01*
X6586825Y5343105D01*
X6601768Y5285175D01*
X6601580Y5284868D01*
X6601580Y5284868D01*
X6601581Y5284867D01*
X6609864Y5247980D01*
X6622225Y5176740D01*
X6631076Y5104980D01*
X6636395Y5032871D01*
X6638169Y4960589D01*
X6636395Y4888306D01*
X6631076Y4816198D01*
X6622225Y4744437D01*
X6609864Y4673197D01*
X6594022Y4602650D01*
X6574737Y4532964D01*
X6552057Y4464309D01*
X6526035Y4396850D01*
X6496734Y4330749D01*
X6464225Y4266165D01*
X6446707Y4235241D01*
X6444246Y4230896D01*
X6444246Y4230896D01*
X6441816Y4226547D01*
X6420228Y4188439D01*
X6379389Y4123948D01*
X6335435Y4061538D01*
X6288472Y4001360D01*
X6238612Y3943559D01*
X6185977Y3888274D01*
X6130692Y3835638D01*
X6072891Y3785779D01*
X6012713Y3738816D01*
X5950303Y3694861D01*
X5885811Y3654023D01*
X5819394Y3616398D01*
X5782099Y3597625D01*
X5782099Y3597625D01*
Y3597625D01*
X5777797Y3595048D01*
X5704483Y3560632D01*
X5625695Y3527997D01*
X5545483Y3499035D01*
X5464020Y3473809D01*
X5388436Y3454178D01*
X5388230Y3454171D01*
X5372587Y3450493D01*
X5354843Y3446567D01*
X5335188Y3442421D01*
X5313955Y3438114D01*
X5291377Y3433684D01*
X5267830Y3429197D01*
X5168835Y3411501D01*
X5144400Y3407399D01*
X5120652Y3403522D01*
X5097848Y3399912D01*
X5086939Y3398231D01*
X5076335Y3396628D01*
X5056351Y3393709D01*
X5047349Y3392448D01*
X5038861Y3391299D01*
X5030900Y3390265D01*
X5023522Y3389355D01*
X5016708Y3388568D01*
X5010473Y3387908D01*
X5004869Y3387381D01*
X5000144Y3387007D01*
X4999826Y3387280D01*
Y3387280D01*
X4991939Y3386659D01*
X4991941Y3386566D01*
X4990326Y3386244D01*
X4989674Y3386220D01*
X4989273Y3386035D01*
X4988164Y3385814D01*
X4986778Y3384888D01*
X4985969Y3384517D01*
X4985314Y3383910D01*
X4984773Y3383549D01*
X4982897Y3381680D01*
X4982848Y3381710D01*
X4982788Y3381569D01*
X4982731Y3381432D01*
X4982715Y3381393D01*
X4982135Y3379853D01*
X4982123Y3379824D01*
X4980773Y3375980D01*
X4979980Y3372044D01*
X4979083Y3367348D01*
X4979083Y3367346D01*
X4978939Y3365517D01*
X4978928Y3365458D01*
X4978507Y3363338D01*
X4978394Y3361618D01*
X4977997Y3357294D01*
X4977553Y3352779D01*
X4977560Y3352712D01*
X4977541Y3352646D01*
X4977117Y3347672D01*
X4977123Y3347614D01*
X4977108Y3347559D01*
X4976703Y3342116D01*
X4976708Y3342067D01*
X4976696Y3342019D01*
X4976310Y3336098D01*
X4976316Y3336056D01*
X4976305Y3336015D01*
X4975939Y3329606D01*
X4975944Y3329569D01*
X4975935Y3329533D01*
X4975589Y3322626D01*
X4975596Y3322580D01*
X4975584Y3322534D01*
X4974951Y3307190D01*
X4974959Y3307141D01*
X4974948Y3307092D01*
X4974391Y3289636D01*
X4974398Y3289598D01*
X4974389Y3289560D01*
X4973906Y3269899D01*
X4973911Y3269869D01*
X4973904Y3269839D01*
X4973490Y3247883D01*
X4973494Y3247859D01*
X4973489Y3247835D01*
X4973141Y3223492D01*
X4973145Y3223473D01*
X4973141Y3223454D01*
X4972855Y3196632D01*
X4972858Y3196617D01*
X4972855Y3196601D01*
X4972629Y3167211D01*
X4972631Y3167198D01*
X4972629Y3167186D01*
X4972458Y3135135D01*
X4972461Y3135125D01*
X4972458Y3135115D01*
X4972341Y3100314D01*
X4972383Y3100101D01*
X4971973Y3027052D01*
X4971965Y3025654D01*
X4971985Y3022057D01*
X4972251Y3017167D01*
Y2667579D01*
X4377875D01*
Y3020995D01*
Y3374445D01*
X4377614Y3375758D01*
X4377533Y3377095D01*
X4377219Y3377740D01*
X4377079Y3378444D01*
X4376336Y3379557D01*
X4375750Y3380762D01*
X4375213Y3381238D01*
X4374814Y3381835D01*
X4373701Y3382579D01*
X4372699Y3383467D01*
X4372020Y3383702D01*
X4371423Y3384100D01*
X4370110Y3384361D01*
X4368845Y3384799D01*
X4282495Y3396648D01*
X4282490Y3396653D01*
X4282505Y3396763D01*
X4261275Y3399430D01*
X4152567Y3417045D01*
X4138104Y3419922D01*
X4138097Y3419886D01*
X4128233Y3421562D01*
X4030112Y3442035D01*
X4001273Y3449187D01*
Y3449188D01*
X3996344Y3450078D01*
X3911458Y3472229D01*
X3871698Y3484291D01*
X3871667Y3484249D01*
X3843995Y3492314D01*
X3761791Y3520219D01*
X3680884Y3551682D01*
X3637837Y3570623D01*
X3633266Y3572651D01*
Y3572651D01*
X3633266Y3572651D01*
X3594122Y3590002D01*
X3523651Y3625474D01*
X3455007Y3664361D01*
X3388352Y3706569D01*
X3323850Y3751997D01*
X3261654Y3800535D01*
X3201914Y3852067D01*
X3150013Y3901481D01*
X3146502Y3905000D01*
X3146494Y3905013D01*
X3146488Y3905017D01*
X3142883Y3908483D01*
X3111282Y3941494D01*
X3107831Y3945101D01*
X3107828Y3945104D01*
X3104394Y3948723D01*
X3076727Y3977878D01*
X3029185Y4033542D01*
X2984621Y4091619D01*
X2943158Y4151948D01*
X2921229Y4187733D01*
X2920980Y4187582D01*
X2917266Y4193446D01*
X2895168Y4232456D01*
X2895168Y4232456D01*
X2895168Y4232456D01*
X2892387Y4236629D01*
X2854108Y4309249D01*
X2844772Y4329137D01*
X2844772Y4329137D01*
X2842576Y4333630D01*
X2837130Y4345651D01*
X2837130D01*
X2836741Y4345798D01*
X2828573Y4364076D01*
X2819869Y4384361D01*
X2810854Y4406089D01*
X2801636Y4428953D01*
X2792413Y4452427D01*
X2792542Y4452721D01*
X2792541Y4452721D01*
X2779336Y4486136D01*
X2756602Y4549675D01*
X2756602Y4549675D01*
X2756602Y4549675D01*
X2756235Y4549850D01*
X2748181Y4572828D01*
X2740582Y4595095D01*
X2737034Y4605730D01*
X2733660Y4616019D01*
X2730481Y4625900D01*
X2727518Y4635306D01*
X2722235Y4652744D01*
X2721074Y4656735D01*
X2719980Y4660571D01*
X2718944Y4664284D01*
X2717980Y4667823D01*
X2717079Y4671228D01*
X2716253Y4674450D01*
X2715987Y4675525D01*
X2715016Y4680433D01*
X2715016Y4680433D01*
X2713980Y4685638D01*
X2713981D01*
X2713142Y4689071D01*
X2712846Y4692087D01*
X2713393Y4694051D01*
X2716024Y4696316D01*
X2716768Y4696632D01*
X2717097Y4696719D01*
X2718035Y4696963D01*
X2721119Y4697756D01*
X2723453Y4698346D01*
X2725983Y4698981D01*
X2728716Y4699661D01*
X2728716Y4699661D01*
X2731622Y4700380D01*
X2734745Y4701149D01*
X2738040Y4701957D01*
X2741520Y4702806D01*
X2745195Y4703700D01*
X2753069Y4705608D01*
X2761631Y4707673D01*
X2770861Y4709889D01*
X2770862D01*
X2780749Y4712254D01*
X2791262Y4714760D01*
X2802380Y4717403D01*
X2814084Y4720177D01*
X2826336Y4723076D01*
X2839128Y4726096D01*
X2866234Y4732479D01*
X2895219Y4739284D01*
X2925885Y4746465D01*
X2958072Y4753986D01*
X2991578Y4761800D01*
X3061878Y4778150D01*
X3210473Y4812549D01*
X3323220Y4838521D01*
X3323221D01*
X3396306Y4855296D01*
X3396306D01*
X3431680Y4863395D01*
X3466037Y4871247D01*
X3499189Y4878810D01*
X3561171Y4892900D01*
X3575621Y4896174D01*
X3575621D01*
X3603152Y4902394D01*
X3616166Y4905325D01*
X3628651Y4908131D01*
X3628651D01*
X3640593Y4910809D01*
X3651968Y4913353D01*
X3651968Y4913353D01*
X3662741Y4915756D01*
X3682416Y4920122D01*
X3691269Y4922075D01*
X3699400Y4923861D01*
X3706820Y4925481D01*
X3713487Y4926924D01*
X3719437Y4928198D01*
X3724590Y4929283D01*
X3727766Y4929937D01*
X3732710Y4930712D01*
X3734868Y4931103D01*
X3736813Y4931224D01*
X3738864Y4930903D01*
X3740561Y4930284D01*
X3740847Y4930130D01*
X3741150Y4929955D01*
X3741792Y4929468D01*
X3743628Y4927835D01*
X3745119Y4926247D01*
X3745557Y4925763D01*
X3745628Y4925674D01*
X3747565Y4923161D01*
X3749323Y4920413D01*
X3750523Y4918438D01*
X3752327Y4915064D01*
X3754424Y4910547D01*
X3755816Y4905958D01*
X3755816Y4905958D01*
X3757594Y4901275D01*
X3760698Y4890795D01*
X3770922Y4861923D01*
X3772346Y4857239D01*
X3772276Y4857214D01*
X3774049Y4852570D01*
X3774054Y4852556D01*
X3774060Y4852542D01*
X3788127Y4815691D01*
X3789904Y4811034D01*
X3789904D01*
X3789978Y4810987D01*
X3790485Y4810229D01*
X3804140Y4777262D01*
X3808811Y4767668D01*
X3808815Y4767647D01*
X3809010Y4767260D01*
X3811213Y4762801D01*
X3818520Y4746675D01*
X3844045Y4698921D01*
X3872638Y4652939D01*
X3902156Y4611746D01*
X3902082Y4611635D01*
X3902082Y4611634D01*
X3902131Y4611565D01*
X3905156Y4607880D01*
X3905210Y4607814D01*
X3905238Y4607780D01*
X3938315Y4567475D01*
X3977305Y4525846D01*
X3990175Y4513792D01*
X3993357Y4510652D01*
X3993500Y4510437D01*
X3993695Y4510307D01*
X3993729Y4510284D01*
X3994149Y4510004D01*
X3997430Y4506949D01*
X4021178Y4484839D01*
X4063428Y4450792D01*
X4107999Y4419845D01*
X4139005Y4401448D01*
X4138830Y4401122D01*
X4186405Y4375692D01*
X4236227Y4353118D01*
X4247700Y4348800D01*
X4252036Y4347051D01*
X4252129Y4346988D01*
X4252324Y4346935D01*
X4252324Y4346935D01*
X4262126Y4342875D01*
X4314451Y4324818D01*
X4314439Y4324777D01*
X4314437Y4324771D01*
X4317494Y4323716D01*
X4319184Y4323246D01*
X4380515Y4306148D01*
X4380515Y4306148D01*
X4381016Y4306447D01*
X4402347Y4300944D01*
X4445930Y4292275D01*
X4450793Y4291281D01*
X4450793Y4291281D01*
X4450793Y4291282D01*
X4507702Y4281407D01*
X4586025Y4271747D01*
X4604119Y4270412D01*
X4604137Y4270391D01*
X4605056Y4270310D01*
X4605103Y4270320D01*
X4609101Y4270025D01*
X4661782Y4266139D01*
X4733905Y4264368D01*
X4806029Y4266139D01*
X4872728Y4271059D01*
Y4271059D01*
X4872878Y4271237D01*
X4886993Y4272348D01*
X4955884Y4281418D01*
X4999667Y4289532D01*
X4999672Y4289556D01*
X5036380Y4296858D01*
X5059101Y4302719D01*
X5059493Y4302485D01*
X5059493Y4302486D01*
X5111263Y4316917D01*
X5113654Y4317584D01*
X5116036Y4318406D01*
X5116848Y4318889D01*
X5116904Y4318927D01*
X5155869Y4331895D01*
X5205207Y4352332D01*
X5212717Y4356091D01*
X5217310Y4358080D01*
X5217310Y4358080D01*
X5225925Y4362841D01*
X5230410Y4365037D01*
X5230410Y4365037D01*
Y4365037D01*
X5239615Y4370554D01*
X5242489Y4372200D01*
X5242535Y4372209D01*
X5243910Y4373014D01*
X5243910Y4373014D01*
X5257786Y4381854D01*
X5257765Y4381886D01*
X5272011Y4391404D01*
X5272025Y4391385D01*
X5279177Y4396164D01*
X5286156Y4401666D01*
X5286489Y4401622D01*
X5286489Y4401622D01*
X5296769Y4409906D01*
X5300712Y4412981D01*
X5301663Y4413701D01*
X5301754Y4413836D01*
X5304572Y4416149D01*
X5330696Y4437589D01*
X5353584Y4459025D01*
X5356804Y4462041D01*
X5357278Y4462358D01*
X5357282Y4462361D01*
X5357455Y4462476D01*
X5357559Y4462632D01*
X5360859Y4465847D01*
X5367294Y4471874D01*
X5368777Y4473263D01*
X5370836Y4475379D01*
X5370836Y4475379D01*
X5392529Y4498679D01*
X5395298Y4501652D01*
X5395602Y4501855D01*
X5395917Y4502317D01*
X5399298Y4505963D01*
X5403920Y4510927D01*
X5407593Y4515485D01*
X5407833Y4515508D01*
X5407833D01*
X5415383Y4525085D01*
X5417733Y4527958D01*
X5417855Y4528039D01*
X5418549Y4528956D01*
X5418549Y4528956D01*
X5425558Y4538090D01*
X5427554Y4540691D01*
X5427743Y4540816D01*
X5428594Y4542046D01*
X5428574Y4542061D01*
X5428699Y4542249D01*
X5437923Y4554686D01*
X5437924Y4554686D01*
X5437912Y4554756D01*
X5440806Y4558658D01*
X5445912Y4567176D01*
X5445912Y4567177D01*
X5445912Y4567177D01*
X5445897Y4567247D01*
X5452133Y4576580D01*
X5458991Y4590486D01*
X5459090Y4590440D01*
X5459273Y4590796D01*
X5459305Y4590958D01*
X5460990Y4595027D01*
X5460990Y4595028D01*
X5474649Y4628003D01*
X5482883Y4654120D01*
X5483070Y4654400D01*
X5483501Y4655239D01*
X5484734Y4658684D01*
X5485054Y4659961D01*
X5494285Y4696813D01*
X5500052Y4735695D01*
X5501981Y4774955D01*
X5500052Y4814215D01*
X5494285Y4853097D01*
X5484734Y4891227D01*
X5471492Y4928236D01*
X5454685Y4963770D01*
X5434477Y4997485D01*
X5419201Y5018083D01*
X5419201Y5018083D01*
X5418414Y5019217D01*
X5418160Y5019387D01*
X5409382Y5030827D01*
X5383105Y5059503D01*
X5354428Y5085780D01*
X5323571Y5109458D01*
X5290767Y5130357D01*
X5264405Y5144080D01*
X5264406Y5144080D01*
X5263830Y5144430D01*
X5263557Y5144485D01*
X5259910Y5146224D01*
X5225775Y5162845D01*
X5225774Y5162845D01*
Y5162845D01*
X5221202Y5164417D01*
X5192699Y5177171D01*
X5188728Y5178687D01*
X5184094Y5180456D01*
X5179443Y5182178D01*
X5161501Y5189610D01*
X5143808Y5195875D01*
X5143804Y5195877D01*
X5139191Y5197782D01*
Y5197782D01*
X5139191Y5197782D01*
X5131248Y5200846D01*
X5094947Y5212838D01*
X5091331Y5214115D01*
X5091046Y5214305D01*
X5090276Y5214488D01*
X5090276Y5214488D01*
X5067498Y5222220D01*
X5041694Y5229741D01*
X5038063Y5230860D01*
X5037951Y5230935D01*
X5037583Y5231008D01*
X5036915Y5231214D01*
X5036915Y5231214D01*
X4978466Y5248052D01*
X4978467Y5248052D01*
X4978435Y5248035D01*
X4961392Y5252902D01*
X4915085Y5264501D01*
X4914173Y5264926D01*
X4843806Y5282149D01*
X4843735Y5282242D01*
X4843778Y5282425D01*
X4841314Y5283035D01*
X4838911Y5283571D01*
X4681343Y5318715D01*
X4681356Y5318776D01*
X4571156Y5342432D01*
X4516070Y5355422D01*
X4516033Y5355265D01*
X4490610Y5360935D01*
X4367624Y5391364D01*
X4362802Y5392557D01*
X4362800Y5392550D01*
X4362790Y5392512D01*
X4336141Y5399053D01*
X4225689Y5429149D01*
X4220906Y5430611D01*
X4216162Y5431956D01*
X4142458Y5452858D01*
X4089607Y5469522D01*
X4089602Y5469509D01*
X4047469Y5482470D01*
X3972947Y5507985D01*
X3968236Y5509661D01*
X3963550Y5511314D01*
X3906583Y5531411D01*
X3860622Y5549495D01*
X3856097Y5551275D01*
X3851321Y5552779D01*
X3766690Y5587834D01*
X3752393Y5594392D01*
X3752393Y5594392D01*
X3752267Y5594345D01*
X3677390Y5629051D01*
X3656626Y5639740D01*
D01*
X3652066Y5641803D01*
X3584570Y5677381D01*
X3511614Y5720255D01*
X3485655Y5737169D01*
X3485600Y5737083D01*
X3473953Y5744326D01*
X3426081Y5778630D01*
X3414383Y5788230D01*
X3414384D01*
X3414209Y5788212D01*
X3373606Y5822051D01*
X3328651Y5864368D01*
X3286589Y5909052D01*
X3283459Y5912938D01*
X3280290Y5916691D01*
X3246804Y5956346D01*
X3206675Y6009669D01*
X3170597Y6063663D01*
X3170707Y6064176D01*
X3170707Y6064177D01*
X3170707Y6064177D01*
X3145177Y6105838D01*
X3110075Y6170488D01*
X3078405Y6236886D01*
X3050253Y6304850D01*
X3025697Y6374195D01*
X3004803Y6444730D01*
X2987630Y6516261D01*
X2985413Y6528222D01*
X2985622Y6528264D01*
X2980755Y6552734D01*
X2978691Y6570173D01*
X2978650Y6570187D01*
X2975980Y6589097D01*
X2973301Y6620854D01*
X2973302Y6620854D01*
X2973302D01*
X2972760Y6625827D01*
X2969149Y6677850D01*
X2969312Y6678033D01*
X2969312D01*
X2967775Y6704082D01*
X2965814Y6803958D01*
X2966966Y6862602D01*
X2967087Y6867601D01*
X2967086Y6867601D01*
X2967913Y6907575D01*
X2969291Y6929769D01*
X2969291D01*
X2969463Y6934767D01*
X2972815Y6983065D01*
X2973153Y6987927D01*
X2973562Y6992911D01*
X2978052Y7038501D01*
X2985476Y7083466D01*
X2985630Y7083572D01*
X2985630D01*
X2985630Y7083573D01*
X2994327Y7127295D01*
X2994715Y7127549D01*
X2994715D01*
X3000275Y7153903D01*
X3004286Y7169347D01*
X3004177Y7169374D01*
X3005901Y7177055D01*
X3014815Y7209264D01*
X3014815D01*
X3015957Y7214136D01*
X3031863Y7267833D01*
X3051130Y7322243D01*
X3051096Y7322256D01*
X3053837Y7329995D01*
X3079153Y7391113D01*
X3081517Y7395528D01*
X3081517Y7395528D01*
X3095539Y7427162D01*
X3115390Y7466599D01*
X3117648Y7471058D01*
X3117648Y7471058D01*
X3132901Y7501359D01*
X3141174Y7515964D01*
X3141331Y7515911D01*
X3157483Y7545659D01*
X3194309Y7605755D01*
X3234231Y7663841D01*
X3272952Y7714303D01*
X3276137Y7718157D01*
X3276137Y7718157D01*
X3282239Y7725975D01*
X3329285Y7780515D01*
X3341609Y7793459D01*
Y7793459D01*
X3341607Y7793534D01*
X3387356Y7841447D01*
X3415875Y7868678D01*
X3415875Y7868678D01*
X3419464Y7872160D01*
X3451558Y7902716D01*
X3507827Y7951254D01*
X3566409Y7996972D01*
X3627164Y8039761D01*
X3689946Y8079517D01*
X3754603Y8116144D01*
X3820979Y8149555D01*
X3888914Y8179669D01*
X3915853Y8190060D01*
X3915764Y8190312D01*
X3923543Y8193534D01*
X3998987Y8220774D01*
X4075610Y8244501D01*
X4113541Y8254353D01*
Y8254353D01*
X4113696Y8254613D01*
X4187031Y8272558D01*
X4276550Y8290364D01*
X4329458Y8298508D01*
X4329418Y8298773D01*
X4329435Y8298792D01*
X4368996Y8304804D01*
X4370185Y8305234D01*
X4371425Y8305481D01*
X4372085Y8305921D01*
X4372831Y8306191D01*
X4373764Y8307044D01*
X4374816Y8307746D01*
X4375256Y8308406D01*
X4375842Y8308940D01*
X4376379Y8310085D01*
X4377081Y8311137D01*
X4377236Y8311915D01*
X4377573Y8312633D01*
X4377630Y8313896D01*
X4377877Y8315136D01*
Y8606325D01*
Y8897372D01*
X4972249D01*
Y8615483D01*
D02*
G37*
%LPC*%
G36*
X4674000Y8845411D02*
X4657337Y8843770D01*
X4641315Y8838910D01*
X4626548Y8831017D01*
X4613605Y8820395D01*
X4602983Y8807452D01*
X4595090Y8792685D01*
X4590230Y8776663D01*
X4588589Y8760000D01*
X4590230Y8743337D01*
X4595090Y8727315D01*
X4602983Y8712548D01*
X4613605Y8699605D01*
X4626548Y8688983D01*
X4641315Y8681090D01*
X4657337Y8676230D01*
X4674000Y8674589D01*
X4690663Y8676230D01*
X4706685Y8681090D01*
X4721452Y8688983D01*
X4734395Y8699605D01*
X4745017Y8712548D01*
X4752910Y8727315D01*
X4757770Y8743337D01*
X4759411Y8760000D01*
X4757770Y8776663D01*
X4752910Y8792685D01*
X4745017Y8807452D01*
X4734395Y8820395D01*
X4721452Y8831017D01*
X4706685Y8838910D01*
X4690663Y8843770D01*
X4674000Y8845411D01*
D02*
G37*
G36*
X4729000Y5912225D02*
Y5880000D01*
X4761225D01*
X4760592Y5884805D01*
X4756808Y5893942D01*
X4750787Y5901787D01*
X4742942Y5907808D01*
X4733805Y5911592D01*
X4729000Y5912225D01*
D02*
G37*
G36*
X4719000D02*
X4714195Y5911592D01*
X4705058Y5907808D01*
X4697213Y5901787D01*
X4691192Y5893942D01*
X4687408Y5884805D01*
X4686775Y5880000D01*
X4719000D01*
Y5912225D01*
D02*
G37*
G36*
X4761225Y5870000D02*
X4729000D01*
Y5837775D01*
X4733805Y5838408D01*
X4742942Y5842192D01*
X4750787Y5848213D01*
X4756808Y5856058D01*
X4760592Y5865195D01*
X4761225Y5870000D01*
D02*
G37*
G36*
X4719000D02*
X4686775D01*
X4687408Y5865195D01*
X4691192Y5856058D01*
X4697213Y5848213D01*
X4705058Y5842192D01*
X4714195Y5838408D01*
X4719000Y5837775D01*
Y5870000D01*
D02*
G37*
G36*
X4661559Y5912559D02*
X4586441D01*
Y5837441D01*
X4661559D01*
Y5912559D01*
D02*
G37*
G36*
X5028338Y5742481D02*
X4488500D01*
Y5642500D01*
X5028338D01*
Y5742481D01*
D02*
G37*
%LPD*%
D10*
X5437172Y4572642D02*
G03*
X5449617Y4594795I-128224J86606D01*
G01*
X5551275Y6879587D02*
G03*
X5551668Y6879154I13120J11538D01*
G01*
X5453818Y7078967D02*
G03*
X5273293Y7279494I-610925J-368467D01*
G01*
X5157200Y7350493D02*
G03*
X5022111Y7403612I-398297J-814584D01*
G01*
X5550042Y6881421D02*
G03*
X5550176Y6881151I10894J5235D01*
G01*
X5489159Y7015750D02*
G03*
X5453818Y7078967I-797756J-404490D01*
G01*
X5273293Y7279494D02*
G03*
X5157200Y7350493I-438482J-586566D01*
G01*
X5549907Y6881703D02*
G03*
X5549585Y6882344I-14079J-6678D01*
G01*
X5550176Y6881151D02*
G03*
X5550322Y6880881I6212J3182D01*
G01*
X5520917Y6946993D02*
G03*
X5489159Y7015750I-956725J-400183D01*
G01*
X4986337Y7414223D02*
G03*
X4975785Y7417053I-158220J-568788D01*
G01*
X5551668Y6879154D02*
G03*
X5552814Y6878117I6230J5733D01*
G01*
X5550322Y6880881D02*
G03*
X5550699Y6880299I5407J3090D01*
G01*
X5550699Y6880299D02*
G03*
X5550956Y6879965I6790J4944D01*
G01*
X5553766Y6877567D02*
G03*
X5554175Y6877428I1260J3027D01*
G01*
X5553313Y6877791D02*
G03*
X5553766Y6877567I1986J3454D01*
G01*
X5552814Y6878117D02*
G03*
X5553313Y6877791I3098J4193D01*
G01*
X5550956Y6879965D02*
G03*
X5551275Y6879587I9175J7413D01*
G01*
X5554175Y6877428D02*
G03*
X5554869Y6877326I791J2971D01*
G01*
X2702113Y4699215D02*
G03*
X2702038Y4698780I14275J-2683D01*
G01*
X2703301Y4702093D02*
G03*
X2702706Y4701089I5513J-3943D01*
G01*
X2706074Y4704410D02*
G03*
X2705708Y4704241I2344J-5554D01*
G01*
X2704189Y4703135D02*
G03*
X2703301Y4702093I5790J-5835D01*
G01*
X3818471Y4771646D02*
G03*
X3910582Y4618155I742173J341004D01*
G01*
X3799633Y4814986D02*
G03*
X3818471Y4771646I907144J368519D01*
G01*
X2702209Y4699664D02*
G03*
X2702113Y4699215I9540J-2262D01*
G01*
X3782213Y4860747D02*
G03*
X3799633Y4814986I1043917J371198D01*
G01*
X3753885Y4932518D02*
G03*
X3750772Y4935912I-35341J-29294D01*
G01*
D02*
G03*
X3749125Y4937422I-23337J-23796D01*
G01*
D02*
G03*
X3747414Y4938773I-17640J-20576D01*
G01*
Y4938773D02*
G03*
X3745637Y4939939I-13091J-18016D01*
G01*
D02*
G03*
X3743791Y4940893I-9470J-16055D01*
G01*
X2705708Y4704241D02*
G03*
X2705444Y4704074I1309J-2355D01*
G01*
X4000890Y4517827D02*
G03*
X4144158Y4410370I518065J541477D01*
G01*
X3761975Y4919660D02*
G03*
X3759501Y4924380I-63061J-30043D01*
G01*
X2704228Y4703166D02*
G03*
X2704189Y4703135I818J-1063D01*
G01*
X2706558Y4704599D02*
G03*
X2706359Y4704524I2570J-7133D01*
G01*
X3756793Y4928682D02*
G03*
X3753885Y4932518I-43412J-29883D01*
G01*
X2702706Y4701089D02*
G03*
X2702333Y4700127I6077J-2907D01*
G01*
X3759501Y4924380D02*
G03*
X3756793Y4928682I-53506J-30685D01*
G01*
X2701975Y4698360D02*
G03*
X2701826Y4696722I15594J-2245D01*
G01*
X3766081Y4909146D02*
G03*
X3782213Y4860747I1224805J381362D01*
G01*
X2702334Y4700127D02*
G03*
X2702209Y4699665I7529J-2279D01*
G01*
X3766081Y4909146D02*
G03*
X3761975Y4919660I-75740J-23521D01*
G01*
X3910582Y4618155D02*
G03*
X4000890Y4517827I683047J524015D01*
G01*
X2701826Y4696722D02*
G03*
X2701810Y4695898I19936J-796D01*
G01*
X3741875Y4941610D02*
G03*
X3735677Y4942067I-4109J-13463D01*
G01*
X2705444Y4704074D02*
G03*
X2705260Y4703943I6834J-9870D01*
G01*
X3735677Y4942067D02*
G03*
X3730629Y4941169I19530J-124400D01*
G01*
X3743791Y4940893D02*
G03*
X3741875Y4941609I-6577J-14678D01*
G01*
X3911938Y8200048D02*
G03*
X3408442Y7876442I556359J-1419129D01*
G01*
X2958699Y6930309D02*
G03*
X2956354Y6867860I2337391J-119027D01*
G01*
X4110833Y8264756D02*
G03*
X3911938Y8200048I439949J-1690313D01*
G01*
X4327865Y8309124D02*
G03*
X4110833Y8264756I311952J-2078950D01*
G01*
X3041279Y7325942D02*
G03*
X3004452Y7212106I1210881J-454608D01*
G01*
X2975087Y7085643D02*
G03*
X2962603Y6988803I903332J-165678D01*
G01*
X3004452Y7212106D02*
G03*
X2994008Y7171864I1462258J-400964D01*
G01*
X2984263Y7129837D02*
G03*
X2975087Y7085643I2046677J-448011D01*
G01*
X2962603Y6988803D02*
G03*
X2958699Y6930309I1813379J-150415D01*
G01*
X3131890Y7521050D02*
G03*
X3108073Y7475921I1432546J-784863D01*
G01*
X3408442Y7876442D02*
G03*
X3333815Y7800699I1259093J-1315174D01*
G01*
X3333815Y7800699D02*
G03*
X3267962Y7724774I1082797J-1005679D01*
G01*
X3267962D02*
G03*
X3131890Y7521050I1055418J-852246D01*
G01*
X3108073Y7475921D02*
G03*
X3071714Y7399915I1478524J-753977D01*
G01*
Y7399915D02*
G03*
X3041279Y7325942I1216120J-543606D01*
G01*
X2994008Y7171864D02*
G03*
X2984263Y7129837I1699428J-416189D01*
G01*
X2956354Y6867860D02*
G03*
X2958686Y6677506I2553441J-63902D01*
G01*
X5462019Y8227746D02*
G03*
X5296951Y8271642I-621326J-2004152D01*
G01*
X5296951Y8271642D02*
G03*
X5121048Y8304047I-525495J-2358885D01*
G01*
X4982700Y8610601D02*
G03*
X4982775Y8540739I32074699J-606D01*
G01*
X5616343Y8172296D02*
G03*
X5462019Y8227746I-702999J-1714061D01*
G01*
X6128052Y7833675D02*
G03*
X5616343Y8172296I-1081043J-1077678D01*
G01*
X6403535Y7455263D02*
G03*
X6128052Y7833675I-1421175J-745129D01*
G01*
X6475279Y7305566D02*
G03*
X6432127Y7398742I-2611351J-1152809D01*
G01*
X6512894Y7200225D02*
G03*
X6513406Y7200970I-2475J2250D01*
G01*
X6513623Y7201484D02*
G03*
X6513796Y7202115I-4891J1679D01*
G01*
D02*
G03*
X6513910Y7202877I-6776J1403D01*
G01*
X6512627Y7199962D02*
G03*
X6512894Y7200225I-2345J2649D01*
G01*
X6513406Y7200970D02*
G03*
X6513623Y7201484I-3633J1838D01*
G01*
X6513636Y7207374D02*
G03*
X6513399Y7208633I-30621J-5111D01*
G01*
X6513910Y7202877D02*
G03*
X6513951Y7203787I-9497J885D01*
G01*
X6513951D02*
G03*
X6513809Y7206155I-20413J-37D01*
G01*
X6513809Y7206155D02*
G03*
X6513636Y7207374I-25079J-2937D01*
G01*
X6513101Y7209944D02*
G03*
X6512745Y7211319I-52885J-12951D01*
G01*
X6513399Y7208633D02*
G03*
X6513101Y7209944I-39226J-8224D01*
G01*
X6510805Y7217697D02*
G03*
X6509550Y7221504I-218680J-69976D01*
G01*
X6512745Y7211319D02*
G03*
X6512335Y7212770I-75705J-20641D01*
G01*
X6512372Y7199752D02*
G03*
X6512627Y7199962I-3007J3904D01*
G01*
X5554869Y6877326D02*
G03*
X5555160Y6877326I153J4738D01*
G01*
X5555640Y6877331D02*
G03*
X5555416Y6877334I-140J-2464D01*
G01*
X5555640Y6877331D02*
G03*
X5556207Y6877312I579J8911D01*
G01*
X5556207D02*
G03*
X5556829Y6877337I-2J7957D01*
G01*
X5557245Y6877376D02*
G03*
X5558064Y6877475I-1801J18291D01*
G01*
D02*
G03*
X5558621Y6877562I-3207J22311D01*
G01*
X5560132Y6877854D02*
G03*
X5561522Y6878161I-15782J74831D01*
G01*
X6509430Y7197760D02*
G03*
X6509921Y7198029I-10567J19908D01*
G01*
D02*
G03*
X6510631Y7198448I-9806J17416D01*
G01*
X6510986Y7198672D02*
G03*
X6511108Y7198754I-4508J6896D01*
G01*
X6511109D02*
G03*
X6511796Y7199284I-4096J6020D01*
G01*
X6511796D02*
G03*
X6511955Y7199425I-6093J7034D01*
G01*
X6512372Y7199752D02*
G03*
X6511955Y7199425I4745J-6480D01*
G01*
X4088507Y6902781D02*
G03*
X4098180Y6871652I436095J118444D01*
G01*
X4458844Y7418000D02*
G03*
X4387410Y7401562I90609J-557186D01*
G01*
X4109816Y6842420D02*
G03*
X4139871Y6789095I296311J131874D01*
G01*
Y6789095D02*
G03*
X4180458Y6741693I262753J183900D01*
G01*
X4353909Y7390263D02*
G03*
X4285609Y7360556I270778J-715928D01*
G01*
X4077331Y7092369D02*
G03*
X4080574Y6935947I404138J-69867D01*
G01*
X4387410Y7401562D02*
G03*
X4353909Y7390263I159786J-529063D01*
G01*
X4975785Y7417053D02*
G03*
X4935024Y7425379I-96158J-366836D01*
G01*
X4098180Y6871652D02*
G03*
X4109816Y6842420I358841J125913D01*
G01*
X4499067Y7423517D02*
G03*
X4458844Y7418000I83241J-756214D01*
G01*
X4285609Y7360556D02*
G03*
X4077331Y7092369I153878J-334473D01*
G01*
X4912671Y7428026D02*
G03*
X4900286Y7429038I-52176J-562110D01*
G01*
D02*
G03*
X4886824Y7429865I-51709J-731723D01*
G01*
X4543822Y7427486D02*
G03*
X4499067Y7423517I71450J-1059984D01*
G01*
X4651507Y7431537D02*
G03*
X4594253Y7430096I36748J-2599285D01*
G01*
X4935024Y7425379D02*
G03*
X4912671Y7428026I-61455J-423259D01*
G01*
X4080574Y6935947D02*
G03*
X4088507Y6902781I549194J113832D01*
G01*
X4594253Y7430096D02*
G03*
X4543822Y7427486I57825J-1605849D01*
G01*
X4992056Y3375979D02*
G03*
X4992034Y3375940I1019J-596D01*
G01*
X4205259Y6719866D02*
G03*
X4264993Y6679263I296091J371359D01*
G01*
X4992078Y3376016D02*
G03*
X4992056Y3375979I1708J-1051D01*
G01*
X4992102Y3376055D02*
G03*
X4992130Y3376101I-2506J1531D01*
G01*
X4992130D02*
G03*
X4992163Y3376159I-2446J1432D01*
G01*
D02*
G03*
X5000618Y3376561I-3440J161495D01*
G01*
X4180458Y6741693D02*
G03*
X4205259Y6719866I255956J265822D01*
G01*
X6524607Y5536229D02*
G03*
X6014428Y6123802I-1307525J-620024D01*
G01*
X4992034Y3375940D02*
G03*
X4992011Y3375893I1158J-618D01*
G01*
X5708346Y6271895D02*
G03*
X5625295Y6300619I-1062673J-2938086D01*
G01*
X6014428Y6123802D02*
G03*
X5846959Y6216047I-703182J-1078478D01*
G01*
X5625295Y6300619D02*
G03*
X5533600Y6329732I-1296584J-3924789D01*
G01*
X5390622Y3443998D02*
G03*
X5786908Y3588015I-431800J1805396D01*
G01*
X6453578Y4225573D02*
G03*
X6612066Y5287235I-1288529J735016D01*
G01*
Y5287235D02*
G03*
X6524607Y5536229I-1214754J-286823D01*
G01*
X5786908Y3588015D02*
G03*
X6453578Y4225573I-700644J1399970D01*
G01*
X4991983Y3375834D02*
G03*
X4991950Y3375757I3298J-1463D01*
G01*
X5533600Y6329733D02*
G03*
X5433648Y6359126I-1537702J-5044270D01*
G01*
X4383328Y6624189D02*
G03*
X4431308Y6606930I483688J1269371D01*
G01*
X4339756Y6641917D02*
G03*
X4383328Y6624189I416359J960900D01*
G01*
X4300382Y6660235D02*
G03*
X4339756Y6641917I363101J729002D01*
G01*
X4671561Y6540183D02*
G03*
X4823652Y6506498I1410453J6008086D01*
G01*
X4264993Y6679263D02*
G03*
X4300382Y6660235I321434J555386D01*
G01*
X4431308Y6606930D02*
G03*
X4483910Y6590020I568686J1678784D01*
G01*
D02*
G03*
X4541345Y6573340I676491J2222062D01*
G01*
D02*
G03*
X4603824Y6556767I814425J2944431D01*
G01*
X4991950Y3375757D02*
G03*
X4991860Y3375531I8734J-3614D01*
G01*
X5846959Y6216047D02*
G03*
X5708346Y6271895I-771603J-1715157D01*
G01*
X4992011Y3375893D02*
G03*
X4991983Y3375834I1816J-877D01*
G01*
X2701864Y4694194D02*
G03*
X2702011Y4692363I42984J2534D01*
G01*
X4989342Y3363964D02*
G03*
X4988860Y3360338I173994J-24959D01*
G01*
X3868599Y3474002D02*
G03*
X3998783Y3438810I681718J2263451D01*
G01*
X2703448Y4683495D02*
G03*
X2704636Y4678031I205808J41875D01*
G01*
X2885804Y4227214D02*
G03*
X2912050Y4182157I1330097J744604D01*
G01*
X3139104Y3897623D02*
G03*
X3628932Y3562817I1142262J1145436D01*
G01*
X3628932Y3562817D02*
G03*
X3868599Y3474002I813377J1827107D01*
G01*
X3100094Y3937675D02*
G03*
X3139104Y3897623I1463335J1386234D01*
G01*
X2835197Y4324511D02*
G03*
X2885804Y4227214I1673091J808421D01*
G01*
X2827354Y4341186D02*
G03*
X2835197Y4324511I747517J341385D01*
G01*
X4136193Y3409611D02*
G03*
X4281074Y3386294I564113J3043345D01*
G01*
X4982792Y3100278D02*
G03*
X4982702Y3022058I30907490J-74625D01*
G01*
X2746482Y4546082D02*
G03*
X2782586Y4448859I3384765J1201624D01*
G01*
X3998782Y3438810D02*
G03*
X4136193Y3409611I627731J2616231D01*
G01*
X4989845Y3367160D02*
G03*
X4989342Y3363964I117146J-20073D01*
G01*
X2702011Y4692364D02*
G03*
X2702118Y4691395I53520J5411D01*
G01*
X4991860Y3375531D02*
G03*
X4991627Y3374885I14414J-5562D01*
G01*
X2912050Y4182157D02*
G03*
X3100094Y3937675I1203777J731331D01*
G01*
X4991627Y3374885D02*
G03*
X4991385Y3374121I22150J-7445D01*
G01*
D02*
G03*
X4991136Y3373242I31561J-9426D01*
G01*
Y3373242D02*
G03*
X4990881Y3372249I42449J-11413D01*
G01*
D02*
G03*
X4990623Y3371143I54566J-13321D01*
G01*
X4990623D02*
G03*
X4990363Y3369926I67642J-15075D01*
G01*
X4317637Y4334935D02*
G03*
X4383089Y4316566I324971J1032110D01*
G01*
Y4316566D02*
G03*
X4452679Y4301462I299977J1214289D01*
G01*
X5410465Y4535429D02*
G03*
X5420353Y4548206I-378677J303243D01*
G01*
X5363289Y4482876D02*
G03*
X5388212Y4509245I-517702J514260D01*
G01*
X5429287Y4560643D02*
G03*
X5437172Y4572642I-261510J180447D01*
G01*
X5388212Y4509245D02*
G03*
X5399720Y4522409I-478275J429721D01*
G01*
D02*
G03*
X5410465Y4535429I-432484J367882D01*
G01*
X5420353Y4548206D02*
G03*
X5429287Y4560643I-320474J239637D01*
G01*
X5449414Y4594932D02*
G03*
X5473415Y4658399I-421514J195674D01*
G01*
X4452679Y4301462D02*
G03*
X4605056Y4280761I290941J1570376D01*
G01*
X5473415Y4658399D02*
G03*
X5411025Y5011828I-371977J116556D01*
G01*
X5294274Y4421091D02*
G03*
X5350065Y4469866I-485936J612134D01*
G01*
X5280088Y4410162D02*
G03*
X5294274Y4421091I-403366J538197D01*
G01*
X5350065Y4469866D02*
G03*
X5363289Y4482876I-539025J561134D01*
G01*
X4605056Y4280761D02*
G03*
X4871729Y4281584I128850J1453486D01*
G01*
D02*
G03*
X4997718Y4299632I-123469J1310718D01*
G01*
D02*
G03*
X5056920Y4312772I-214790J1107674D01*
G01*
Y4312772D02*
G03*
X5112849Y4328544I-237007J947462D01*
G01*
Y4328544D02*
G03*
X5212652Y4367653I-218417J704292D01*
G01*
D02*
G03*
X5225346Y4374233I-123508J253822D01*
G01*
Y4374233D02*
G03*
X5238535Y4381865I-172810J313861D01*
G01*
Y4381864D02*
G03*
X5252121Y4390457I-228048J375591D01*
G01*
Y4390457D02*
G03*
X5266005Y4399920I-286902J435862D01*
G01*
D02*
G03*
X5280088Y4410162I-346452J491225D01*
G01*
X4256128Y4356644D02*
G03*
X4317637Y4334935I347917J887798D01*
G01*
X4144158Y4410370D02*
G03*
X4256128Y4356644I411937J714978D01*
G01*
X4975699Y5237929D02*
G03*
X4911688Y5254775I-913305J-3340134D01*
G01*
X5135583Y5187863D02*
G03*
X5087047Y5204650I-554431J-1524429D01*
G01*
X4841322Y5271997D02*
G03*
X4679123Y5308278I-1688402J-7167574D01*
G01*
X4513662Y5345025D02*
G03*
X4679123Y5308278I2127183J9187096D01*
G01*
X5087047Y5204650D02*
G03*
X5033952Y5221279I-635750J-1936772D01*
G01*
X4360191Y5382276D02*
G03*
X4513662Y5345025I1829814J7204042D01*
G01*
X5259831Y5134775D02*
G03*
X5221376Y5153103I-461894J-919626D01*
G01*
X4218006Y5420278D02*
G03*
X4360191Y5382276I1594713J5681657D01*
G01*
X4086408Y5459279D02*
G03*
X4218006Y5420278I1408518J4511136D01*
G01*
X3964695Y5499527D02*
G03*
X4086409Y5459279I1261654J3611165D01*
G01*
X3852166Y5541270D02*
G03*
X3964695Y5499526I1147352J2920414D01*
G01*
X5180160Y5170739D02*
G03*
X5135583Y5187863I-500618J-1236674D01*
G01*
X5411025Y5011827D02*
G03*
X5259831Y5134775I-343181J-267586D01*
G01*
X3748119Y5584757D02*
G03*
X3852166Y5541270I1060997J2392344D01*
G01*
X3651854Y5630234D02*
G03*
X3748119Y5584757I999726J1991553D01*
G01*
X3479861Y5728156D02*
G03*
X3651854Y5630234I996067J1549519D01*
G01*
X3407768Y5779902D02*
G03*
X3479861Y5728156I566194J712740D01*
G01*
X3275557Y5905994D02*
G03*
X3407768Y5779902I775803J681083D01*
G01*
X3161634Y6058508D02*
G03*
X3275557Y5905995I1015350J639632D01*
G01*
X2975087Y6526138D02*
G03*
X3161634Y6058508I1386970J282267D01*
G01*
X2968056Y6568810D02*
G03*
X2975087Y6526138I598752J76746D01*
G01*
X2962589Y6619956D02*
G03*
X2968056Y6568810I1122568J94115D01*
G01*
X2958686Y6677506D02*
G03*
X2962589Y6619956I1727092J88211D01*
G01*
X5033952Y5221279D02*
G03*
X4975699Y5237929I-751687J-2519806D01*
G01*
X5221376Y5153103D02*
G03*
X5180160Y5170739I-470243J-1041965D01*
G01*
X2704650Y4703491D02*
X2704850Y4703641D01*
X2705057Y4703796D01*
X2706136Y4704436D02*
X2706195Y4704460D01*
X2706252Y4704482D01*
X2706966Y4668589D02*
X2707884Y4665123D01*
X2706654Y4704633D02*
X2706747Y4704665D01*
X2706840Y4704695D01*
X2707025Y4704755D02*
X2707119Y4704785D01*
X2707313Y4704849D01*
X2706118Y4671898D02*
X2706966Y4668589D01*
X2707732Y4704981D02*
X2707956Y4705049D01*
X2708190Y4705119D01*
X2708691Y4705265D02*
X2708958Y4705342D01*
X2709237Y4705421D01*
X2701810Y4695899D02*
X2701814Y4695481D01*
X2701975Y4698360D02*
X2702038Y4698780D01*
X2707884Y4665123D02*
X2708869Y4661505D01*
X2702118Y4691395D02*
X2702247Y4690388D01*
X2701842Y4694630D02*
X2701864Y4694194D01*
X2704228Y4703166D02*
X2704326Y4703243D01*
X2704650Y4703491D01*
X2705057Y4703796D02*
X2705260Y4703943D01*
X2706074Y4704410D02*
X2706136Y4704436D01*
X2703198Y4684752D02*
X2703448Y4683495D01*
X2706252Y4704482D02*
X2706359Y4704524D01*
X2706558Y4704599D02*
X2706654Y4704633D01*
X2706840Y4704695D02*
X2706932Y4704725D01*
X2707025Y4704755D01*
X2702968Y4685964D02*
X2703198Y4684752D01*
X2707313Y4704849D02*
X2707518Y4704914D01*
X2707732Y4704981D01*
X2701825Y4695059D02*
X2701842Y4694630D01*
X2701814Y4695481D02*
X2701825Y4695059D01*
X2704636Y4678031D02*
X2705341Y4675046D01*
X2708190Y4705119D02*
X2708435Y4705191D01*
X2708691Y4705265D01*
X2702757Y4687132D02*
X2702968Y4685964D01*
X2702396Y4689343D02*
X2702567Y4688258D01*
X2702757Y4687132D01*
X2705341Y4675046D02*
X2706118Y4671898D01*
X2702247Y4690388D02*
X2702396Y4689343D01*
X4841322Y5271997D02*
X4911688Y5254775D01*
X3558854Y4903091D02*
X3573318Y4906368D01*
X3600849Y4912588D01*
X3711292Y4937142D02*
X3717256Y4938419D01*
X3496865Y4888999D02*
X3558854Y4903091D01*
X3689017Y4932280D02*
X3697162Y4934069D01*
X3600849Y4912588D02*
X3613869Y4915521D01*
X3704590Y4935691D02*
X3711292Y4937142D01*
X3697162Y4934069D02*
X3704590Y4935691D01*
X3626365Y4918329D02*
X3638311Y4921008D01*
X3649687Y4923552D01*
X3722474Y4939518D02*
X3726935Y4940436D01*
X3717256Y4938419D02*
X3722474Y4939518D01*
X3613869Y4915521D02*
X3626365Y4918329D01*
X3649687Y4923552D02*
X3660469Y4925957D01*
X3680165Y4930327D02*
X3689017Y4932280D01*
X3660469Y4925957D02*
X3680165Y4930327D01*
X3726935Y4940436D02*
X3730629Y4941169D01*
X4984829Y8324200D02*
X4984836Y8324083D01*
X6417472Y7428337D02*
X6424742Y7413801D01*
X6432127Y7398742D01*
X6487686Y7276926D02*
X6490521Y7270212D01*
X6493232Y7263712D01*
X4984836Y8324083D02*
X4984850Y8323817D01*
X6498254Y7251424D02*
X6502688Y7240202D01*
X6503697Y7237580D01*
X4988931Y8323262D02*
X4989737Y8323151D01*
X4992423Y8322776D01*
X4984850Y8323817D02*
X4985453Y8323735D01*
X4999827Y8321720D02*
X5002644Y8321315D01*
X4985453Y8323735D02*
X4986084Y8323649D01*
X4997182Y8322098D02*
X4999827Y8321720D01*
X5008775Y8320432D02*
X5012079Y8319956D01*
X5015536Y8319456D01*
X4986084Y8323649D02*
X4986744Y8323559D01*
X5015536Y8319456D02*
X5022892Y8318392D01*
X5030806Y8317245D01*
X5048159Y8314722D02*
X5057525Y8313357D01*
X5077450Y8310445D01*
X6403535Y7455263D02*
X6410382Y7442206D01*
X6417472Y7428337D01*
X4987437Y8323465D02*
X4988165Y8323366D01*
X6475279Y7305566D02*
X6481681Y7290925D01*
X6487686Y7276926D01*
X6493232Y7263712D02*
X6495812Y7257443D01*
X6498254Y7251424D01*
X4988165Y8323366D02*
X4988931Y8323262D01*
X6503697Y7237580D02*
X6504665Y7235036D01*
X6505591Y7232571D01*
X4992423Y8322776D02*
X4994712Y8322451D01*
X4997182Y8322098D01*
X5002644Y8321315D02*
X5005628Y8320886D01*
X5008775Y8320432D01*
X5030806Y8317245D02*
X5039240Y8316020D01*
X5048159Y8314722D01*
X4986744Y8323559D02*
X4987437Y8323465D01*
X5077450Y8310445D02*
X5121048Y8304047D01*
X2712216Y4649771D02*
X2717531Y4632226D01*
X2711037Y4653825D02*
X2712216Y4649771D01*
X4987954Y3351758D02*
X4988398Y3356273D01*
X2727113Y4602447D02*
X2730682Y4591748D01*
X2723722Y4612785D02*
X2727113Y4602447D01*
X4985393Y3306759D02*
X4986026Y3322103D01*
X4986373Y3329010D01*
X5005769Y3376969D02*
X5011518Y3377510D01*
X4983591Y3223342D02*
X4983939Y3247686D01*
X4984353Y3269642D01*
X5000618Y3376561D02*
X5005769Y3376969D01*
X4982792Y3100278D02*
X4982909Y3135080D01*
X4983079Y3167131D01*
X4992078Y3376016D02*
X4992102Y3376055D01*
X2810239Y4380300D02*
X2818999Y4359883D01*
X2827354Y4341187D01*
X4990103Y3368597D02*
X4990363Y3369926D01*
X2738304Y4569413D02*
X2746482Y4546082D01*
X2730682Y4591748D02*
X2738304Y4569413D01*
X4989845Y3367160D02*
X4990103Y3368597D01*
X2720524Y4622724D02*
X2723722Y4612785D01*
X2717531Y4632226D02*
X2720524Y4622724D01*
X2709921Y4657738D02*
X2711037Y4653825D01*
X2708869Y4661505D02*
X2709921Y4657738D01*
X4988398Y3356273D02*
X4988860Y3360338D01*
X2791926Y4425089D02*
X2801179Y4402136D01*
X2782586Y4448859D02*
X2791926Y4425089D01*
X4987124Y3341340D02*
X4987530Y3346783D01*
X4987954Y3351758D01*
X5011518Y3377510D02*
X5017853Y3378180D01*
X4986373Y3329010D02*
X4986739Y3335419D01*
X4987124Y3341340D01*
X4984353Y3269642D02*
X4984837Y3289303D01*
X4985393Y3306759D01*
X4983079Y3167131D02*
X4983305Y3196521D01*
X4983591Y3223342D01*
X4367426Y8606325D02*
Y8907822D01*
X4327865Y8309124D02*
X4367426Y8315136D01*
Y8606325D01*
X2801179Y4402136D02*
X2810239Y4380300D01*
X6510866Y7198595D02*
X6510986Y7198672D01*
X6495243Y7191738D02*
X6497638Y7192682D01*
X6499845Y7193565D01*
X6505591Y7232571D02*
X6506473Y7230188D01*
X6507452Y7196791D02*
X6508070Y7197081D01*
X6508643Y7197358D01*
X6507311Y7227887D02*
X6508104Y7225672D01*
X6504533Y7195502D02*
X6505331Y7195844D01*
X6506083Y7196173D01*
X6508104Y7225672D02*
X6508850Y7223544D01*
X6489899Y7189670D02*
X6492663Y7190733D01*
X6495243Y7191738D01*
X6477066Y7184837D02*
X6480536Y7186131D01*
X6483834Y7187368D01*
X6443370Y7172568D02*
X6452746Y7175943D01*
X6461501Y7179118D01*
X6422846Y7165244D02*
X6433396Y7168999D01*
X6443370Y7172568D01*
X6511873Y7214308D02*
X6512335Y7212770D01*
X6400105Y7157206D02*
X6411742Y7161311D01*
X6422846Y7165244D01*
X6502799Y7194773D02*
X6503689Y7195144D01*
X6504533Y7195502D01*
X6509175Y7197627D02*
X6509430Y7197760D01*
X6510631Y7198448D02*
X6510866Y7198595D01*
X6506473Y7230188D02*
X6507311Y7227887D01*
X6508643Y7197358D02*
X6508913Y7197493D01*
X6509175Y7197627D01*
X6506083Y7196173D02*
X6506790Y7196489D01*
X6507452Y7196791D01*
X6499845Y7193565D02*
X6501862Y7194386D01*
X6502799Y7194773D01*
X6508850Y7223544D02*
X6509550Y7221504D01*
X6483834Y7187368D02*
X6486956Y7188548D01*
X6489899Y7189670D01*
X6510805Y7217697D02*
X6511362Y7215947D01*
X6461501Y7179118D02*
X6469615Y7182085D01*
X6477066Y7184837D01*
X6511362Y7215947D02*
X6511873Y7214308D01*
X5658806Y6907757D02*
X5670576Y6911534D01*
X6334693Y7134363D02*
X6362215Y7143934D01*
X5566760Y6879475D02*
X5567795Y6879752D01*
X5568877Y6880045D01*
X6176576Y7080084D02*
X6243217Y7102843D01*
X5563088Y6878533D02*
X5563937Y6878744D01*
X5564832Y6878971D01*
X5796605Y6952652D02*
X5828552Y6963203D01*
X5765885Y6942545D02*
X5796605Y6952652D01*
X5617217Y6894577D02*
X5626748Y6897568D01*
X5636870Y6900766D01*
X6305568Y7124285D02*
X6334693Y7134363D01*
X5588838Y6885846D02*
X5592396Y6886922D01*
X5596124Y6888055D01*
X6275017Y7113758D02*
X6305568Y7124285D01*
X5576350Y6882152D02*
X5579206Y6882982D01*
X5582241Y6883876D01*
X6243217Y7102843D02*
X6275017Y7113758D01*
X6036087Y7032519D02*
X6176576Y7080084D01*
X5929983Y6996931D02*
X6036087Y7032519D01*
X5861548Y6974140D02*
X5929983Y6996931D01*
X5828552Y6963203D02*
X5861548Y6974140D01*
X6387957Y7152936D02*
X6400105Y7157206D01*
X5708830Y6923904D02*
X5765885Y6942545D01*
X5695609Y6919615D02*
X5708830Y6923904D01*
X6362215Y7143934D02*
X6387957Y7152936D01*
X5682851Y6915489D02*
X5695609Y6919615D01*
X5670576Y6911534D02*
X5682851Y6915489D01*
X5636870Y6900766D02*
X5647564Y6904165D01*
X5658806Y6907757D01*
X5596124Y6888055D02*
X5600019Y6889247D01*
X5617217Y6894577D01*
X5582241Y6883876D02*
X5585453Y6884831D01*
X5588838Y6885846D01*
X5568877Y6880045D02*
X5573675Y6881385D01*
X5576350Y6882152D01*
X5564832Y6878971D02*
X5565773Y6879215D01*
X5566760Y6879475D01*
X5293370Y3423425D02*
X5315992Y3427863D01*
X5269727Y3418920D02*
X5293370Y3423425D01*
X5057831Y3383364D02*
X5077881Y3386292D01*
X5048772Y3382095D02*
X5057831Y3383364D01*
X5024759Y3378978D02*
X5032223Y3379898D01*
X5017853Y3378180D02*
X5024759Y3378978D01*
X5374909Y3440303D02*
X5390622Y3443998D01*
X5357045Y3436351D02*
X5374909Y3440303D01*
X5122308Y3393203D02*
X5146118Y3397091D01*
X5099468Y3389588D02*
X5122308Y3393203D01*
X4818266Y7431685D02*
X4838006Y7431417D01*
X4855881Y7431036D01*
X5529372Y6927066D02*
X5533347Y6917864D01*
X4772407Y7431957D02*
X4796465Y7431859D01*
X4818266Y7431685D01*
X4651507Y7431537D02*
X4716729Y7431997D01*
X4772407Y7431957D01*
X5520917Y6946993D02*
X5529372Y6927066D01*
X5088143Y6447903D02*
X5210531Y6418320D01*
X4959054Y6477332D02*
X5088143Y6447903D01*
X5325828Y6388691D02*
X5433648Y6359126D01*
X5009297Y7407523D02*
X5022111Y7403612D01*
X5337311Y3432188D02*
X5357045Y3436351D01*
X5315992Y3427863D02*
X5337311Y3432188D01*
X4997440Y7411053D02*
X5009297Y7407523D01*
X5170614Y3401203D02*
X5269727Y3418920D01*
X5146118Y3397091D02*
X5170614Y3401203D01*
X4986337Y7414223D02*
X4997440Y7411053D01*
X5088500Y3387897D02*
X5099468Y3389588D01*
X5077881Y3386292D02*
X5088500Y3387897D01*
X4872088Y7430525D02*
X4886824Y7429865D01*
X5040232Y3380938D02*
X5048772Y3382095D01*
X5032223Y3379898D02*
X5040232Y3380938D01*
X4823652Y6506498D02*
X4959054Y6477332D01*
X4603824Y6556767D02*
X4671561Y6540183D01*
X4855881Y7431036D02*
X4872088Y7430525D01*
X5210531Y6418320D02*
X5325828Y6388691D01*
X5561522Y6878161D02*
X5562283Y6878339D01*
X5546755Y6888051D02*
X5547306Y6886902D01*
X5546172Y6889277D02*
X5546755Y6888051D01*
X5542819Y6896512D02*
X5543544Y6894925D01*
X5540492Y6901659D02*
X5542819Y6896512D01*
X5559200Y6877667D02*
X5559501Y6877725D01*
X5557109Y6877362D02*
X5557245Y6877376D01*
X5556970Y6877349D02*
X5557109Y6877362D01*
X5562283Y6878339D02*
X5563088Y6878533D01*
X5556829Y6877337D02*
X5556970Y6877349D01*
X5555160Y6877326D02*
X5555416Y6877334D01*
X5548764Y6883931D02*
X5548980Y6883505D01*
X5548541Y6884377D02*
X5548764Y6883931D01*
X5547824Y6885832D02*
X5548071Y6885327D01*
X5547306Y6886902D02*
X5547824Y6885832D01*
X5559811Y6877787D02*
X5560132Y6877854D01*
X5545558Y6890580D02*
X5546172Y6889277D01*
X5544915Y6891957D02*
X5545558Y6890580D01*
X5559501Y6877725D02*
X5559811Y6877787D01*
X5544244Y6893406D02*
X5544915Y6891957D01*
X5543544Y6894925D02*
X5544244Y6893406D01*
X5538826Y6905393D02*
X5540492Y6901659D01*
X5537074Y6909349D02*
X5538826Y6905393D01*
X5535246Y6913512D02*
X5537074Y6909349D01*
X5533347Y6917864D02*
X5535246Y6913512D01*
X5558908Y6877612D02*
X5559200Y6877667D01*
X5549907Y6881703D02*
X5550042Y6881421D01*
X5549390Y6882711D02*
X5549585Y6882344D01*
X5549189Y6883098D02*
X5549390Y6882711D01*
X5548980Y6883505D02*
X5549189Y6883098D01*
X5558621Y6877562D02*
X5558908Y6877612D01*
X5548310Y6884842D02*
X5548541Y6884377D01*
X5548071Y6885327D02*
X5548310Y6884842D01*
X2715407Y4707078D02*
X2718555Y4707887D01*
X2714459Y4706831D02*
X2715407Y4707078D01*
X2711917Y4706157D02*
X2712714Y4706370D01*
X2711171Y4705955D02*
X2711917Y4706157D01*
X2712714Y4706370D02*
X2713561Y4706595D01*
X2714459Y4706831D01*
X2710476Y4705765D02*
X2711171Y4705955D01*
X2709831Y4705587D02*
X2710476Y4705765D01*
X2720904Y4708481D02*
X2723450Y4709120D01*
X2718555Y4707887D02*
X2720904Y4708481D01*
X2709237Y4705421D02*
X2709831Y4705587D01*
X2723450Y4709120D02*
X2726191Y4709802D01*
X2955694Y4764163D02*
X2989211Y4771979D01*
X2923507Y4756642D02*
X2955694Y4764163D01*
X3393974Y4865483D02*
X3429351Y4873583D01*
X2863845Y4742653D02*
X2892831Y4749458D01*
X3429351Y4873583D02*
X3463708Y4881435D01*
X2836732Y4736269D02*
X2863845Y4742653D01*
X3463708Y4881435D02*
X3496865Y4888999D01*
X3059511Y4788329D02*
X3208116Y4822731D01*
X2823935Y4733247D02*
X2836732Y4736269D01*
X2892831Y4749458D02*
X2923507Y4756642D01*
X3320883Y4848707D02*
X3393974Y4865483D01*
X3208116Y4822731D02*
X3320883Y4848707D01*
X2989211Y4771979D02*
X3059511Y4788329D01*
X4983532Y8396879D02*
X4983606Y8389414D01*
X4983683Y8382270D01*
X4983762Y8375456D01*
X4984816Y8324423D02*
X4984823Y8324312D01*
X4984529Y8332235D02*
X4984580Y8330588D01*
X4984631Y8329048D01*
X4984682Y8327619D01*
X4984783Y8325097D01*
X4984803Y8324657D01*
X4984810Y8324537D02*
X4984816Y8324423D01*
X4984803Y8324657D02*
X4984810Y8324537D01*
X4984479Y8333990D02*
X4984529Y8332235D01*
X4984380Y8337814D02*
X4984429Y8335850D01*
X4984479Y8333990D01*
X4984284Y8342046D02*
X4984380Y8337814D01*
X4983928Y8362856D02*
X4984014Y8357091D01*
X4984102Y8351694D01*
X4984284Y8342046D01*
X4983844Y8368981D02*
X4983928Y8362856D01*
X4983762Y8375456D02*
X4983844Y8368981D01*
X4984823Y8324312D02*
X4984829Y8324200D01*
X2742725Y4713855D02*
X2750608Y4715765D01*
X2735556Y4712108D02*
X2739050Y4712961D01*
X2768431Y4720053D02*
X2778325Y4722420D01*
X2811673Y4730346D02*
X2823935Y4733247D01*
X2778325Y4722420D02*
X2788846Y4724927D01*
X2799969Y4727571D01*
X2726191Y4709802D02*
X2729125Y4710528D01*
X2750608Y4715765D02*
X2759184Y4717833D01*
X2732247Y4711297D02*
X2735556Y4712108D01*
X2739050Y4712961D02*
X2742725Y4713855D01*
X2799969Y4727571D02*
X2811673Y4730346D01*
X2729125Y4710528D02*
X2732247Y4711297D01*
X2759184Y4717833D02*
X2768431Y4720053D01*
X4367422Y8907823D02*
X4367426Y8907822D01*
X4675061Y8907823D02*
X4982700D01*
X4367422D02*
X4675061D01*
X4982700Y8610601D02*
Y8907823D01*
X4982702Y2657128D02*
Y3022058D01*
X4367424Y2657128D02*
X4675063D01*
X4982702D01*
X4367424D02*
Y3020995D01*
X4281074Y3386294D02*
X4367424Y3374445D01*
Y3020995D02*
Y3374445D01*
X4982775Y8540739D02*
X4982903Y8497373D01*
X4982988Y8476882D01*
X4983087Y8457288D01*
X4983199Y8438668D01*
X4983460Y8404654D01*
X4983532Y8396879D01*
D11*
X4770000Y5687500D02*
D03*
D12*
X4724000Y5875000D02*
D03*
D13*
X4624000D02*
D03*
D14*
X4674000Y8760000D02*
D03*
%TF.MD5,1b97b48806b9e5324e79e26b1c0ebbe8*%
M02*
