%TF.GenerationSoftware,Altium Limited,Altium Designer,18.1.6 (161)*%
G04 Layer_Physical_Order=2*
G04 Layer_Color=16711680*
%FSLAX26Y26*%
%MOIN*%
%TF.FileFunction,Copper,L2,Bot,Signal*%
%TF.Part,Single*%
G01*
G75*
%TA.AperFunction,ComponentPad*%
%ADD12C,0.055118*%
%ADD13R,0.055118X0.055118*%
%TA.AperFunction,ViaPad*%
%ADD14C,0.150000*%
%TA.AperFunction,SMDPad,CuDef*%
%ADD15R,0.053150X0.037402*%
%ADD16R,0.037402X0.053150*%
G04:AMPARAMS|DCode=17|XSize=45mil|YSize=196.85mil|CornerRadius=0mil|HoleSize=0mil|Usage=FLASHONLY|Rotation=150.000|XOffset=0mil|YOffset=0mil|HoleType=Round|Shape=Rectangle|*
%AMROTATEDRECTD17*
4,1,4,0.068698,0.073989,-0.029727,-0.096489,-0.068698,-0.073989,0.029727,0.096489,0.068698,0.073989,0.0*
%
%ADD17ROTATEDRECTD17*%

G04:AMPARAMS|DCode=18|XSize=55mil|YSize=100mil|CornerRadius=0mil|HoleSize=0mil|Usage=FLASHONLY|Rotation=60.000|XOffset=0mil|YOffset=0mil|HoleType=Round|Shape=Rectangle|*
%AMROTATEDRECTD18*
4,1,4,0.029551,-0.048816,-0.057051,0.001184,-0.029551,0.048816,0.057051,-0.001184,0.029551,-0.048816,0.0*
%
%ADD18ROTATEDRECTD18*%

%ADD19R,0.035433X0.027559*%
%ADD20R,0.027559X0.035433*%
%ADD21R,0.055906X0.072047*%
%ADD22R,0.055906X0.068110*%
%TA.AperFunction,ConnectorPad*%
%ADD23R,0.046260X0.074803*%
%ADD24R,0.093504X0.074803*%
%ADD25R,0.058071X0.082677*%
%ADD26R,0.017716X0.054331*%
%TA.AperFunction,SMDPad,CuDef*%
%ADD27R,0.035433X0.039370*%
%ADD28R,0.106299X0.039370*%
%ADD29R,0.106299X0.129921*%
%ADD30R,0.043307X0.049213*%
%ADD31R,0.031496X0.066929*%
%TA.AperFunction,Conductor*%
%ADD32C,0.010000*%
G36*
X4982435Y8610601D02*
X4982436Y8601868D01*
X4982445Y8584402D01*
X4982464Y8566937D01*
X4982492Y8549471D01*
X4982510Y8540738D01*
X4982638Y8497372D01*
X4982723Y8476881D01*
X4982822Y8457287D01*
X4982934Y8438666D01*
X4983195Y8404652D01*
X4983267Y8396876D01*
X4983341Y8389412D01*
X4983418Y8382267D01*
X4983497Y8375452D01*
X4983579Y8368978D01*
X4983663Y8362853D01*
X4983749Y8357086D01*
X4983837Y8351689D01*
X4984005Y8342759D01*
X4984019Y8342041D01*
X4984114Y8337809D01*
Y8337808D01*
X4984164Y8335843D01*
X4984192Y8334782D01*
X4984214Y8333983D01*
X4984264Y8332242D01*
X4984315Y8330579D01*
X4984333Y8330030D01*
X4984366Y8329039D01*
X4984368Y8328989D01*
X4984400Y8328093D01*
X4984417Y8327608D01*
X4984518Y8325086D01*
X4984519Y8325076D01*
X4984531Y8324793D01*
X4984538Y8324642D01*
X4984585Y8323799D01*
X4984586Y8323798D01*
X4984593Y8323795D01*
X4984814Y8323554D01*
X4985417Y8323472D01*
X4985684Y8323436D01*
X4986048Y8323386D01*
X4987507Y8323188D01*
X4988783Y8323012D01*
X4990243Y8322810D01*
X4992790Y8322456D01*
X4997336Y8321809D01*
X4999787Y8321458D01*
X4999787Y8321458D01*
X4999790Y8321457D01*
X5000642Y8321335D01*
X5004928Y8320719D01*
X5007404Y8320362D01*
X5009766Y8320021D01*
X5013455Y8319489D01*
X5015498Y8319194D01*
X5022854Y8318130D01*
X5022854Y8318130D01*
X5022854Y8318130D01*
X5030768Y8316983D01*
X5030772Y8316982D01*
X5039199Y8315758D01*
X5048117Y8314460D01*
X5057484Y8313095D01*
X5057486Y8313094D01*
X5057489Y8313094D01*
X5057489Y8313094D01*
X5062426Y8312373D01*
X5077409Y8310183D01*
X5077409Y8310183D01*
X5077412Y8310183D01*
X5121010Y8303785D01*
X5143136Y8300550D01*
X5187260Y8293263D01*
X5231242Y8285160D01*
X5275067Y8276245D01*
X5296900Y8271382D01*
X5296900Y8271382D01*
X5317743Y8266738D01*
X5359230Y8256605D01*
X5400503Y8245629D01*
X5441544Y8233816D01*
X5461940Y8227493D01*
X5481528Y8221419D01*
X5520412Y8208412D01*
X5558998Y8194548D01*
X5597269Y8179833D01*
X5611962Y8173806D01*
X5616236Y8172053D01*
X5616236Y8172054D01*
X5616245Y8172050D01*
X5620523Y8170331D01*
X5652073Y8157648D01*
X5722180Y8125256D01*
X5790560Y8089361D01*
X5857037Y8050053D01*
X5921441Y8007434D01*
X5983607Y7961613D01*
X6043377Y7912707D01*
X6100597Y7860840D01*
X6124335Y7837029D01*
X6127864Y7833488D01*
X6127867Y7833485D01*
X6131350Y7829934D01*
X6148422Y7812525D01*
X6187971Y7769129D01*
X6225905Y7724315D01*
X6262175Y7678143D01*
X6296731Y7630675D01*
X6329527Y7581975D01*
X6360520Y7532108D01*
X6389668Y7481140D01*
X6403300Y7455140D01*
X6403300D01*
X6403300Y7455140D01*
X6410146Y7442085D01*
X6417236Y7428217D01*
X6417236Y7428215D01*
X6422268Y7418154D01*
X6424504Y7413682D01*
X6426571Y7409469D01*
X6431889Y7398625D01*
X6437493Y7387074D01*
X6448488Y7363882D01*
X6459275Y7340592D01*
X6469851Y7317206D01*
X6473170Y7309687D01*
X6475033Y7305466D01*
X6475036Y7305460D01*
X6475036Y7305460D01*
X6476885Y7301232D01*
X6481438Y7290819D01*
X6481438Y7290818D01*
X6481439Y7290817D01*
X6485622Y7281066D01*
X6487442Y7276824D01*
X6487443Y7276820D01*
X6487444Y7276820D01*
X6490275Y7270112D01*
X6492987Y7263611D01*
X6492987Y7263611D01*
X6492987Y7263611D01*
X6495567Y7257343D01*
X6495567Y7257342D01*
X6495567Y7257342D01*
X6498007Y7251326D01*
X6498007Y7251326D01*
X6498008Y7251324D01*
X6502441Y7240106D01*
X6502441Y7240105D01*
X6503718Y7236773D01*
X6503924Y7236232D01*
X6504881Y7233698D01*
X6505145Y7232993D01*
X6505745Y7231382D01*
X6506563Y7229154D01*
X6507323Y7227054D01*
X6507773Y7225785D01*
X6508154Y7224708D01*
X6508702Y7223133D01*
X6508967Y7222369D01*
X6509714Y7220152D01*
X6510344Y7218227D01*
X6510669Y7217224D01*
X6511223Y7215480D01*
X6511825Y7213468D01*
X6511915Y7213166D01*
X6512209Y7212110D01*
X6512600Y7210625D01*
X6512817Y7209704D01*
X6513100Y7208368D01*
X6513292Y7207231D01*
X6513413Y7206173D01*
X6513475Y7205298D01*
X6513486Y7204779D01*
X6513483Y7204701D01*
X6513410Y7203861D01*
X6513390Y7203765D01*
X6512839Y7201982D01*
X6512658Y7201581D01*
X6512502Y7201248D01*
X6512404Y7201052D01*
X6512391Y7201033D01*
X6512145Y7200693D01*
X6511754Y7200154D01*
X6511444Y7199790D01*
X6510495Y7198912D01*
X6510425Y7198855D01*
X6510333Y7198788D01*
X6510143Y7198669D01*
X6509326Y7198165D01*
X6508738Y7197816D01*
X6508630Y7197754D01*
X6507842Y7197347D01*
X6507158Y7197005D01*
X6506939Y7196901D01*
X6506390Y7196640D01*
X6505979Y7196452D01*
X6505453Y7196215D01*
X6504712Y7195888D01*
X6503296Y7195282D01*
X6501647Y7194595D01*
X6500621Y7194174D01*
X6500285Y7194038D01*
X6498528Y7193327D01*
X6496231Y7192415D01*
X6493878Y7191493D01*
X6491775Y7190678D01*
X6490632Y7190237D01*
X6488257Y7189329D01*
X6486621Y7188707D01*
X6485166Y7188156D01*
X6484057Y7187737D01*
X6481785Y7186883D01*
X6480240Y7186305D01*
X6479207Y7185919D01*
X6475767Y7184640D01*
X6469524Y7182334D01*
X6469524Y7182334D01*
X6469523Y7182334D01*
X6465749Y7180953D01*
X6461407Y7179366D01*
X6461407Y7179365D01*
X6452657Y7176193D01*
X6448859Y7174825D01*
X6443281Y7172817D01*
X6443281Y7172817D01*
X6433308Y7169249D01*
X6433308Y7169249D01*
X6433307Y7169248D01*
X6427358Y7167131D01*
X6422758Y7165494D01*
X6422757Y7165494D01*
X6422757Y7165494D01*
X6416118Y7163142D01*
X6411654Y7161561D01*
X6411653Y7161560D01*
X6407188Y7159985D01*
X6400017Y7157456D01*
X6400016Y7157456D01*
X6395551Y7155886D01*
X6392238Y7154722D01*
X6392230Y7154719D01*
X6387868Y7153186D01*
X6387865Y7153185D01*
X6387865Y7153185D01*
X6366824Y7145827D01*
X6362128Y7144184D01*
X6357428Y7142550D01*
X6339329Y7136256D01*
X6334606Y7134614D01*
X6330379Y7133151D01*
X6309850Y7126047D01*
X6305484Y7124536D01*
X6305481Y7124535D01*
X6305477Y7124534D01*
X6305477Y7124534D01*
X6279659Y7115638D01*
X6274936Y7114011D01*
X6270208Y7112388D01*
X6247509Y7104596D01*
X6243131Y7103094D01*
X6243131Y7103094D01*
X6180961Y7081861D01*
X6176491Y7080335D01*
X6172019Y7078821D01*
X6040384Y7034253D01*
X6035999Y7032769D01*
X6035999Y7032769D01*
X5934289Y6998655D01*
X5929895Y6997181D01*
X5925505Y6995719D01*
X5865859Y6975855D01*
X5861465Y6974391D01*
X5857068Y6972934D01*
X5833214Y6965028D01*
X5828469Y6963455D01*
X5823799Y6961912D01*
X5796526Y6952905D01*
X5791823Y6951357D01*
X5765806Y6942798D01*
X5765806Y6942798D01*
Y6942798D01*
X5761076Y6941253D01*
X5708748Y6924156D01*
X5708748Y6924156D01*
X5708748Y6924156D01*
X5699930Y6921295D01*
X5695527Y6919867D01*
X5695523Y6919865D01*
X5695522Y6919865D01*
X5687526Y6917279D01*
X5682769Y6915741D01*
X5675256Y6913320D01*
X5670495Y6911786D01*
X5665734Y6910258D01*
X5658728Y6908010D01*
X5658721Y6908007D01*
X5651899Y6905828D01*
X5647484Y6904418D01*
X5647484Y6904418D01*
X5641488Y6902512D01*
X5636790Y6901019D01*
X5636790Y6901019D01*
X5636790Y6901019D01*
X5631084Y6899216D01*
X5626667Y6897821D01*
X5626663Y6897819D01*
X5626663Y6897819D01*
X5621906Y6896326D01*
X5617139Y6894830D01*
X5617137Y6894830D01*
X5612421Y6893368D01*
X5604370Y6890873D01*
X5600802Y6889767D01*
X5596804Y6888541D01*
X5596241Y6888369D01*
X5594615Y6887874D01*
X5592073Y6887102D01*
X5590762Y6886705D01*
X5589309Y6886266D01*
X5586928Y6885551D01*
X5585925Y6885251D01*
X5583894Y6884645D01*
X5581950Y6884069D01*
X5580886Y6883755D01*
X5578717Y6883119D01*
X5577802Y6882852D01*
X5577152Y6882664D01*
X5575274Y6882122D01*
X5571988Y6881190D01*
X5570741Y6880844D01*
X5568706Y6880284D01*
X5567815Y6880043D01*
X5566809Y6879774D01*
X5566125Y6879593D01*
X5565176Y6879348D01*
X5563859Y6879016D01*
X5563456Y6878916D01*
X5563374Y6878897D01*
X5562656Y6878728D01*
X5562010Y6878578D01*
X5561671Y6878501D01*
X5560737Y6878306D01*
X5560332Y6878229D01*
X5559337Y6878051D01*
X5558773Y6877982D01*
X5557674Y6877857D01*
X5556734Y6877846D01*
X5556204Y6877873D01*
X5555851Y6877923D01*
X5555165Y6878064D01*
X5554476Y6878259D01*
X5553779Y6878547D01*
X5553194Y6878855D01*
X5552774Y6879093D01*
X5552490Y6879276D01*
X5551962Y6879671D01*
X5551481Y6880204D01*
X5550807Y6881052D01*
X5550125Y6882122D01*
X5549619Y6882959D01*
X5549445Y6883259D01*
X5549172Y6883755D01*
X5548201Y6885703D01*
X5547929Y6886254D01*
X5547826Y6886464D01*
X5547589Y6886949D01*
X5547296Y6887556D01*
X5546981Y6888214D01*
X5546658Y6888890D01*
X5546098Y6890071D01*
X5545673Y6890975D01*
X5545317Y6891738D01*
X5545007Y6892401D01*
X5544392Y6893727D01*
X5543911Y6894773D01*
X5542867Y6897060D01*
X5541749Y6899522D01*
X5540734Y6901767D01*
X5540734Y6901768D01*
X5538975Y6905714D01*
X5537404Y6909259D01*
X5536559Y6911182D01*
X5535407Y6913806D01*
X5534444Y6916013D01*
X5533529Y6918111D01*
X5529615Y6927172D01*
X5529614Y6927175D01*
X5521163Y6947092D01*
X5521162Y6947093D01*
X5521162Y6947094D01*
X5521161Y6947095D01*
X5521162Y6947095D01*
X5517467Y6955816D01*
X5509840Y6973153D01*
X5501898Y6990349D01*
X5493642Y7007397D01*
X5489399Y7015864D01*
X5489399Y7015864D01*
X5489396Y7015870D01*
X5485258Y7023928D01*
X5476740Y7039917D01*
X5467900Y7055730D01*
X5458742Y7071361D01*
X5454045Y7079105D01*
X5454044Y7079106D01*
X5454041Y7079112D01*
X5454039Y7079115D01*
X5451459Y7083279D01*
X5445101Y7093542D01*
X5426211Y7121738D01*
X5406001Y7149004D01*
X5384518Y7175278D01*
X5361810Y7200501D01*
X5337929Y7224616D01*
X5312928Y7247569D01*
X5286865Y7269307D01*
X5277236Y7276772D01*
X5273451Y7279707D01*
X5273451Y7279706D01*
X5259685Y7289750D01*
X5231471Y7308863D01*
X5202398Y7326643D01*
X5172529Y7343051D01*
X5157317Y7350730D01*
Y7350730D01*
X5153141Y7352721D01*
X5140915Y7358548D01*
X5107659Y7373189D01*
X5073843Y7386486D01*
X5039521Y7398418D01*
X5026852Y7402400D01*
X5022188Y7403866D01*
X5022188D01*
X5013812Y7406422D01*
X5009375Y7407776D01*
X5009374Y7407776D01*
X5009373Y7407777D01*
X5009373Y7407776D01*
X4997516Y7411307D01*
X4991219Y7413105D01*
X4986411Y7414478D01*
X4985091Y7414843D01*
X4982535Y7415542D01*
X4982455Y7415563D01*
X4981608Y7415791D01*
X4980398Y7416115D01*
X4979816Y7416271D01*
X4979736Y7416292D01*
X4977174Y7416967D01*
X4975851Y7417310D01*
X4975851Y7417310D01*
X4975851Y7417310D01*
X4970807Y7418595D01*
X4960666Y7420958D01*
X4950464Y7423042D01*
X4940208Y7424845D01*
X4935063Y7425641D01*
Y7425641D01*
X4935062Y7425642D01*
X4935062Y7425641D01*
X4932274Y7426037D01*
X4930333Y7426292D01*
X4926691Y7426772D01*
X4921099Y7427435D01*
X4917498Y7427813D01*
X4915498Y7428023D01*
X4912695Y7428290D01*
X4911148Y7428431D01*
X4908122Y7428695D01*
X4908052Y7428702D01*
X4907872Y7428716D01*
X4904954Y7428955D01*
X4901855Y7429191D01*
X4900305Y7429303D01*
X4898622Y7429419D01*
X4895257Y7429642D01*
X4891890Y7429849D01*
X4888522Y7430040D01*
X4886838Y7430130D01*
Y7430130D01*
X4886832Y7430130D01*
X4881929Y7430350D01*
X4872104Y7430790D01*
X4872096Y7430790D01*
X4855889Y7431301D01*
X4855882Y7431301D01*
Y7431301D01*
X4842965Y7431576D01*
X4838009Y7431682D01*
X4838009Y7431682D01*
X4818268Y7431950D01*
Y7431950D01*
X4796467Y7432124D01*
Y7432124D01*
X4772407Y7432222D01*
Y7432222D01*
X4716727Y7432262D01*
Y7432262D01*
X4651503Y7431802D01*
Y7431802D01*
X4644344Y7431690D01*
X4630027Y7431409D01*
X4615712Y7431049D01*
X4601399Y7430610D01*
X4594244Y7430361D01*
X4594243Y7430361D01*
Y7430361D01*
X4587934Y7430122D01*
X4575319Y7429568D01*
X4562709Y7428915D01*
X4550104Y7428164D01*
X4543804Y7427751D01*
X4543804Y7427751D01*
Y7427751D01*
X4538199Y7427358D01*
X4526997Y7426484D01*
X4515805Y7425491D01*
X4504624Y7424380D01*
X4499038Y7423781D01*
X4499038Y7423781D01*
X4499038Y7423781D01*
X4493993Y7423208D01*
X4483915Y7421963D01*
X4473855Y7420583D01*
X4463814Y7419069D01*
X4458801Y7418261D01*
X4458801Y7418261D01*
X4449759Y7416716D01*
X4431757Y7413184D01*
X4413878Y7409070D01*
X4396142Y7404377D01*
X4391796Y7403113D01*
X4387334Y7401816D01*
X4383105Y7400520D01*
X4382898Y7400454D01*
X4374680Y7397828D01*
X4366300Y7395001D01*
X4358155Y7392108D01*
X4357965Y7392041D01*
X4353816Y7390511D01*
X4353816Y7390511D01*
X4345121Y7387162D01*
X4327858Y7380148D01*
X4310771Y7372716D01*
X4293869Y7364870D01*
X4285491Y7360794D01*
X4285490Y7360793D01*
X4281327Y7358776D01*
X4272248Y7354377D01*
X4246586Y7339985D01*
X4222153Y7323592D01*
X4199106Y7305301D01*
X4177593Y7285230D01*
X4157749Y7263506D01*
X4139703Y7240267D01*
X4123568Y7215663D01*
X4109448Y7189850D01*
X4097432Y7162993D01*
X4087598Y7135262D01*
X4080008Y7106835D01*
X4078010Y7097025D01*
X4077070Y7092417D01*
X4077070Y7092415D01*
X4077070Y7092414D01*
X4076372Y7087706D01*
X4074182Y7072939D01*
X4071224Y7033685D01*
X4072040Y6994328D01*
X4076623Y6955230D01*
X4080314Y6935893D01*
X4080314Y6935893D01*
X4080314Y6935893D01*
X4081196Y6931720D01*
X4081324Y6931146D01*
X4083054Y6923394D01*
X4085039Y6915097D01*
X4087051Y6907215D01*
X4087149Y6906832D01*
X4088251Y6902711D01*
X4088251Y6902711D01*
X4089338Y6898781D01*
X4089499Y6898228D01*
X4091617Y6890950D01*
X4094037Y6883162D01*
X4096425Y6875941D01*
X4096597Y6875418D01*
X4097930Y6871564D01*
X4097930Y6871564D01*
X4099252Y6867856D01*
X4099494Y6867212D01*
X4102012Y6860483D01*
X4104924Y6853168D01*
X4107721Y6846545D01*
X4107987Y6845915D01*
X4109574Y6842312D01*
X4109574D01*
X4112775Y6835343D01*
X4119666Y6821642D01*
X4127196Y6808281D01*
X4135349Y6795291D01*
X4139654Y6788944D01*
X4139654Y6788943D01*
X4139654D01*
X4144215Y6782592D01*
X4153795Y6770233D01*
X4163965Y6758355D01*
X4174702Y6746987D01*
X4176907Y6744817D01*
X4180274Y6741502D01*
X4180275Y6741502D01*
X4183268Y6738652D01*
X4183718Y6738237D01*
X4189351Y6733052D01*
X4195558Y6727589D01*
X4201885Y6722267D01*
X4205093Y6719659D01*
X4212217Y6714089D01*
X4226775Y6703362D01*
X4241730Y6693197D01*
X4257061Y6683607D01*
X4264860Y6679034D01*
X4264860Y6679034D01*
X4264860Y6679033D01*
X4269220Y6676533D01*
X4277996Y6671636D01*
X4286848Y6666876D01*
X4295774Y6662255D01*
X4300264Y6659997D01*
X4305133Y6657592D01*
X4314919Y6652880D01*
X4324767Y6648298D01*
X4334675Y6643849D01*
X4339651Y6641673D01*
X4339651Y6641673D01*
X4345055Y6639350D01*
X4355901Y6634794D01*
X4366797Y6630361D01*
X4377743Y6626050D01*
X4383233Y6623941D01*
X4389196Y6621685D01*
X4401153Y6617257D01*
X4413151Y6612941D01*
X4425190Y6608738D01*
X4431223Y6606679D01*
X4431223Y6606679D01*
X4437770Y6604475D01*
X4450890Y6600145D01*
X4464043Y6595916D01*
X4477228Y6591791D01*
X4483833Y6589767D01*
X4483833Y6589767D01*
X4490989Y6587601D01*
X4505323Y6583337D01*
X4519683Y6579167D01*
X4534071Y6575088D01*
X4541274Y6573084D01*
X4541274Y6573084D01*
X4549065Y6570940D01*
X4564664Y6566714D01*
X4580286Y6562571D01*
X4595929Y6558510D01*
X4603759Y6556511D01*
X4603761Y6556510D01*
X4603761Y6556510D01*
X4671498Y6539926D01*
X4671500Y6539925D01*
X4690465Y6535505D01*
X4728436Y6526843D01*
X4766462Y6518421D01*
X4804539Y6510239D01*
X4823597Y6506239D01*
X4958997Y6477073D01*
X5088082Y6447645D01*
X5210465Y6418063D01*
X5325758Y6388436D01*
X5325761Y6388435D01*
X5325761Y6388435D01*
X5433578Y6358870D01*
X5446108Y6355320D01*
X5471128Y6348096D01*
X5496112Y6340748D01*
X5521060Y6333278D01*
X5533515Y6329481D01*
X5533522Y6329479D01*
X5533522Y6329479D01*
X5545025Y6325974D01*
X5567990Y6318829D01*
X5590913Y6311551D01*
X5613794Y6304140D01*
X5625212Y6300368D01*
X5625219Y6300365D01*
X5635648Y6296922D01*
X5656456Y6289888D01*
X5677214Y6282709D01*
X5697922Y6275383D01*
X5708249Y6271648D01*
X5708257Y6271645D01*
X5708257Y6271645D01*
X5725850Y6265357D01*
X5760779Y6252085D01*
X5795437Y6238121D01*
X5829811Y6223471D01*
X5846849Y6215806D01*
X5846850Y6215805D01*
X5846855Y6215803D01*
X5846855Y6215803D01*
X5868605Y6205851D01*
X5911333Y6184344D01*
X5953234Y6161264D01*
X5994248Y6136644D01*
X6014288Y6123577D01*
X6041681Y6105490D01*
X6094771Y6066868D01*
X6146055Y6025877D01*
X6195426Y5982603D01*
X6242784Y5937134D01*
X6288032Y5889565D01*
X6331075Y5839992D01*
X6371826Y5788517D01*
X6410200Y5735248D01*
X6446119Y5680293D01*
X6479508Y5623766D01*
X6510300Y5565782D01*
X6524364Y5536122D01*
X6524364Y5536122D01*
X6526350Y5531944D01*
X6538556Y5506265D01*
X6563732Y5445148D01*
X6585637Y5382783D01*
X6604211Y5319346D01*
X6611806Y5287181D01*
X6611806Y5287181D01*
X6612838Y5282608D01*
X6616339Y5267099D01*
X6624286Y5226710D01*
X6631108Y5186116D01*
X6636802Y5145348D01*
X6641362Y5104439D01*
X6644785Y5063418D01*
X6647069Y5022318D01*
X6648211Y4981170D01*
X6648211Y4960589D01*
X6648211Y4928548D01*
X6645443Y4864526D01*
X6639914Y4800683D01*
X6631632Y4737139D01*
X6620614Y4674011D01*
X6606880Y4611419D01*
X6590455Y4549478D01*
X6571371Y4488304D01*
X6549663Y4428011D01*
X6525372Y4368712D01*
X6498542Y4310517D01*
X6469224Y4253535D01*
X6453348Y4225704D01*
X6453348Y4225704D01*
X6453347Y4225702D01*
X6453346Y4225702D01*
X6434345Y4191625D01*
X6392995Y4125450D01*
X6348399Y4061417D01*
X6300667Y3999686D01*
X6249920Y3940409D01*
X6196282Y3883734D01*
X6139888Y3829802D01*
X6080876Y3778746D01*
X6019394Y3730695D01*
X5955594Y3685765D01*
X5889635Y3644071D01*
X5821680Y3605714D01*
X5790984Y3590352D01*
X5786790Y3588253D01*
X5782645Y3586187D01*
X5763156Y3576472D01*
X5715235Y3554266D01*
X5666703Y3533432D01*
X5617597Y3513988D01*
X5567958Y3495948D01*
X5517826Y3479328D01*
X5467241Y3464141D01*
X5416245Y3450399D01*
X5395421Y3445418D01*
X5390558Y3444255D01*
X5386119Y3443211D01*
X5379403Y3441632D01*
X5374849Y3440562D01*
X5374847Y3440561D01*
X5370330Y3439561D01*
X5356993Y3436610D01*
X5356993Y3436611D01*
X5356990Y3436610D01*
X5352241Y3435608D01*
X5341890Y3433425D01*
X5337258Y3432448D01*
X5337257Y3432448D01*
X5337257Y3432447D01*
X5320832Y3429116D01*
X5315941Y3428124D01*
X5311042Y3427162D01*
X5298219Y3424646D01*
X5293320Y3423685D01*
X5288469Y3422761D01*
X5269681Y3419181D01*
X5269681Y3419181D01*
X5269679Y3419181D01*
X5175221Y3402296D01*
X5170567Y3401464D01*
X5170565Y3401464D01*
X5165979Y3400694D01*
X5150750Y3398137D01*
X5146071Y3397352D01*
X5141392Y3396587D01*
X5127200Y3394270D01*
X5122270Y3393465D01*
X5118447Y3392860D01*
X5099432Y3389850D01*
X5099427Y3389849D01*
X5094542Y3389097D01*
X5088461Y3388159D01*
X5083530Y3387414D01*
X5077843Y3386555D01*
X5062726Y3384347D01*
X5057793Y3383626D01*
X5053362Y3383005D01*
X5053097Y3382968D01*
X5048740Y3382358D01*
X5048737Y3382358D01*
X5044105Y3381730D01*
X5040198Y3381201D01*
X5040198Y3381202D01*
X5040197Y3381201D01*
X5040197Y3381201D01*
X5032188Y3380161D01*
X5032188D01*
X5029485Y3379828D01*
X5024728Y3379241D01*
Y3379241D01*
X5017822Y3378444D01*
X5017821Y3378443D01*
X5017821Y3378444D01*
X5011493Y3377773D01*
X5009312Y3377568D01*
X5005748Y3377233D01*
Y3377233D01*
X5000599Y3376825D01*
X5000597Y3376825D01*
X4996396Y3376578D01*
X4992158Y3376424D01*
X4991931Y3376287D01*
X4991828Y3376113D01*
X4991826Y3376110D01*
X4991817Y3376095D01*
X4991804Y3376072D01*
X4991799Y3376062D01*
X4991797Y3376059D01*
X4991785Y3376035D01*
X4991772Y3376009D01*
X4991760Y3375983D01*
X4991753Y3375968D01*
X4991741Y3375941D01*
X4991725Y3375906D01*
X4991705Y3375858D01*
X4991701Y3375849D01*
X4991693Y3375829D01*
X4991671Y3375774D01*
X4991648Y3375716D01*
X4991625Y3375658D01*
X4991613Y3375627D01*
X4991611Y3375622D01*
X4991583Y3375548D01*
X4991521Y3375383D01*
X4991462Y3375220D01*
X4991405Y3375057D01*
X4991376Y3374971D01*
X4991343Y3374873D01*
X4991282Y3374685D01*
X4991221Y3374492D01*
X4991161Y3374298D01*
X4991131Y3374199D01*
X4991126Y3374182D01*
X4991098Y3374087D01*
X4991035Y3373869D01*
X4990972Y3373647D01*
X4990910Y3373425D01*
X4990880Y3373313D01*
X4990846Y3373186D01*
X4990782Y3372941D01*
X4990718Y3372691D01*
X4990655Y3372440D01*
X4990624Y3372314D01*
X4990621Y3372300D01*
X4990590Y3372174D01*
X4990525Y3371901D01*
X4990461Y3371627D01*
X4990396Y3371342D01*
X4990364Y3371203D01*
X4990330Y3371048D01*
X4990265Y3370748D01*
X4990199Y3370442D01*
X4990136Y3370138D01*
X4990103Y3369980D01*
X4989843Y3368648D01*
X4989731Y3368028D01*
X4989584Y3367205D01*
X4989516Y3366805D01*
X4989384Y3366005D01*
X4989258Y3365204D01*
X4989138Y3364403D01*
X4989079Y3364002D01*
X4989040Y3363722D01*
X4989015Y3363548D01*
X4988899Y3362707D01*
X4988890Y3362641D01*
X4988772Y3361758D01*
X4988769Y3361733D01*
X4988678Y3361019D01*
X4988653Y3360825D01*
X4988597Y3360370D01*
X4988302Y3357778D01*
X4988134Y3356303D01*
X4987690Y3351785D01*
X4987690Y3351783D01*
X4987404Y3348435D01*
X4987266Y3346810D01*
X4987266Y3346809D01*
X4987265Y3346803D01*
X4987010Y3343367D01*
X4986860Y3341360D01*
X4986860Y3341353D01*
X4986860Y3341353D01*
X4986860Y3341352D01*
X4986474Y3335435D01*
X4986474Y3335434D01*
X4986260Y3331693D01*
X4986108Y3329023D01*
X4986108Y3329023D01*
X4985761Y3322114D01*
X4985761Y3322114D01*
X4985331Y3311684D01*
X4985128Y3306767D01*
X4985128Y3306767D01*
X4984729Y3294241D01*
X4984572Y3289311D01*
Y3289306D01*
X4984572D01*
X4984572Y3289306D01*
X4984088Y3269652D01*
X4984088Y3269648D01*
X4983674Y3247691D01*
X4983326Y3223346D01*
X4983040Y3196524D01*
X4982814Y3167132D01*
X4982644Y3135081D01*
X4982527Y3100279D01*
X4982505Y3090493D01*
X4982470Y3070940D01*
X4982448Y3051387D01*
X4982437Y3031834D01*
X4982437Y3022058D01*
Y2657393D01*
X4367689D01*
Y3369910D01*
X4367689Y3374445D01*
X4367465Y3374702D01*
X4367465Y3374706D01*
X4367465Y3374707D01*
X4367460Y3374708D01*
X4365908Y3374921D01*
X4362928Y3375330D01*
X4362862Y3375338D01*
X4281115Y3386556D01*
X4281110Y3386557D01*
X4281103Y3386557D01*
X4262930Y3389042D01*
X4226647Y3394441D01*
X4190430Y3400270D01*
X4154285Y3406527D01*
X4136251Y3409870D01*
X4136241Y3409872D01*
X4118976Y3413072D01*
X4084532Y3419922D01*
X4050180Y3427222D01*
X4015926Y3434969D01*
X4003392Y3437976D01*
X3998844Y3439067D01*
X3998842Y3439068D01*
X3994487Y3440113D01*
X3982446Y3443002D01*
X3949778Y3451335D01*
X3917233Y3460133D01*
X3884816Y3469394D01*
X3868675Y3474255D01*
Y3474255D01*
X3864227Y3475587D01*
X3838049Y3483426D01*
X3777414Y3503716D01*
X3717460Y3525934D01*
X3658246Y3550057D01*
X3629040Y3563059D01*
X3629029Y3563064D01*
X3594904Y3578105D01*
X3528112Y3611302D01*
X3462921Y3647542D01*
X3399470Y3686748D01*
X3337894Y3728837D01*
X3278322Y3773719D01*
X3220883Y3821300D01*
X3165698Y3871477D01*
X3139291Y3897810D01*
Y3897811D01*
X3134344Y3902751D01*
X3124524Y3912694D01*
X3114773Y3922706D01*
X3105092Y3932784D01*
X3100287Y3937857D01*
X3086901Y3951791D01*
X3060916Y3980368D01*
X3035724Y4009647D01*
X3011344Y4039606D01*
X2987796Y4070223D01*
X2965095Y4101473D01*
X2943261Y4133334D01*
X2922308Y4165783D01*
X2912280Y4182288D01*
X2912277Y4182294D01*
X2908901Y4187868D01*
X2902244Y4199075D01*
X2895683Y4210338D01*
X2889219Y4221657D01*
X2886035Y4227344D01*
X2886036Y4227344D01*
X2886032Y4227350D01*
X2879351Y4239319D01*
X2866343Y4263451D01*
X2853693Y4287772D01*
X2841402Y4312278D01*
X2835439Y4324620D01*
X2834432Y4326698D01*
X2832450Y4330853D01*
X2830490Y4335019D01*
X2828555Y4339196D01*
X2827598Y4341290D01*
X2827598Y4341290D01*
X2821279Y4355431D01*
X2819243Y4359988D01*
X2819242Y4359990D01*
X2810484Y4380402D01*
X2810484Y4380402D01*
X2803241Y4397858D01*
X2801425Y4402236D01*
X2801424Y4402238D01*
X2801424Y4402238D01*
X2792171Y4425190D01*
X2792171Y4425191D01*
X2792171Y4425191D01*
X2782833Y4448954D01*
X2782832Y4448956D01*
X2782830Y4448962D01*
X2782830Y4448962D01*
X2778143Y4461046D01*
X2768944Y4485281D01*
X2759920Y4509581D01*
X2751071Y4533946D01*
X2746735Y4546161D01*
X2740131Y4565003D01*
X2738555Y4569500D01*
X2738554Y4569501D01*
X2738554Y4569501D01*
X2730933Y4591831D01*
X2730933Y4591832D01*
X2730933Y4591833D01*
X2728881Y4597984D01*
X2727364Y4602530D01*
X2727364Y4602531D01*
X2727364Y4602531D01*
X2723974Y4612866D01*
X2723974Y4612866D01*
X2723974Y4612867D01*
X2722224Y4618305D01*
X2720776Y4622805D01*
X2719358Y4627308D01*
X2717784Y4632306D01*
X2713910Y4645092D01*
X2712471Y4649845D01*
X2712470Y4649846D01*
X2711093Y4654596D01*
X2710459Y4656817D01*
X2709388Y4660636D01*
X2708651Y4663326D01*
X2708202Y4664987D01*
X2707711Y4666828D01*
X2707282Y4668459D01*
X2706829Y4670210D01*
X2706415Y4671844D01*
X2706017Y4673437D01*
X2705560Y4675316D01*
X2705249Y4676610D01*
X2704709Y4678932D01*
X2704402Y4680331D01*
X2703721Y4683488D01*
X2703400Y4685216D01*
X2703212Y4686238D01*
X2703060Y4687100D01*
X2702792Y4688719D01*
X2702601Y4690075D01*
X2702482Y4691003D01*
X2702397Y4691782D01*
X2702349Y4692255D01*
X2702266Y4693203D01*
X2702224Y4694046D01*
X2702202Y4694761D01*
X2702215Y4696033D01*
X2702240Y4696524D01*
X2702293Y4697240D01*
X2702342Y4697712D01*
X2702479Y4698451D01*
X2702519Y4698626D01*
X2702967Y4700116D01*
X2703336Y4700857D01*
X2703639Y4701355D01*
X2703826Y4701635D01*
X2704199Y4702158D01*
X2704437Y4702427D01*
X2704920Y4702900D01*
X2705819Y4703517D01*
X2706504Y4703958D01*
X2707090Y4704236D01*
X2707383Y4704372D01*
X2708543Y4704850D01*
X2708974Y4705014D01*
X2709485Y4705178D01*
X2710122Y4705371D01*
X2711388Y4705727D01*
X2711745Y4705825D01*
X2712764Y4706101D01*
X2714703Y4706617D01*
X2717181Y4707258D01*
X2720241Y4708040D01*
X2720968Y4708224D01*
X2720969Y4708224D01*
X2720972Y4708225D01*
Y4708225D01*
X2723511Y4708862D01*
X2723514Y4708863D01*
Y4708863D01*
X2726259Y4709546D01*
Y4709546D01*
X2727759Y4709917D01*
X2732310Y4711039D01*
X2732310Y4711039D01*
X2735707Y4711871D01*
X2739112Y4712703D01*
X2739113Y4712703D01*
X2743665Y4713810D01*
X2750670Y4715507D01*
X2750671Y4715508D01*
X2759243Y4717575D01*
X2759245Y4717575D01*
X2768493Y4719796D01*
X2768497Y4719797D01*
X2778387Y4722162D01*
Y4722162D01*
X2788909Y4724670D01*
Y4724670D01*
X2800028Y4727313D01*
X2800028D01*
X2806907Y4728944D01*
X2811734Y4730088D01*
X2811734Y4730088D01*
X2811734Y4730088D01*
X2823995Y4732989D01*
X2823996D01*
X2836791Y4736010D01*
X2836792Y4736010D01*
X2836793Y4736011D01*
Y4736011D01*
X2859350Y4741322D01*
X2863906Y4742395D01*
X2863906Y4742395D01*
X2892891Y4749200D01*
X2923567Y4756384D01*
Y4756384D01*
X2951195Y4762840D01*
X2955754Y4763905D01*
X2955754Y4763905D01*
X2989271Y4771721D01*
X2989272Y4771721D01*
X2989273Y4771722D01*
X3055015Y4787012D01*
X3059570Y4788071D01*
X3059571Y4788071D01*
X3208177Y4822473D01*
X3208178Y4822473D01*
X3316385Y4847399D01*
X3320942Y4848449D01*
X3320942Y4848449D01*
X3394037Y4865225D01*
Y4865225D01*
X3429410Y4873325D01*
X3429413Y4873325D01*
X3429415Y4873326D01*
X3463762Y4881176D01*
X3463767Y4881177D01*
X3496924Y4888740D01*
X3496927Y4888741D01*
Y4888741D01*
X3554343Y4901794D01*
X3558913Y4902832D01*
X3558913Y4902833D01*
X3573377Y4906109D01*
X3573377Y4906109D01*
X3573377Y4906109D01*
X3600909Y4912330D01*
X3600910Y4912330D01*
X3613924Y4915261D01*
X3613933Y4915263D01*
Y4915263D01*
X3626418Y4918069D01*
X3626423Y4918070D01*
Y4918070D01*
X3638370Y4920749D01*
X3638372Y4920750D01*
X3649742Y4923293D01*
X3649745Y4923293D01*
X3649749Y4923294D01*
Y4923294D01*
X3660523Y4925697D01*
X3660527Y4925698D01*
Y4925698D01*
X3675517Y4929024D01*
X3680220Y4930068D01*
X3680222Y4930068D01*
X3680222Y4930068D01*
X3680222Y4930068D01*
X3689074Y4932021D01*
X3689077Y4932022D01*
X3697216Y4933810D01*
X3704646Y4935432D01*
X3704647Y4935432D01*
X3711348Y4936883D01*
X3711348D01*
X3711350Y4936884D01*
X3717308Y4938159D01*
X3717312Y4938160D01*
X3717314Y4938160D01*
Y4938160D01*
X3722526Y4939258D01*
X3722528Y4939258D01*
Y4939258D01*
X3722528Y4939258D01*
X3727346Y4940247D01*
X3730677Y4940908D01*
X3730681Y4940909D01*
X3730682Y4940909D01*
X3730687Y4940910D01*
X3731314Y4941035D01*
X3732567Y4941271D01*
X3733823Y4941494D01*
X3735081Y4941705D01*
X3735711Y4941804D01*
X3735715Y4941805D01*
X3735718Y4941805D01*
X3735723Y4941806D01*
X3735723Y4941806D01*
X3739809Y4941682D01*
X3742553Y4940952D01*
X3744290Y4940221D01*
X3745590Y4939493D01*
X3746468Y4938960D01*
X3747272Y4938397D01*
X3747836Y4937979D01*
X3748476Y4937503D01*
X3750042Y4936145D01*
X3751611Y4934599D01*
X3753782Y4932215D01*
X3755491Y4929962D01*
X3756574Y4928532D01*
X3756579Y4928525D01*
X3756948Y4927943D01*
X3758527Y4925431D01*
X3760582Y4921730D01*
X3761391Y4920200D01*
X3761501Y4919985D01*
X3763473Y4915569D01*
X3763767Y4914894D01*
X3764332Y4913448D01*
X3765828Y4909067D01*
X3765828Y4909067D01*
X3767218Y4904643D01*
X3767739Y4902981D01*
X3771653Y4890839D01*
X3775687Y4878736D01*
X3779841Y4866674D01*
X3781963Y4860658D01*
X3784033Y4854890D01*
X3788262Y4843400D01*
X3792618Y4831958D01*
X3797100Y4820565D01*
X3799388Y4814887D01*
X3801628Y4809419D01*
X3806208Y4798524D01*
X3810919Y4787685D01*
X3815761Y4776903D01*
X3818234Y4771526D01*
X3827876Y4751279D01*
X3848809Y4711615D01*
X3871887Y4673160D01*
X3897040Y4636029D01*
X3907542Y4621822D01*
X3910371Y4617995D01*
X3910372Y4617994D01*
X3910372Y4617994D01*
X3920787Y4604690D01*
X3942390Y4578709D01*
X3964996Y4553595D01*
X3988569Y4529387D01*
X4000707Y4517636D01*
X4000707Y4517636D01*
X4000707Y4517635D01*
X4017156Y4502362D01*
X4051390Y4473327D01*
X4087300Y4446393D01*
X4124758Y4421656D01*
X4144025Y4410140D01*
X4144025Y4410140D01*
X4157566Y4402507D01*
X4185066Y4388014D01*
X4213093Y4374566D01*
X4241606Y4362183D01*
X4256032Y4356397D01*
X4256032Y4356397D01*
X4263644Y4353451D01*
X4278930Y4347761D01*
X4294311Y4342332D01*
X4309783Y4337168D01*
X4317558Y4334682D01*
X4317558Y4334683D01*
X4325676Y4332161D01*
X4341972Y4327311D01*
X4358341Y4322716D01*
X4374781Y4318380D01*
X4383026Y4316309D01*
X4391678Y4314204D01*
X4409025Y4310179D01*
X4426429Y4306402D01*
X4443884Y4302873D01*
X4452638Y4301200D01*
X4452638Y4301200D01*
X4471569Y4297811D01*
X4509546Y4291717D01*
X4547658Y4286539D01*
X4585884Y4282281D01*
X4605032Y4280497D01*
Y4280497D01*
X4605033Y4280497D01*
X4638320Y4277929D01*
X4705027Y4275082D01*
X4771795Y4275288D01*
X4838483Y4278548D01*
X4866921Y4280918D01*
X4871754Y4281320D01*
Y4281321D01*
X4887593Y4282909D01*
X4919208Y4286660D01*
X4950723Y4291175D01*
X4982120Y4296450D01*
X4997768Y4299372D01*
X4997768D01*
Y4299372D01*
X5005208Y4300840D01*
X5020056Y4303927D01*
X5034862Y4307213D01*
X5049622Y4310698D01*
X5056984Y4312515D01*
X5064026Y4314304D01*
X5078069Y4318040D01*
X5092056Y4321984D01*
X5105982Y4326136D01*
X5112921Y4328289D01*
X5112927Y4328291D01*
X5125704Y4332381D01*
X5151024Y4341255D01*
X5176004Y4351044D01*
X5200612Y4361735D01*
X5212766Y4367414D01*
X5212768Y4367414D01*
Y4367415D01*
X5214374Y4368203D01*
X5217572Y4369809D01*
X5220749Y4371456D01*
X5223904Y4373142D01*
X5225474Y4374001D01*
X5227142Y4374925D01*
X5230462Y4376799D01*
X5233762Y4378708D01*
X5237041Y4380653D01*
X5238673Y4381638D01*
X5240389Y4382685D01*
X5243807Y4384804D01*
X5247206Y4386953D01*
X5250585Y4389134D01*
X5252267Y4390236D01*
X5254020Y4391395D01*
X5257511Y4393734D01*
X5260984Y4396101D01*
X5264438Y4398495D01*
X5266158Y4399703D01*
Y4399703D01*
X5267935Y4400962D01*
X5271476Y4403498D01*
X5274998Y4406059D01*
X5278502Y4408646D01*
X5280247Y4409949D01*
X5280247D01*
X5282037Y4411295D01*
X5285603Y4414005D01*
X5289151Y4416739D01*
X5292680Y4419496D01*
X5294438Y4420883D01*
Y4420883D01*
X5294438Y4420883D01*
Y4420883D01*
X5301664Y4426690D01*
X5315907Y4438558D01*
X5329865Y4450760D01*
X5343529Y4463289D01*
X5350249Y4469675D01*
X5351919Y4471284D01*
X5355245Y4474517D01*
X5358551Y4477770D01*
X5361839Y4481043D01*
X5363475Y4482687D01*
Y4482687D01*
X5363477Y4482689D01*
X5366665Y4485918D01*
X5372980Y4492435D01*
X5379213Y4499031D01*
X5385364Y4505703D01*
X5388409Y4509068D01*
X5388409D01*
X5389867Y4510697D01*
X5392768Y4513970D01*
X5395646Y4517262D01*
X5398502Y4520574D01*
X5399922Y4522238D01*
X5399922D01*
X5401287Y4523848D01*
X5403998Y4527085D01*
X5406686Y4530341D01*
X5409350Y4533618D01*
X5410672Y4535263D01*
Y4535263D01*
X5411932Y4536843D01*
X5414432Y4540019D01*
X5416905Y4543215D01*
X5419351Y4546432D01*
X5420565Y4548048D01*
Y4548048D01*
X5421708Y4549584D01*
X5423973Y4552674D01*
X5426208Y4555786D01*
X5428413Y4558918D01*
X5429505Y4560493D01*
X5429505D01*
X5430521Y4561974D01*
X5432528Y4564954D01*
X5434501Y4567956D01*
X5436440Y4570981D01*
X5436831Y4571602D01*
X5437396Y4572500D01*
X5437396Y4572501D01*
X5439077Y4575205D01*
X5439980Y4576736D01*
X5442314Y4580691D01*
X5445380Y4586274D01*
X5448273Y4591949D01*
X5449654Y4594820D01*
X5449654D01*
X5453160Y4602557D01*
X5459745Y4618216D01*
X5465754Y4634105D01*
X5471178Y4650203D01*
X5473669Y4658324D01*
X5473670Y4658327D01*
X5477828Y4672536D01*
X5484511Y4701374D01*
X5488988Y4730636D01*
X5491233Y4760154D01*
X5491514Y4774955D01*
X5491189Y4790873D01*
X5488592Y4822604D01*
X5483417Y4854017D01*
X5475698Y4884903D01*
X5465485Y4915057D01*
X5452848Y4944278D01*
X5437869Y4972371D01*
X5420650Y4999149D01*
X5411235Y5011988D01*
X5411235Y5011989D01*
X5403540Y5021575D01*
X5387357Y5040075D01*
X5370155Y5057632D01*
X5351991Y5074191D01*
X5332921Y5089698D01*
X5313007Y5104104D01*
X5292311Y5117364D01*
X5270900Y5129435D01*
X5259950Y5135012D01*
X5259950Y5135012D01*
X5259949Y5135012D01*
X5255184Y5137390D01*
X5245615Y5142073D01*
X5235998Y5146656D01*
X5226334Y5151140D01*
X5221485Y5153344D01*
X5216370Y5155638D01*
X5206107Y5160149D01*
X5195800Y5164559D01*
X5185450Y5168868D01*
X5180260Y5170985D01*
X5174720Y5173213D01*
X5163612Y5177594D01*
X5152465Y5181876D01*
X5141280Y5186058D01*
X5135674Y5188111D01*
X5129635Y5190294D01*
X5117532Y5194588D01*
X5105396Y5198786D01*
X5093226Y5202887D01*
X5087130Y5204902D01*
X5080517Y5207060D01*
X5067270Y5211308D01*
X5053994Y5215466D01*
X5040690Y5219534D01*
X5034028Y5221533D01*
X5026766Y5223688D01*
X5012225Y5227935D01*
X4997660Y5232097D01*
X4983072Y5236176D01*
X4975769Y5238184D01*
X4975769Y5238184D01*
X4975769Y5238184D01*
X4967784Y5240357D01*
X4951801Y5244646D01*
X4935797Y5248858D01*
X4919773Y5252993D01*
X4911753Y5255032D01*
X4911744Y5255034D01*
X4845922Y5271144D01*
X4841383Y5272255D01*
X4841382Y5272255D01*
X4821152Y5276991D01*
X4780652Y5286290D01*
X4740100Y5295361D01*
X4699498Y5304202D01*
X4679178Y5308537D01*
X4679168Y5308539D01*
X4658447Y5312946D01*
X4617046Y5321946D01*
X4575686Y5331132D01*
X4534367Y5340503D01*
X4513729Y5345282D01*
Y5345282D01*
X4513722Y5345284D01*
X4509167Y5346338D01*
X4494491Y5349735D01*
X4456076Y5358843D01*
X4417711Y5368156D01*
X4379395Y5377671D01*
X4360263Y5382531D01*
Y5382531D01*
X4355739Y5383680D01*
X4342425Y5387061D01*
X4306821Y5396339D01*
X4271276Y5405840D01*
X4235790Y5415561D01*
X4218078Y5420533D01*
X4218071Y5420535D01*
X4201554Y5425170D01*
X4168589Y5434680D01*
X4135693Y5444429D01*
X4102870Y5454417D01*
X4090908Y5458151D01*
X4086494Y5459529D01*
X4086492Y5459530D01*
X4086488Y5459532D01*
X4086481Y5459533D01*
X4086480Y5459534D01*
X4086480Y5459533D01*
X4071185Y5464309D01*
X4040676Y5474115D01*
X4010250Y5484176D01*
X3979909Y5494492D01*
X3969144Y5498253D01*
X3964776Y5499779D01*
X3964776Y5499779D01*
X3950615Y5504726D01*
X3922388Y5514891D01*
X3894259Y5525326D01*
X3866232Y5536029D01*
X3856564Y5539827D01*
X3852263Y5541517D01*
X3852263Y5541517D01*
X3839143Y5546671D01*
X3813017Y5557262D01*
X3787005Y5568133D01*
X3761113Y5579284D01*
X3748227Y5584999D01*
X3736061Y5590394D01*
X3711861Y5601475D01*
X3687795Y5612845D01*
X3663867Y5624501D01*
X3651973Y5630471D01*
Y5630471D01*
X3651966Y5630475D01*
X3651965Y5630475D01*
X3647831Y5632543D01*
X3629831Y5641547D01*
X3586177Y5664871D01*
X3543165Y5689359D01*
X3500827Y5714993D01*
X3480010Y5728375D01*
Y5728375D01*
X3480005Y5728379D01*
X3476066Y5730924D01*
X3470687Y5734401D01*
X3452351Y5746896D01*
X3434325Y5759834D01*
X3416620Y5773208D01*
X3407933Y5780109D01*
X3407925Y5780115D01*
X3390049Y5794369D01*
X3355594Y5824431D01*
X3322505Y5855990D01*
X3290845Y5888983D01*
X3275761Y5906164D01*
X3275756Y5906169D01*
X3275756Y5906169D01*
X3260034Y5924061D01*
X3230033Y5961065D01*
X3201525Y5999230D01*
X3174554Y6038497D01*
X3161858Y6058650D01*
X3161854Y6058655D01*
X3161855Y6058655D01*
X3145095Y6085484D01*
X3114007Y6140586D01*
X3085412Y6197021D01*
X3059368Y6254679D01*
X3035926Y6313442D01*
X3015133Y6373194D01*
X2997032Y6433816D01*
X2981657Y6495186D01*
X2975348Y6526184D01*
X2975348Y6526184D01*
X2975347Y6526190D01*
X2974278Y6531488D01*
X2972329Y6542121D01*
X2970572Y6552787D01*
X2969006Y6563482D01*
X2968318Y6568843D01*
X2967489Y6575219D01*
X2965977Y6587988D01*
X2964611Y6600772D01*
X2963390Y6613572D01*
X2962853Y6619978D01*
X2962852Y6619986D01*
X2962852Y6619986D01*
X2962245Y6627168D01*
X2961150Y6641542D01*
X2960174Y6655924D01*
X2959319Y6670314D01*
X2959202Y6672613D01*
X2958952Y6677511D01*
X2958951Y6677519D01*
X2958704Y6682503D01*
X2957773Y6701290D01*
X2956303Y6748867D01*
X2955720Y6796463D01*
X2956023Y6844061D01*
X2956619Y6867854D01*
Y6867864D01*
X2956619Y6867864D01*
X2956808Y6875671D01*
X2957290Y6891280D01*
X2957876Y6906887D01*
X2958566Y6922489D01*
X2958714Y6925406D01*
X2958963Y6930293D01*
X2958963Y6930295D01*
Y6930297D01*
X2958964Y6930302D01*
Y6930304D01*
X2959334Y6937618D01*
X2960192Y6952244D01*
X2961167Y6966863D01*
X2962261Y6981473D01*
X2962867Y6988773D01*
X2962867Y6988783D01*
Y6988783D01*
X2963782Y7000957D01*
X2966259Y7025247D01*
X2969381Y7049463D01*
X2973145Y7073587D01*
X2975348Y7085595D01*
X2975348D01*
X2976436Y7091137D01*
X2978670Y7102194D01*
X2980963Y7113239D01*
X2983316Y7124271D01*
X2984522Y7129781D01*
X2984523Y7129788D01*
X2984524D01*
X2985676Y7135053D01*
X2988047Y7145570D01*
X2990482Y7156072D01*
X2992981Y7166559D01*
X2994264Y7171794D01*
X2994265Y7171801D01*
X2994265D01*
X2995502Y7176848D01*
X2998043Y7186925D01*
X3000654Y7196984D01*
X3003333Y7207025D01*
X3004707Y7212036D01*
Y7212036D01*
X3004707Y7212036D01*
X3008648Y7226465D01*
X3017195Y7255133D01*
X3026403Y7283596D01*
X3036267Y7311839D01*
X3041527Y7325849D01*
X3041527D01*
X3041527Y7325849D01*
X3045052Y7335205D01*
X3052382Y7353810D01*
X3059990Y7372302D01*
X3067876Y7390678D01*
X3071956Y7399806D01*
X3076261Y7409425D01*
X3085107Y7428538D01*
X3094196Y7447537D01*
X3103525Y7466419D01*
X3108309Y7475801D01*
X3108314Y7475810D01*
X3111201Y7481494D01*
X3117064Y7492818D01*
X3123016Y7504095D01*
X3129055Y7515325D01*
X3132118Y7520917D01*
X3132119D01*
X3132122Y7520923D01*
X3146782Y7547857D01*
X3178506Y7600344D01*
X3212570Y7651343D01*
X3248903Y7700750D01*
X3268168Y7724608D01*
X3268168D01*
X3276076Y7734377D01*
X3292211Y7753632D01*
X3308672Y7772611D01*
X3325454Y7791307D01*
X3334002Y7800511D01*
X3334002Y7800511D01*
X3334002Y7800511D01*
X3334004Y7800513D01*
X3334009Y7800518D01*
X3337165Y7803914D01*
X3343057Y7810255D01*
X3361436Y7829461D01*
X3380093Y7848397D01*
X3399024Y7867059D01*
X3408625Y7876251D01*
X3408625D01*
X3435693Y7902437D01*
X3492336Y7952061D01*
X3551360Y7998827D01*
X3612622Y8042621D01*
X3675972Y8083337D01*
X3741255Y8120875D01*
X3808311Y8155143D01*
X3876979Y8186058D01*
X3912034Y8199801D01*
X3912034D01*
Y8199801D01*
X3936380Y8209369D01*
X3985623Y8227037D01*
X4035373Y8243222D01*
X4085585Y8257910D01*
X4110900Y8264499D01*
X4110907Y8264501D01*
X4137715Y8271471D01*
X4191679Y8283993D01*
X4245955Y8295089D01*
X4300505Y8304750D01*
X4327897Y8308861D01*
X4327905Y8308862D01*
X4367466Y8314874D01*
X4367691Y8315136D01*
Y8907558D01*
X4982435D01*
Y8610601D01*
D02*
G37*
%LPC*%
G36*
X4674000Y8845411D02*
X4657337Y8843770D01*
X4641315Y8838910D01*
X4626548Y8831017D01*
X4613605Y8820395D01*
X4602983Y8807452D01*
X4595090Y8792685D01*
X4590230Y8776663D01*
X4588589Y8760000D01*
X4590230Y8743337D01*
X4595090Y8727315D01*
X4602983Y8712548D01*
X4613605Y8699605D01*
X4626548Y8688983D01*
X4641315Y8681090D01*
X4657337Y8676230D01*
X4674000Y8674589D01*
X4690663Y8676230D01*
X4706685Y8681090D01*
X4721452Y8688983D01*
X4734395Y8699605D01*
X4745017Y8712548D01*
X4752910Y8727315D01*
X4757770Y8743337D01*
X4759411Y8760000D01*
X4757770Y8776663D01*
X4752910Y8792685D01*
X4745017Y8807452D01*
X4734395Y8820395D01*
X4721452Y8831017D01*
X4706685Y8838910D01*
X4690663Y8843770D01*
X4674000Y8845411D01*
D02*
G37*
G36*
X4651290Y8150079D02*
X4618337D01*
Y8109055D01*
X4651290D01*
Y8150079D01*
D02*
G37*
G36*
X4608337D02*
X4575384D01*
Y8109055D01*
X4608337D01*
Y8150079D01*
D02*
G37*
G36*
X4673337Y8210294D02*
X4409062D01*
X4403209Y8209130D01*
X4398248Y8205814D01*
X3554186Y7361752D01*
X3550870Y7356791D01*
X3549706Y7350938D01*
Y7068097D01*
X3548819Y7063465D01*
X3544706Y7063465D01*
X3528071D01*
Y7020000D01*
Y6976535D01*
X3548819Y6976535D01*
X3549706Y6971903D01*
Y6874057D01*
X3545376Y6871557D01*
X3342544Y6988662D01*
X3342544Y6988662D01*
X3338776Y6989941D01*
X3334807Y6989681D01*
X3331239Y6987921D01*
X3328616Y6984930D01*
X3011170Y6435099D01*
X3011170Y6435098D01*
X3009891Y6431331D01*
X3010151Y6427361D01*
X3011911Y6423793D01*
X3014902Y6421170D01*
X3222457Y6301338D01*
X3226224Y6300060D01*
X3230194Y6300320D01*
X3233762Y6302079D01*
X3236385Y6305070D01*
X3236385Y6305070D01*
X3509876Y6778771D01*
X3514706Y6777477D01*
Y6491335D01*
X3354202Y6330831D01*
X3334029Y6342478D01*
X3225604Y6154680D01*
X3281895Y6122180D01*
X3367208Y6269946D01*
X3370814Y6273553D01*
X3374130Y6278514D01*
X3375168Y6283733D01*
X3390320Y6309978D01*
X3385183Y6312944D01*
X3384530Y6317901D01*
X3540814Y6474186D01*
X3544130Y6479147D01*
X3545294Y6485000D01*
Y6793460D01*
X3549092Y6796566D01*
X3553458Y6794758D01*
Y6425087D01*
X3420769Y6292398D01*
X3401579Y6303478D01*
X3293153Y6115680D01*
X3349445Y6083180D01*
X3457870Y6270978D01*
X3451750Y6274511D01*
X3451098Y6279469D01*
X3579566Y6407938D01*
X3582882Y6412899D01*
X3584046Y6418752D01*
Y6738295D01*
X3588376Y6740795D01*
X3626383Y6718851D01*
X3734809Y6906649D01*
X3731055Y6908816D01*
X3730402Y6913774D01*
X3743255Y6926627D01*
X3746571Y6931588D01*
X3747735Y6937441D01*
Y6987283D01*
X3756220D01*
Y7042716D01*
X3708662D01*
Y7030294D01*
X3682677D01*
Y7063465D01*
X3631181D01*
Y6976535D01*
X3682677D01*
Y6999706D01*
X3708662D01*
Y6987283D01*
X3717147D01*
Y6943776D01*
X3700074Y6926703D01*
X3678517Y6939149D01*
X3620294Y6838304D01*
X3615294Y6839644D01*
Y7268665D01*
X4361335Y8014706D01*
X4672002D01*
X4685947Y8000761D01*
X4684034Y7996142D01*
X4675384D01*
Y7908032D01*
X4751290D01*
Y7996142D01*
X4728404D01*
X4727467Y8000853D01*
X4724151Y8005814D01*
X4689151Y8040814D01*
X4684190Y8044130D01*
X4678337Y8045294D01*
X4355000D01*
X4349147Y8044130D01*
X4344186Y8040814D01*
X3589186Y7285814D01*
X3585870Y7280853D01*
X3585294Y7277955D01*
X3580294Y7278448D01*
Y7344603D01*
X4415397Y8179706D01*
X4667002D01*
X4692010Y8154698D01*
X4690096Y8150079D01*
X4675384D01*
Y8058032D01*
X4751290D01*
Y8150079D01*
X4728631D01*
Y8155000D01*
X4727467Y8160853D01*
X4724151Y8165815D01*
X4684151Y8205814D01*
X4679190Y8209130D01*
X4673337Y8210294D01*
D02*
G37*
G36*
X4651290Y8099055D02*
X4618337D01*
Y8058032D01*
X4651290D01*
Y8099055D01*
D02*
G37*
G36*
X4608337D02*
X4575384D01*
Y8058032D01*
X4608337D01*
Y8099055D01*
D02*
G37*
G36*
X4651290Y7996142D02*
X4575384D01*
Y7970294D01*
X4406220D01*
X4400368Y7969130D01*
X4395406Y7965814D01*
X3776745Y7347153D01*
X3773429Y7342191D01*
X3772265Y7336339D01*
Y7042716D01*
X3763780D01*
Y6987283D01*
X3811339D01*
Y6999706D01*
X3819791D01*
X3862161Y6957336D01*
X3860248Y6952717D01*
X3828661D01*
Y6922849D01*
X3814186Y6908374D01*
X3810870Y6903412D01*
X3809706Y6897559D01*
Y6852375D01*
X3706058Y6672851D01*
X3762349Y6640351D01*
X3870774Y6828149D01*
X3840294Y6845747D01*
Y6891224D01*
X3846353Y6897284D01*
X3876220D01*
Y6935199D01*
X3880990Y6937300D01*
X3883780Y6935064D01*
Y6897284D01*
X3922214D01*
X4139907Y6679591D01*
X4140829Y6675062D01*
X4140829Y6675062D01*
X4140829D01*
X4139325Y6673102D01*
X4138788Y6673412D01*
X4138788Y6673412D01*
X4138752Y6673432D01*
X4086415Y6703649D01*
X3977990Y6515851D01*
X4034281Y6483351D01*
X4141384Y6668859D01*
X4142183Y6670243D01*
X4143866Y6670806D01*
Y6670807D01*
X4143866D01*
D01*
X4148582Y6670915D01*
X4151788Y6667709D01*
X4154831Y6664149D01*
X4154831Y6664149D01*
Y6664149D01*
X4046406Y6476351D01*
X4094597Y6448527D01*
X4098361Y6446303D01*
X4098883Y6445994D01*
X4098154Y6444730D01*
D01*
X4098154Y6444729D01*
X4098154D01*
X4098154Y6444729D01*
X4062384Y6382774D01*
X4059884Y6378444D01*
X4058884Y6376712D01*
X4023384Y6315224D01*
X4020884Y6310894D01*
X4019884Y6309162D01*
X3983384Y6245942D01*
X4087307Y6185942D01*
X4123807Y6249162D01*
X4126307Y6253492D01*
X4127307Y6255224D01*
X4162807Y6316712D01*
X4165307Y6321042D01*
X4166307Y6322774D01*
X4202807Y6385994D01*
X4106984Y6441317D01*
X4103220Y6443542D01*
X4102698Y6443851D01*
X4103427Y6445115D01*
D01*
X4103427Y6445115D01*
X4103427D01*
X4103427Y6445115D01*
X4142586Y6512940D01*
X4147543Y6513592D01*
X4191950Y6469186D01*
X4371950Y6289186D01*
X4376911Y6285870D01*
X4382764Y6284706D01*
X4678665D01*
X5208458Y5754913D01*
X5206544Y5750294D01*
X4286338D01*
Y5762717D01*
X4238779D01*
Y5707284D01*
X4286338D01*
Y5719706D01*
X5223665D01*
X5694706Y5248665D01*
Y4551335D01*
X5173665Y4030294D01*
X5060197D01*
Y4051575D01*
X5002795D01*
Y3978425D01*
X5019706D01*
Y3842477D01*
X5002190Y3824961D01*
X4885709D01*
Y3765294D01*
X4820906D01*
Y3774685D01*
X4765473D01*
Y3715315D01*
X4820906D01*
Y3734706D01*
X4885709D01*
Y3675039D01*
X5012008D01*
Y3734706D01*
X5117992D01*
Y3720315D01*
X5244291D01*
Y3779685D01*
X5117992D01*
Y3765294D01*
X5012008D01*
Y3791521D01*
X5045815Y3825327D01*
X5049130Y3830289D01*
X5050294Y3836142D01*
Y3978425D01*
X5060197D01*
Y3999706D01*
X5180000D01*
X5185853Y4000870D01*
X5190814Y4004186D01*
X5720814Y4534186D01*
X5724130Y4539147D01*
X5725294Y4545000D01*
Y5255000D01*
X5724130Y5260853D01*
X5720815Y5265814D01*
X5245294Y5741335D01*
Y5755000D01*
X5244130Y5760853D01*
X5240814Y5765815D01*
X4695814Y6310814D01*
X4690853Y6314130D01*
X4685000Y6315294D01*
X4389099D01*
X4234209Y6470184D01*
X4236123Y6474803D01*
X4242072D01*
X4264185Y6452690D01*
X4269147Y6449374D01*
X4275000Y6448210D01*
X4282717D01*
Y6434803D01*
X4355866D01*
Y6492205D01*
X4282717D01*
Y6484487D01*
X4277717Y6482416D01*
X4271575Y6488558D01*
Y6532205D01*
X4198425D01*
Y6512501D01*
X4193806Y6510587D01*
X4160472Y6543921D01*
X4188010Y6591617D01*
X4190814Y6594422D01*
X4194130Y6599383D01*
X4194990Y6603706D01*
X4211122Y6631649D01*
X4195294Y6640788D01*
Y6661126D01*
X4194130Y6666979D01*
X4190814Y6671940D01*
X3931338Y6931416D01*
Y6952717D01*
X3910038D01*
X3836941Y7025814D01*
X3831979Y7029130D01*
X3826126Y7030294D01*
X3811339D01*
Y7042716D01*
X3802853D01*
Y7330004D01*
X4412555Y7939706D01*
X4575384D01*
Y7908032D01*
X4651290D01*
Y7996142D01*
D02*
G37*
G36*
X3518071Y7063465D02*
X3497323D01*
Y7025000D01*
X3518071D01*
Y7063465D01*
D02*
G37*
G36*
Y7015000D02*
X3497323D01*
Y6976535D01*
X3518071D01*
Y7015000D01*
D02*
G37*
G36*
X3746067Y6900149D02*
X3637642Y6712351D01*
X3693933Y6679851D01*
X3802358Y6867649D01*
X3746067Y6900149D01*
D02*
G37*
G36*
X3882033Y6821649D02*
X3773608Y6633851D01*
X3829899Y6601351D01*
X3938325Y6789149D01*
X3882033Y6821649D01*
D02*
G37*
G36*
X4271575Y6595197D02*
X4240000D01*
Y6571496D01*
X4271575D01*
Y6595197D01*
D02*
G37*
G36*
X4230000D02*
X4198425D01*
Y6571496D01*
X4230000D01*
Y6595197D01*
D02*
G37*
G36*
X3951315Y6781649D02*
X3842890Y6593851D01*
X3899181Y6561351D01*
X4007606Y6749149D01*
X3951315Y6781649D01*
D02*
G37*
G36*
X4271575Y6561496D02*
X4240000D01*
Y6537795D01*
X4271575D01*
Y6561496D01*
D02*
G37*
G36*
X4230000D02*
X4198425D01*
Y6537795D01*
X4230000D01*
Y6561496D01*
D02*
G37*
G36*
X4355866Y6555197D02*
X4324292D01*
Y6531496D01*
X4355866D01*
Y6555197D01*
D02*
G37*
G36*
X4314292D02*
X4282717D01*
Y6531496D01*
X4314292D01*
Y6555197D01*
D02*
G37*
G36*
X4018865Y6742649D02*
X3910440Y6554851D01*
X3966731Y6522351D01*
X4075157Y6710149D01*
X4018865Y6742649D01*
D02*
G37*
G36*
X4355866Y6521496D02*
X4324292D01*
Y6497795D01*
X4355866D01*
Y6521496D01*
D02*
G37*
G36*
X4314292D02*
X4282717D01*
Y6497795D01*
X4314292D01*
Y6521496D01*
D02*
G37*
G36*
X3470861Y6263478D02*
X3362436Y6075680D01*
X3418727Y6043180D01*
X3527152Y6230978D01*
X3470861Y6263478D01*
D02*
G37*
G36*
X3901884Y6104780D02*
X3865347Y6041495D01*
X3859619Y6039028D01*
X3843685Y6048228D01*
X3791972Y5958659D01*
X3815787Y5944909D01*
X3866538Y6032811D01*
X3872265Y6035278D01*
X3968307Y5979828D01*
X4005807Y6044780D01*
X3901884Y6104780D01*
D02*
G37*
G36*
X3538411Y6224478D02*
X3429985Y6036680D01*
X3486277Y6004180D01*
X3594702Y6191978D01*
X3538411Y6224478D01*
D02*
G37*
G36*
X3606827Y6184978D02*
X3498401Y5997180D01*
X3502548Y5994786D01*
X3503200Y5989829D01*
X3501530Y5988158D01*
X3498214Y5983197D01*
X3497050Y5977344D01*
Y5832327D01*
X3498214Y5826474D01*
X3501530Y5821513D01*
X3598857Y5724186D01*
X3603818Y5720870D01*
X3609671Y5719706D01*
X3957323D01*
Y5691535D01*
X4008819D01*
Y5778465D01*
X3957323D01*
Y5750294D01*
X3937853D01*
Y5792283D01*
X3946339D01*
Y5847716D01*
X3898780D01*
Y5792283D01*
X3907265D01*
Y5750294D01*
X3616006D01*
X3527638Y5838662D01*
Y5971009D01*
X3533528Y5976900D01*
X3554693Y5964680D01*
X3663118Y6152478D01*
X3606827Y6184978D01*
D02*
G37*
G36*
X3811209Y6066978D02*
X3759496Y5977409D01*
X3783312Y5963659D01*
X3835025Y6053228D01*
X3811209Y6066978D01*
D02*
G37*
G36*
X3675243Y6145478D02*
X3566818Y5957680D01*
X3623109Y5925180D01*
X3731534Y6112978D01*
X3675243Y6145478D01*
D02*
G37*
G36*
X4661559Y5912559D02*
X4586441D01*
Y5890294D01*
X4456338D01*
Y5902717D01*
X4408779D01*
Y5847284D01*
X4456338D01*
Y5859706D01*
X4586441D01*
Y5837441D01*
X4661559D01*
Y5912559D01*
D02*
G37*
G36*
X3742793Y6106478D02*
X3634367Y5918680D01*
X3638852Y5916091D01*
X3639505Y5911133D01*
X3624186Y5895815D01*
X3620870Y5890853D01*
X3619706Y5885000D01*
Y5876339D01*
X3607284D01*
Y5828780D01*
X3662717D01*
Y5876339D01*
X3655039D01*
X3652967Y5881339D01*
X3669833Y5898204D01*
X3690659Y5886180D01*
X3799084Y6073978D01*
X3742793Y6106478D01*
D02*
G37*
G36*
X4729000Y5912225D02*
Y5880000D01*
X4761225D01*
X4760592Y5884805D01*
X4756808Y5893942D01*
X4750787Y5901787D01*
X4742942Y5907808D01*
X4733805Y5911592D01*
X4729000Y5912225D01*
D02*
G37*
G36*
X4719000D02*
X4714195Y5911592D01*
X4705058Y5907808D01*
X4697213Y5901787D01*
X4691192Y5893942D01*
X4687408Y5884805D01*
X4686775Y5880000D01*
X4719000D01*
Y5912225D01*
D02*
G37*
G36*
X3754496Y5968749D02*
X3702784Y5879180D01*
X3726599Y5865430D01*
X3778312Y5954998D01*
X3754496Y5968749D01*
D02*
G37*
G36*
X3980884Y6241612D02*
X3944384Y6178392D01*
X3941884Y6174062D01*
X3940884Y6172330D01*
X3904384Y6109110D01*
X4008307Y6049110D01*
X4044807Y6112330D01*
X4047307Y6116660D01*
X4048307Y6118392D01*
X4052356Y6125405D01*
X4057313Y6126058D01*
X4319185Y5864186D01*
X4324147Y5860870D01*
X4330000Y5859706D01*
X4353661D01*
Y5847284D01*
X4401220D01*
Y5902717D01*
X4353661D01*
Y5890294D01*
X4336335D01*
X4070243Y6156386D01*
X4084807Y6181612D01*
X3980884Y6241612D01*
D02*
G37*
G36*
X3786972Y5949998D02*
X3735260Y5860430D01*
X3759075Y5846680D01*
X3810787Y5936249D01*
X3786972Y5949998D01*
D02*
G37*
G36*
X4761225Y5870000D02*
X4729000D01*
Y5837775D01*
X4733805Y5838408D01*
X4742942Y5842192D01*
X4750787Y5848213D01*
X4756808Y5856058D01*
X4760592Y5865195D01*
X4761225Y5870000D01*
D02*
G37*
G36*
X4719000D02*
X4686775D01*
X4687408Y5865195D01*
X4691192Y5856058D01*
X4697213Y5848213D01*
X4705058Y5842192D01*
X4714195Y5838408D01*
X4719000Y5837775D01*
Y5870000D01*
D02*
G37*
G36*
X3891220Y5847716D02*
X3872441D01*
Y5825000D01*
X3891220D01*
Y5847716D01*
D02*
G37*
G36*
X3862441D02*
X3843662D01*
Y5825000D01*
X3862441D01*
Y5847716D01*
D02*
G37*
G36*
X3662717Y5821221D02*
X3640000D01*
Y5802441D01*
X3662717D01*
Y5821221D01*
D02*
G37*
G36*
X3630000D02*
X3607284D01*
Y5802441D01*
X3630000D01*
Y5821221D01*
D02*
G37*
G36*
X3891220Y5815000D02*
X3872441D01*
Y5792283D01*
X3891220D01*
Y5815000D01*
D02*
G37*
G36*
X3862441D02*
X3843662D01*
Y5792283D01*
X3862441D01*
Y5815000D01*
D02*
G37*
G36*
X3662717Y5792441D02*
X3640000D01*
Y5773662D01*
X3662717D01*
Y5792441D01*
D02*
G37*
G36*
X3630000D02*
X3607284D01*
Y5773662D01*
X3630000D01*
Y5792441D01*
D02*
G37*
G36*
X4142677Y5778465D02*
X4091181D01*
Y5691535D01*
X4142677D01*
Y5719706D01*
X4183661D01*
Y5707284D01*
X4231220D01*
Y5762717D01*
X4183661D01*
Y5750294D01*
X4142677D01*
Y5778465D01*
D02*
G37*
G36*
X4997205Y4051575D02*
X4973504D01*
Y4020000D01*
X4997205D01*
Y4051575D01*
D02*
G37*
G36*
X4963504D02*
X4939803D01*
Y4020000D01*
X4963504D01*
Y4051575D01*
D02*
G37*
G36*
X4997205Y4010000D02*
X4973504D01*
Y3978425D01*
X4997205D01*
Y4010000D01*
D02*
G37*
G36*
X4963504D02*
X4939803D01*
Y3978425D01*
X4963504D01*
Y4010000D01*
D02*
G37*
G36*
X5244291Y3870236D02*
X5186142D01*
Y3845551D01*
X5244291D01*
Y3870236D01*
D02*
G37*
G36*
X5176142D02*
X5117992D01*
Y3845551D01*
X5176142D01*
Y3870236D01*
D02*
G37*
G36*
X5244291Y3835551D02*
X5186142D01*
Y3810866D01*
X5244291D01*
Y3835551D01*
D02*
G37*
G36*
X5176142D02*
X5117992D01*
Y3810866D01*
X5176142D01*
Y3835551D01*
D02*
G37*
G36*
X4489134Y3779606D02*
X4462480D01*
Y3750000D01*
X4489134D01*
Y3779606D01*
D02*
G37*
G36*
X4452480D02*
X4425827D01*
Y3750000D01*
X4452480D01*
Y3779606D01*
D02*
G37*
G36*
X4587559D02*
X4524252D01*
Y3710394D01*
X4587559D01*
Y3729706D01*
X4702480D01*
Y3715315D01*
X4757913D01*
Y3774685D01*
X4702480D01*
Y3760294D01*
X4587559D01*
Y3779606D01*
D02*
G37*
G36*
X4489134Y3740000D02*
X4462480D01*
Y3710394D01*
X4489134D01*
Y3740000D01*
D02*
G37*
G36*
X4452480D02*
X4425827D01*
Y3710394D01*
X4452480D01*
Y3740000D01*
D02*
G37*
G36*
X5244291Y3689134D02*
X5117992D01*
Y3629764D01*
X5165848D01*
Y3617477D01*
X5098665Y3550294D01*
X5050197D01*
Y3571575D01*
X4992795D01*
Y3498425D01*
X5006202D01*
Y3487831D01*
X4697394Y3179023D01*
X4694079Y3174061D01*
X4692915Y3168209D01*
Y2856890D01*
X4610846D01*
Y2819724D01*
X4600846D01*
Y2856890D01*
X4599114D01*
Y2856890D01*
X4565079D01*
Y2805551D01*
X4560079D01*
Y2800551D01*
X4521043D01*
Y2762401D01*
X4485610D01*
Y2720000D01*
X4542363D01*
Y2715000D01*
X4547363D01*
Y2667599D01*
X4619055D01*
Y2715000D01*
X4629055D01*
Y2667599D01*
X4685000D01*
Y2715000D01*
X4695000D01*
Y2667599D01*
X4766693D01*
Y2715000D01*
X4771693D01*
Y2720000D01*
X4828445D01*
Y2762401D01*
X4793012D01*
Y2800551D01*
X4753976D01*
Y2805551D01*
X4748976D01*
Y2856890D01*
X4723503D01*
Y3161874D01*
X5032310Y3470682D01*
X5035626Y3475643D01*
X5036790Y3481496D01*
Y3498425D01*
X5050197D01*
Y3519706D01*
X5105000D01*
X5110853Y3520870D01*
X5115814Y3524186D01*
X5191956Y3600327D01*
X5195271Y3605289D01*
X5196436Y3611142D01*
Y3629764D01*
X5244291D01*
Y3689134D01*
D02*
G37*
G36*
X4987205Y3571575D02*
X4963504D01*
Y3540000D01*
X4987205D01*
Y3571575D01*
D02*
G37*
G36*
X4953504D02*
X4929803D01*
Y3540000D01*
X4953504D01*
Y3571575D01*
D02*
G37*
G36*
X4987205Y3530000D02*
X4963504D01*
Y3498425D01*
X4987205D01*
Y3530000D01*
D02*
G37*
G36*
X4953504D02*
X4929803D01*
Y3498425D01*
X4953504D01*
Y3530000D01*
D02*
G37*
G36*
X4793012Y2856890D02*
X4758976D01*
Y2810551D01*
X4793012D01*
Y2856890D01*
D02*
G37*
G36*
X4555079D02*
X4521043D01*
Y2810551D01*
X4555079D01*
Y2856890D01*
D02*
G37*
G36*
X4828445Y2710000D02*
X4776693D01*
Y2667599D01*
X4828445D01*
Y2710000D01*
D02*
G37*
G36*
X4537363D02*
X4485610D01*
Y2667599D01*
X4537363D01*
Y2710000D01*
D02*
G37*
%LPD*%
D12*
X4724000Y5875000D02*
D03*
D13*
X4624000D02*
D03*
D14*
X4674000Y8760000D02*
D03*
D15*
X4235000Y6566496D02*
D03*
Y6503504D02*
D03*
X4319292Y6526496D02*
D03*
Y6463504D02*
D03*
D16*
X4968504Y4015000D02*
D03*
X5031496D02*
D03*
X4958504Y3535000D02*
D03*
X5021496D02*
D03*
D17*
X3652450Y6829000D02*
D03*
X3720000Y6790000D02*
D03*
X3788416Y6750500D02*
D03*
X3855966Y6711500D02*
D03*
X3925248Y6671500D02*
D03*
X3992798Y6632500D02*
D03*
X4060348Y6593500D02*
D03*
X4128764Y6554000D02*
D03*
X3785142Y5956829D02*
D03*
X3716726Y5996329D02*
D03*
X3649176Y6035329D02*
D03*
X3580760Y6074829D02*
D03*
X3512344Y6114329D02*
D03*
X3444794Y6153329D02*
D03*
X3375512Y6193329D02*
D03*
X3307962Y6232329D02*
D03*
D18*
X4132095Y6383518D02*
D03*
X4093095Y6315968D02*
D03*
X4054095Y6248418D02*
D03*
X4014095Y6179136D02*
D03*
X3975095Y6111586D02*
D03*
X3935095Y6042304D02*
D03*
D19*
X3635000Y5797441D02*
D03*
Y5852559D02*
D03*
D20*
X3732441Y7015000D02*
D03*
X3787559D02*
D03*
X3907559Y6925000D02*
D03*
X3852441D02*
D03*
X4262559Y5735000D02*
D03*
X4207441D02*
D03*
X4432559Y5875000D02*
D03*
X4377441D02*
D03*
X3867441Y5820000D02*
D03*
X3922559D02*
D03*
D21*
X4713337Y8104055D02*
D03*
X4613337D02*
D03*
D22*
X4713337Y7952087D02*
D03*
X4613337D02*
D03*
D23*
X4624055Y2715000D02*
D03*
X4690000D02*
D03*
D24*
X4542362D02*
D03*
X4771693D02*
D03*
D25*
X4560079Y2805551D02*
D03*
X4753976D02*
D03*
D26*
X4605846Y2819724D02*
D03*
X4631437D02*
D03*
X4657028D02*
D03*
X4682618D02*
D03*
X4708209D02*
D03*
D27*
X4793189Y3745000D02*
D03*
X4730197D02*
D03*
D28*
X5181142Y3840551D02*
D03*
Y3750000D02*
D03*
Y3659449D02*
D03*
D29*
X4948858Y3750000D02*
D03*
D30*
X4457480Y3745000D02*
D03*
X4555906D02*
D03*
D31*
X4116929Y5735000D02*
D03*
X3983071D02*
D03*
X3523071Y7020000D02*
D03*
X3656929D02*
D03*
D32*
X4432559Y5875000D02*
X4624000D01*
X4432559Y5875000D02*
X4432559Y5875000D01*
X4202764Y6480000D02*
X4382764Y6300000D01*
X4128764Y6554000D02*
X4202764Y6480000D01*
X4226268Y6503504D01*
X4235000D01*
X4275000Y6463504D01*
X4319292D01*
X4713337Y8104055D02*
Y8155000D01*
X4673337Y8195000D02*
X4713337Y8155000D01*
X4409062Y8195000D02*
X4673337D01*
X3565000Y7350938D02*
X4409062Y8195000D01*
X4713337Y7952087D02*
Y7995000D01*
X4678337Y8030000D02*
X4713337Y7995000D01*
X4355000Y8030000D02*
X4678337D01*
X3600000Y7275000D02*
X4355000Y8030000D01*
X4406220Y7955000D02*
X4613337D01*
X3826126Y7015000D02*
X4180000Y6661126D01*
X3787559Y7336339D02*
X4406220Y7955000D01*
X3600000Y6830000D02*
Y7275000D01*
X3568752Y6798752D02*
X3600000Y6830000D01*
X3568752Y6418752D02*
Y6798752D01*
X3530000Y6800000D02*
X3565000Y6835000D01*
X3530000Y6485000D02*
Y6800000D01*
X3565000Y6835000D02*
Y7350938D01*
X4685000Y6300000D02*
X5230000Y5755000D01*
X4382764Y6300000D02*
X4685000D01*
X5230000Y5735000D02*
Y5755000D01*
X4262559Y5735000D02*
X5230000D01*
X3360000Y6315000D02*
X3530000Y6485000D01*
X3360000Y6284367D02*
Y6315000D01*
X3307962Y6232329D02*
X3360000Y6284367D01*
X3375512Y6225512D02*
X3568752Y6418752D01*
X3375512Y6193329D02*
Y6225512D01*
X3787559Y7015000D02*
Y7336339D01*
X5230000Y5735000D02*
X5710000Y5255000D01*
Y4545000D02*
Y5255000D01*
X5180000Y4015000D02*
X5710000Y4545000D01*
X5031496Y4015000D02*
X5180000D01*
X5035000Y3836142D02*
Y4005000D01*
X4948858Y3750000D02*
X5035000Y3836142D01*
X5181142Y3611142D02*
Y3659449D01*
X5105000Y3535000D02*
X5181142Y3611142D01*
X5021496Y3535000D02*
X5105000D01*
X4948858Y3750000D02*
X5181142D01*
X4555906Y3745000D02*
X4730197D01*
X4793189D02*
X4798189Y3750000D01*
X4948858D01*
X3825000Y6897559D02*
X3852441Y6925000D01*
X3825000Y6787084D02*
Y6897559D01*
X3788416Y6750500D02*
X3825000Y6787084D01*
X4330000Y5875000D02*
X4377441D01*
X4025864Y6179136D02*
X4330000Y5875000D01*
X4014095Y6179136D02*
X4025864D01*
X4116929Y5735000D02*
X4116929Y5735000D01*
X4207441D01*
X3928323Y5735000D02*
X3983071D01*
X3609671D02*
X3928323D01*
X3922559Y5740764D02*
X3928323Y5735000D01*
X3922559Y5740764D02*
Y5820000D01*
X3580760Y6045760D02*
Y6074829D01*
X3512344Y5977344D02*
X3580760Y6045760D01*
X3512344Y5832327D02*
Y5977344D01*
Y5832327D02*
X3609671Y5735000D01*
X3732441Y6937441D02*
Y7015000D01*
X3652450Y6857450D02*
X3732441Y6937441D01*
X3652450Y6829000D02*
Y6857450D01*
X3656929Y7020000D02*
X3661929Y7015000D01*
X3732441D01*
X3787559D02*
X3826126D01*
X4180000Y6605236D02*
Y6661126D01*
X4128764Y6554000D02*
X4180000Y6605236D01*
X3716726Y5966726D02*
Y5996329D01*
X3635000Y5885000D02*
X3716726Y5966726D01*
X3635000Y5852559D02*
Y5885000D01*
X4708209Y2819724D02*
Y3168209D01*
X5021496Y3481496D01*
Y3535000D01*
%TF.MD5,7f1008e5a7cd30e1f15065a41418fb78*%
M02*
