%TF.GenerationSoftware,Altium Limited,Altium Designer,18.1.6 (161)*%
G04 Layer_Color=16711935*
%FSLAX26Y26*%
%MOIN*%
%TF.FileFunction,Other,Mechanical_13*%
%TF.Part,Single*%
G01*
G75*
%TA.AperFunction,NonConductor*%
%ADD34C,0.003937*%
%ADD58C,0.002000*%
D34*
X4790142Y5875000D02*
G03*
X4790142Y5875000I-116142J0D01*
G01*
X4509390Y2732467D02*
G03*
X4503484Y2724843I1968J-7624D01*
G01*
Y2705158D02*
G03*
X4509390Y2697534I7874J0D01*
G01*
X4810571Y2724843D02*
G03*
X4804666Y2732467I-7874J0D01*
G01*
X4792855Y2630170D02*
G03*
X4796982Y2621383I11417J0D01*
G01*
X4804666Y2697534D02*
G03*
X4810571Y2705158I-1968J7624D01*
G01*
X4517074Y2621383D02*
G03*
X4521201Y2630170I-7290J8787D01*
G01*
X4206457Y6578307D02*
X4263543D01*
X4206457Y6491693D02*
X4263543D01*
X4206457D02*
Y6578307D01*
X4263543Y6491693D02*
Y6578307D01*
X4290748Y6538307D02*
X4347835D01*
X4290748Y6451693D02*
X4347835D01*
X4290748D02*
Y6538307D01*
X4347835Y6451693D02*
Y6538307D01*
X4956693Y3986457D02*
Y4043543D01*
X5043307Y3986457D02*
Y4043543D01*
X4956693Y3986457D02*
X5043307D01*
X4956693Y4043543D02*
X5043307D01*
X3616299Y5791535D02*
X3653701D01*
X3616299Y5858465D02*
X3653701D01*
Y5791535D02*
Y5858465D01*
X3616299Y5791535D02*
Y5858465D01*
X3726535Y6996299D02*
Y7033701D01*
X3793465Y6996299D02*
Y7033701D01*
X3726535Y6996299D02*
X3793465D01*
X3726535Y7033701D02*
X3793465D01*
X3913465Y6906299D02*
Y6943701D01*
X3846535Y6906299D02*
Y6943701D01*
X3913465D01*
X3846535Y6906299D02*
X3913465D01*
X4548376Y8222953D02*
X4778298D01*
X4548376D02*
Y8557992D01*
X4778298Y8222953D02*
Y8557992D01*
X4548376D02*
X4778298D01*
X4499941Y2622515D02*
X4507483Y2613425D01*
X4783012Y2627569D02*
Y2630354D01*
X4499941Y2622515D02*
X4506001Y2627543D01*
X4538917Y2613425D02*
X4775138D01*
X4503484Y2705158D02*
Y2724843D01*
X4783012Y2618337D02*
Y2627569D01*
X4509390Y2630354D02*
Y2815394D01*
X4513542Y2618453D02*
X4517074Y2621383D01*
X4531043Y2627569D02*
Y2630354D01*
X4804666D02*
Y2815394D01*
X4509390Y2630354D02*
X4804666D01*
X4808054Y2627543D01*
X4810571Y2705158D02*
Y2724843D01*
X4531043Y2618337D02*
Y2627569D01*
X4800513Y2618453D02*
X4806573Y2613425D01*
X4538917Y2827205D02*
X4775138D01*
X4796982Y2621383D02*
X4800513Y2618453D01*
X4792855Y2630170D02*
Y2630354D01*
X4507483Y2613425D02*
X4513542Y2618453D01*
X4806573Y2613425D02*
X4814114Y2622515D01*
X4509390Y2815394D02*
X4804666D01*
X4775138Y2815394D02*
Y2827205D01*
X4521201Y2630170D02*
Y2630354D01*
X4538917Y2815394D02*
Y2827205D01*
X4538794Y2613426D02*
X4538917Y2613425D01*
X4538670Y2613428D02*
X4538794Y2613426D01*
X4538547Y2613431D02*
X4538670Y2613428D01*
X4538423Y2613435D02*
X4538547Y2613431D01*
X4538300Y2613441D02*
X4538423Y2613435D01*
X4538176Y2613447D02*
X4538300Y2613441D01*
X4538053Y2613455D02*
X4538176Y2613447D01*
X4537931Y2613464D02*
X4538053Y2613455D01*
X4537808Y2613474D02*
X4537931Y2613464D01*
X4537686Y2613486D02*
X4537808Y2613474D01*
X4537564Y2613499D02*
X4537686Y2613486D01*
X4537442Y2613512D02*
X4537564Y2613499D01*
X4537321Y2613527D02*
X4537442Y2613512D01*
X4537200Y2613544D02*
X4537321Y2613527D01*
X4537079Y2613561D02*
X4537200Y2613544D01*
X4536959Y2613580D02*
X4537079Y2613561D01*
X4536840Y2613599D02*
X4536959Y2613580D01*
X4536721Y2613620D02*
X4536840Y2613599D01*
X4536602Y2613642D02*
X4536721Y2613620D01*
X4536484Y2613666D02*
X4536602Y2613642D01*
X4536367Y2613690D02*
X4536484Y2613666D01*
X4536250Y2613716D02*
X4536367Y2613690D01*
X4536134Y2613742D02*
X4536250Y2613716D01*
X4536019Y2613770D02*
X4536134Y2613742D01*
X4535904Y2613799D02*
X4536019Y2613770D01*
X4535790Y2613829D02*
X4535904Y2613799D01*
X4535677Y2613860D02*
X4535790Y2613829D01*
X4535565Y2613893D02*
X4535677Y2613860D01*
X4535453Y2613926D02*
X4535565Y2613893D01*
X4535343Y2613961D02*
X4535453Y2613926D01*
X4535233Y2613996D02*
X4535343Y2613961D01*
X4535124Y2614033D02*
X4535233Y2613996D01*
X4535016Y2614071D02*
X4535124Y2614033D01*
X4534909Y2614109D02*
X4535016Y2614071D01*
X4534803Y2614149D02*
X4534909Y2614109D01*
X4534698Y2614190D02*
X4534803Y2614149D01*
X4534594Y2614232D02*
X4534698Y2614190D01*
X4534492Y2614275D02*
X4534594Y2614232D01*
X4534390Y2614318D02*
X4534492Y2614275D01*
X4534289Y2614363D02*
X4534390Y2614318D01*
X4534190Y2614409D02*
X4534289Y2614363D01*
X4534091Y2614456D02*
X4534190Y2614409D01*
X4533994Y2614504D02*
X4534091Y2614456D01*
X4533898Y2614552D02*
X4533994Y2614504D01*
X4533804Y2614602D02*
X4533898Y2614552D01*
X4533710Y2614653D02*
X4533804Y2614602D01*
X4533618Y2614704D02*
X4533710Y2614653D01*
X4533527Y2614756D02*
X4533618Y2614704D01*
X4533438Y2614810D02*
X4533527Y2614756D01*
X4533350Y2614864D02*
X4533438Y2614810D01*
X4533263Y2614919D02*
X4533350Y2614864D01*
X4533177Y2614975D02*
X4533263Y2614919D01*
X4533094Y2615031D02*
X4533177Y2614975D01*
X4533011Y2615089D02*
X4533094Y2615031D01*
X4532930Y2615147D02*
X4533011Y2615089D01*
X4532850Y2615206D02*
X4532930Y2615147D01*
X4532772Y2615266D02*
X4532850Y2615206D01*
X4532696Y2615327D02*
X4532772Y2615266D01*
X4532621Y2615388D02*
X4532696Y2615327D01*
X4532547Y2615450D02*
X4532621Y2615388D01*
X4532475Y2615513D02*
X4532547Y2615450D01*
X4532405Y2615576D02*
X4532475Y2615513D01*
X4532336Y2615640D02*
X4532405Y2615576D01*
X4532269Y2615705D02*
X4532336Y2615640D01*
X4532204Y2615771D02*
X4532269Y2615705D01*
X4532140Y2615837D02*
X4532204Y2615771D01*
X4532078Y2615903D02*
X4532140Y2615837D01*
X4532017Y2615971D02*
X4532078Y2615903D01*
X4531959Y2616039D02*
X4532017Y2615971D01*
X4531902Y2616107D02*
X4531959Y2616039D01*
X4531846Y2616176D02*
X4531902Y2616107D01*
X4531793Y2616246D02*
X4531846Y2616176D01*
X4531741Y2616316D02*
X4531793Y2616246D01*
X4531691Y2616386D02*
X4531741Y2616316D01*
X4531643Y2616457D02*
X4531691Y2616386D01*
X4531596Y2616529D02*
X4531643Y2616457D01*
X4531552Y2616601D02*
X4531596Y2616529D01*
X4531509Y2616673D02*
X4531552Y2616601D01*
X4531468Y2616746D02*
X4531509Y2616673D01*
X4531429Y2616819D02*
X4531468Y2616746D01*
X4531391Y2616893D02*
X4531429Y2616819D01*
X4531356Y2616966D02*
X4531391Y2616893D01*
X4531323Y2617041D02*
X4531356Y2616966D01*
X4531291Y2617115D02*
X4531323Y2617041D01*
X4531261Y2617190D02*
X4531291Y2617115D01*
X4531233Y2617265D02*
X4531261Y2617190D01*
X4531207Y2617341D02*
X4531233Y2617265D01*
X4531183Y2617416D02*
X4531207Y2617341D01*
X4531161Y2617492D02*
X4531183Y2617416D01*
X4531140Y2617568D02*
X4531161Y2617492D01*
X4531122Y2617645D02*
X4531140Y2617568D01*
X4531105Y2617721D02*
X4531122Y2617645D01*
X4531091Y2617798D02*
X4531105Y2617721D01*
X4531078Y2617874D02*
X4531091Y2617798D01*
X4531068Y2617951D02*
X4531078Y2617874D01*
X4531059Y2618028D02*
X4531068Y2617951D01*
X4531052Y2618105D02*
X4531059Y2618028D01*
X4531047Y2618182D02*
X4531052Y2618105D01*
X4531044Y2618260D02*
X4531047Y2618182D01*
X4531043Y2618337D02*
X4531044Y2618260D01*
X4506001Y2627543D02*
X4509390Y2630354D01*
X4538794Y2622658D02*
X4538917Y2622657D01*
X4538670Y2622660D02*
X4538794Y2622658D01*
X4538547Y2622663D02*
X4538670Y2622660D01*
X4538423Y2622667D02*
X4538547Y2622663D01*
X4538300Y2622672D02*
X4538423Y2622667D01*
X4538176Y2622679D02*
X4538300Y2622672D01*
X4538053Y2622687D02*
X4538176Y2622679D01*
X4537931Y2622696D02*
X4538053Y2622687D01*
X4537808Y2622706D02*
X4537931Y2622696D01*
X4537686Y2622718D02*
X4537808Y2622706D01*
X4537564Y2622730D02*
X4537686Y2622718D01*
X4537442Y2622744D02*
X4537564Y2622730D01*
X4537321Y2622759D02*
X4537442Y2622744D01*
X4537200Y2622776D02*
X4537321Y2622759D01*
X4537079Y2622793D02*
X4537200Y2622776D01*
X4536959Y2622811D02*
X4537079Y2622793D01*
X4536840Y2622831D02*
X4536959Y2622811D01*
X4536721Y2622852D02*
X4536840Y2622831D01*
X4536602Y2622874D02*
X4536721Y2622852D01*
X4536484Y2622898D02*
X4536602Y2622874D01*
X4536367Y2622922D02*
X4536484Y2622898D01*
X4536250Y2622948D02*
X4536367Y2622922D01*
X4536134Y2622974D02*
X4536250Y2622948D01*
X4536019Y2623002D02*
X4536134Y2622974D01*
X4535904Y2623031D02*
X4536019Y2623002D01*
X4535790Y2623061D02*
X4535904Y2623031D01*
X4535677Y2623092D02*
X4535790Y2623061D01*
X4535565Y2623125D02*
X4535677Y2623092D01*
X4535453Y2623158D02*
X4535565Y2623125D01*
X4535343Y2623193D02*
X4535453Y2623158D01*
X4535233Y2623228D02*
X4535343Y2623193D01*
X4535124Y2623265D02*
X4535233Y2623228D01*
X4535016Y2623302D02*
X4535124Y2623265D01*
X4534909Y2623341D02*
X4535016Y2623302D01*
X4534803Y2623381D02*
X4534909Y2623341D01*
X4534698Y2623422D02*
X4534803Y2623381D01*
X4534594Y2623464D02*
X4534698Y2623422D01*
X4534492Y2623506D02*
X4534594Y2623464D01*
X4534390Y2623550D02*
X4534492Y2623506D01*
X4534289Y2623595D02*
X4534390Y2623550D01*
X4534190Y2623641D02*
X4534289Y2623595D01*
X4534091Y2623688D02*
X4534190Y2623641D01*
X4533994Y2623736D02*
X4534091Y2623688D01*
X4533898Y2623784D02*
X4533994Y2623736D01*
X4533804Y2623834D02*
X4533898Y2623784D01*
X4533710Y2623885D02*
X4533804Y2623834D01*
X4533618Y2623936D02*
X4533710Y2623885D01*
X4533527Y2623988D02*
X4533618Y2623936D01*
X4533438Y2624042D02*
X4533527Y2623988D01*
X4533350Y2624096D02*
X4533438Y2624042D01*
X4533263Y2624151D02*
X4533350Y2624096D01*
X4533177Y2624206D02*
X4533263Y2624151D01*
X4533094Y2624263D02*
X4533177Y2624206D01*
X4533011Y2624321D02*
X4533094Y2624263D01*
X4532930Y2624379D02*
X4533011Y2624321D01*
X4532850Y2624438D02*
X4532930Y2624379D01*
X4532772Y2624498D02*
X4532850Y2624438D01*
X4532696Y2624558D02*
X4532772Y2624498D01*
X4532621Y2624620D02*
X4532696Y2624558D01*
X4532547Y2624682D02*
X4532621Y2624620D01*
X4532475Y2624744D02*
X4532547Y2624682D01*
X4532405Y2624808D02*
X4532475Y2624744D01*
X4532336Y2624872D02*
X4532405Y2624808D01*
X4532269Y2624937D02*
X4532336Y2624872D01*
X4532204Y2625002D02*
X4532269Y2624937D01*
X4532140Y2625068D02*
X4532204Y2625002D01*
X4532078Y2625135D02*
X4532140Y2625068D01*
X4532017Y2625202D02*
X4532078Y2625135D01*
X4531959Y2625270D02*
X4532017Y2625202D01*
X4531902Y2625339D02*
X4531959Y2625270D01*
X4531846Y2625408D02*
X4531902Y2625339D01*
X4531793Y2625477D02*
X4531846Y2625408D01*
X4531741Y2625548D02*
X4531793Y2625477D01*
X4531691Y2625618D02*
X4531741Y2625548D01*
X4531643Y2625689D02*
X4531691Y2625618D01*
X4531596Y2625761D02*
X4531643Y2625689D01*
X4531552Y2625832D02*
X4531596Y2625761D01*
X4531509Y2625905D02*
X4531552Y2625832D01*
X4531468Y2625978D02*
X4531509Y2625905D01*
X4531429Y2626051D02*
X4531468Y2625978D01*
X4531391Y2626124D02*
X4531429Y2626051D01*
X4531356Y2626198D02*
X4531391Y2626124D01*
X4531323Y2626273D02*
X4531356Y2626198D01*
X4531291Y2626347D02*
X4531323Y2626273D01*
X4531261Y2626422D02*
X4531291Y2626347D01*
X4531233Y2626497D02*
X4531261Y2626422D01*
X4531207Y2626573D02*
X4531233Y2626497D01*
X4531183Y2626648D02*
X4531207Y2626573D01*
X4531161Y2626724D02*
X4531183Y2626648D01*
X4531140Y2626800D02*
X4531161Y2626724D01*
X4531122Y2626876D02*
X4531140Y2626800D01*
X4531105Y2626953D02*
X4531122Y2626876D01*
X4531091Y2627030D02*
X4531105Y2626953D01*
X4531078Y2627106D02*
X4531091Y2627030D01*
X4531068Y2627183D02*
X4531078Y2627106D01*
X4531059Y2627260D02*
X4531068Y2627183D01*
X4531052Y2627337D02*
X4531059Y2627260D01*
X4531047Y2627414D02*
X4531052Y2627337D01*
X4531044Y2627491D02*
X4531047Y2627414D01*
X4531043Y2627569D02*
X4531044Y2627491D01*
X4783011D02*
X4783012Y2627569D01*
X4783008Y2627414D02*
X4783011Y2627491D01*
X4783003Y2627337D02*
X4783008Y2627414D01*
X4782996Y2627260D02*
X4783003Y2627337D01*
X4782988Y2627183D02*
X4782996Y2627260D01*
X4782977Y2627106D02*
X4782988Y2627183D01*
X4782964Y2627030D02*
X4782977Y2627106D01*
X4782950Y2626953D02*
X4782964Y2627030D01*
X4782933Y2626876D02*
X4782950Y2626953D01*
X4782915Y2626800D02*
X4782933Y2626876D01*
X4782895Y2626724D02*
X4782915Y2626800D01*
X4782873Y2626648D02*
X4782895Y2626724D01*
X4782848Y2626573D02*
X4782873Y2626648D01*
X4782822Y2626497D02*
X4782848Y2626573D01*
X4782794Y2626422D02*
X4782822Y2626497D01*
X4782765Y2626347D02*
X4782794Y2626422D01*
X4782733Y2626273D02*
X4782765Y2626347D01*
X4782699Y2626198D02*
X4782733Y2626273D01*
X4782664Y2626124D02*
X4782699Y2626198D01*
X4782627Y2626051D02*
X4782664Y2626124D01*
X4782587Y2625978D02*
X4782627Y2626051D01*
X4782546Y2625905D02*
X4782587Y2625978D01*
X4782504Y2625832D02*
X4782546Y2625905D01*
X4782459Y2625761D02*
X4782504Y2625832D01*
X4782413Y2625689D02*
X4782459Y2625761D01*
X4782364Y2625618D02*
X4782413Y2625689D01*
X4782314Y2625548D02*
X4782364Y2625618D01*
X4782263Y2625477D02*
X4782314Y2625548D01*
X4782209Y2625408D02*
X4782263Y2625477D01*
X4782154Y2625339D02*
X4782209Y2625408D01*
X4782097Y2625270D02*
X4782154Y2625339D01*
X4782038Y2625202D02*
X4782097Y2625270D01*
X4781977Y2625135D02*
X4782038Y2625202D01*
X4781915Y2625068D02*
X4781977Y2625135D01*
X4781852Y2625002D02*
X4781915Y2625068D01*
X4781786Y2624937D02*
X4781852Y2625002D01*
X4781719Y2624872D02*
X4781786Y2624937D01*
X4781650Y2624808D02*
X4781719Y2624872D01*
X4781580Y2624744D02*
X4781650Y2624808D01*
X4781508Y2624682D02*
X4781580Y2624744D01*
X4781435Y2624620D02*
X4781508Y2624682D01*
X4781360Y2624558D02*
X4781435Y2624620D01*
X4781283Y2624498D02*
X4781360Y2624558D01*
X4781205Y2624438D02*
X4781283Y2624498D01*
X4781125Y2624379D02*
X4781205Y2624438D01*
X4781044Y2624321D02*
X4781125Y2624379D01*
X4780962Y2624263D02*
X4781044Y2624321D01*
X4780878Y2624206D02*
X4780962Y2624263D01*
X4780792Y2624151D02*
X4780878Y2624206D01*
X4780706Y2624096D02*
X4780792Y2624151D01*
X4780618Y2624042D02*
X4780706Y2624096D01*
X4780528Y2623988D02*
X4780618Y2624042D01*
X4780437Y2623936D02*
X4780528Y2623988D01*
X4780345Y2623885D02*
X4780437Y2623936D01*
X4780252Y2623834D02*
X4780345Y2623885D01*
X4780157Y2623784D02*
X4780252Y2623834D01*
X4780061Y2623736D02*
X4780157Y2623784D01*
X4779964Y2623688D02*
X4780061Y2623736D01*
X4779866Y2623641D02*
X4779964Y2623688D01*
X4779766Y2623595D02*
X4779866Y2623641D01*
X4779666Y2623550D02*
X4779766Y2623595D01*
X4779564Y2623506D02*
X4779666Y2623550D01*
X4779461Y2623464D02*
X4779564Y2623506D01*
X4779357Y2623422D02*
X4779461Y2623464D01*
X4779252Y2623381D02*
X4779357Y2623422D01*
X4779146Y2623341D02*
X4779252Y2623381D01*
X4779039Y2623302D02*
X4779146Y2623341D01*
X4778931Y2623265D02*
X4779039Y2623302D01*
X4778822Y2623228D02*
X4778931Y2623265D01*
X4778713Y2623193D02*
X4778822Y2623228D01*
X4778602Y2623158D02*
X4778713Y2623193D01*
X4778490Y2623125D02*
X4778602Y2623158D01*
X4778378Y2623092D02*
X4778490Y2623125D01*
X4778265Y2623061D02*
X4778378Y2623092D01*
X4778151Y2623031D02*
X4778265Y2623061D01*
X4778037Y2623002D02*
X4778151Y2623031D01*
X4777921Y2622974D02*
X4778037Y2623002D01*
X4777805Y2622948D02*
X4777921Y2622974D01*
X4777689Y2622922D02*
X4777805Y2622948D01*
X4777571Y2622898D02*
X4777689Y2622922D01*
X4777453Y2622874D02*
X4777571Y2622898D01*
X4777335Y2622852D02*
X4777453Y2622874D01*
X4777216Y2622831D02*
X4777335Y2622852D01*
X4777096Y2622811D02*
X4777216Y2622831D01*
X4776976Y2622793D02*
X4777096Y2622811D01*
X4776856Y2622776D02*
X4776976Y2622793D01*
X4776735Y2622759D02*
X4776856Y2622776D01*
X4776613Y2622744D02*
X4776735Y2622759D01*
X4776492Y2622730D02*
X4776613Y2622744D01*
X4776370Y2622718D02*
X4776492Y2622730D01*
X4776247Y2622706D02*
X4776370Y2622718D01*
X4776125Y2622696D02*
X4776247Y2622706D01*
X4776002Y2622687D02*
X4776125Y2622696D01*
X4775879Y2622679D02*
X4776002Y2622687D01*
X4775756Y2622672D02*
X4775879Y2622679D01*
X4775632Y2622667D02*
X4775756Y2622672D01*
X4775509Y2622663D02*
X4775632Y2622667D01*
X4775385Y2622660D02*
X4775509Y2622663D01*
X4775262Y2622658D02*
X4775385Y2622660D01*
X4775138Y2622657D02*
X4775262Y2622658D01*
X4783011Y2618260D02*
X4783012Y2618337D01*
X4783008Y2618182D02*
X4783011Y2618260D01*
X4783003Y2618105D02*
X4783008Y2618182D01*
X4782996Y2618028D02*
X4783003Y2618105D01*
X4782988Y2617951D02*
X4782996Y2618028D01*
X4782977Y2617874D02*
X4782988Y2617951D01*
X4782964Y2617798D02*
X4782977Y2617874D01*
X4782950Y2617721D02*
X4782964Y2617798D01*
X4782933Y2617645D02*
X4782950Y2617721D01*
X4782915Y2617568D02*
X4782933Y2617645D01*
X4782895Y2617492D02*
X4782915Y2617568D01*
X4782873Y2617416D02*
X4782895Y2617492D01*
X4782848Y2617341D02*
X4782873Y2617416D01*
X4782822Y2617265D02*
X4782848Y2617341D01*
X4782794Y2617190D02*
X4782822Y2617265D01*
X4782765Y2617115D02*
X4782794Y2617190D01*
X4782733Y2617041D02*
X4782765Y2617115D01*
X4782699Y2616966D02*
X4782733Y2617041D01*
X4782664Y2616893D02*
X4782699Y2616966D01*
X4782627Y2616819D02*
X4782664Y2616893D01*
X4782587Y2616746D02*
X4782627Y2616819D01*
X4782546Y2616673D02*
X4782587Y2616746D01*
X4782504Y2616601D02*
X4782546Y2616673D01*
X4782459Y2616529D02*
X4782504Y2616601D01*
X4782413Y2616457D02*
X4782459Y2616529D01*
X4782364Y2616386D02*
X4782413Y2616457D01*
X4782314Y2616316D02*
X4782364Y2616386D01*
X4782263Y2616246D02*
X4782314Y2616316D01*
X4782209Y2616176D02*
X4782263Y2616246D01*
X4782154Y2616107D02*
X4782209Y2616176D01*
X4782097Y2616039D02*
X4782154Y2616107D01*
X4782038Y2615971D02*
X4782097Y2616039D01*
X4781977Y2615903D02*
X4782038Y2615971D01*
X4781915Y2615837D02*
X4781977Y2615903D01*
X4781852Y2615771D02*
X4781915Y2615837D01*
X4781786Y2615705D02*
X4781852Y2615771D01*
X4781719Y2615640D02*
X4781786Y2615705D01*
X4781650Y2615576D02*
X4781719Y2615640D01*
X4781580Y2615513D02*
X4781650Y2615576D01*
X4781508Y2615450D02*
X4781580Y2615513D01*
X4781435Y2615388D02*
X4781508Y2615450D01*
X4781360Y2615327D02*
X4781435Y2615388D01*
X4781283Y2615266D02*
X4781360Y2615327D01*
X4781205Y2615206D02*
X4781283Y2615266D01*
X4781125Y2615147D02*
X4781205Y2615206D01*
X4781044Y2615089D02*
X4781125Y2615147D01*
X4780962Y2615031D02*
X4781044Y2615089D01*
X4780878Y2614975D02*
X4780962Y2615031D01*
X4780792Y2614919D02*
X4780878Y2614975D01*
X4780706Y2614864D02*
X4780792Y2614919D01*
X4780618Y2614810D02*
X4780706Y2614864D01*
X4780528Y2614756D02*
X4780618Y2614810D01*
X4780437Y2614704D02*
X4780528Y2614756D01*
X4780345Y2614653D02*
X4780437Y2614704D01*
X4780252Y2614602D02*
X4780345Y2614653D01*
X4780157Y2614552D02*
X4780252Y2614602D01*
X4780061Y2614504D02*
X4780157Y2614552D01*
X4779964Y2614456D02*
X4780061Y2614504D01*
X4779866Y2614409D02*
X4779964Y2614456D01*
X4779766Y2614363D02*
X4779866Y2614409D01*
X4779666Y2614318D02*
X4779766Y2614363D01*
X4779564Y2614275D02*
X4779666Y2614318D01*
X4779461Y2614232D02*
X4779564Y2614275D01*
X4779357Y2614190D02*
X4779461Y2614232D01*
X4779252Y2614149D02*
X4779357Y2614190D01*
X4779146Y2614109D02*
X4779252Y2614149D01*
X4779039Y2614071D02*
X4779146Y2614109D01*
X4778931Y2614033D02*
X4779039Y2614071D01*
X4778822Y2613996D02*
X4778931Y2614033D01*
X4778713Y2613961D02*
X4778822Y2613996D01*
X4778602Y2613926D02*
X4778713Y2613961D01*
X4778490Y2613893D02*
X4778602Y2613926D01*
X4778378Y2613860D02*
X4778490Y2613893D01*
X4778265Y2613829D02*
X4778378Y2613860D01*
X4778151Y2613799D02*
X4778265Y2613829D01*
X4778037Y2613770D02*
X4778151Y2613799D01*
X4777921Y2613742D02*
X4778037Y2613770D01*
X4777805Y2613716D02*
X4777921Y2613742D01*
X4777689Y2613690D02*
X4777805Y2613716D01*
X4777571Y2613666D02*
X4777689Y2613690D01*
X4777453Y2613642D02*
X4777571Y2613666D01*
X4777335Y2613620D02*
X4777453Y2613642D01*
X4777216Y2613599D02*
X4777335Y2613620D01*
X4777096Y2613580D02*
X4777216Y2613599D01*
X4776976Y2613561D02*
X4777096Y2613580D01*
X4776856Y2613544D02*
X4776976Y2613561D01*
X4776735Y2613527D02*
X4776856Y2613544D01*
X4776613Y2613512D02*
X4776735Y2613527D01*
X4776492Y2613499D02*
X4776613Y2613512D01*
X4776370Y2613486D02*
X4776492Y2613499D01*
X4776247Y2613474D02*
X4776370Y2613486D01*
X4776125Y2613464D02*
X4776247Y2613474D01*
X4776002Y2613455D02*
X4776125Y2613464D01*
X4775879Y2613447D02*
X4776002Y2613455D01*
X4775756Y2613441D02*
X4775879Y2613447D01*
X4775632Y2613435D02*
X4775756Y2613441D01*
X4775509Y2613431D02*
X4775632Y2613435D01*
X4775385Y2613428D02*
X4775509Y2613431D01*
X4775262Y2613426D02*
X4775385Y2613428D01*
X4775138Y2613425D02*
X4775262Y2613426D01*
X4538917Y2622657D02*
X4775138D01*
X4808054Y2627543D02*
X4814114Y2622515D01*
X4538917Y2613425D02*
Y2622657D01*
X4800513Y2618453D02*
X4808054Y2627543D01*
X4775138Y2613425D02*
Y2622657D01*
X4506001Y2627543D02*
X4513542Y2618453D01*
X4531043Y2630354D02*
Y2815394D01*
X4783012Y2630354D02*
Y2815394D01*
X4728229Y3763701D02*
X4795158D01*
X4728229Y3726299D02*
X4795158D01*
Y3763701D01*
X4728229Y3726299D02*
Y3763701D01*
X4946693Y3506457D02*
Y3563543D01*
X5033307Y3506457D02*
Y3563543D01*
X4946693Y3506457D02*
X5033307D01*
X4946693Y3563543D02*
X5033307D01*
X5137835Y3618110D02*
Y3881890D01*
X4992165Y3618110D02*
Y3881890D01*
X5137835D01*
X4992165Y3618110D02*
X5137835D01*
X4467323Y3769608D02*
X4546063D01*
X4467323Y3720395D02*
X4546063D01*
Y3769608D01*
X4467323Y3720395D02*
Y3769608D01*
X4534252Y3720394D02*
Y3769606D01*
X4479134Y3720394D02*
Y3769606D01*
X4268465Y5716299D02*
Y5753701D01*
X4201535Y5716299D02*
Y5753701D01*
X4268465D01*
X4201535Y5716299D02*
X4268465D01*
X4109055Y5685787D02*
Y5784213D01*
X3990945Y5685787D02*
Y5784213D01*
Y5685787D02*
X4109055D01*
X3990945Y5784213D02*
X4109055D01*
X4438465Y5856299D02*
Y5893701D01*
X4371535Y5856299D02*
Y5893701D01*
X4438465D01*
X4371535Y5856299D02*
X4438465D01*
X3861535Y5801299D02*
Y5838701D01*
X3928465Y5801299D02*
Y5838701D01*
X3861535Y5801299D02*
X3928465D01*
X3861535Y5838701D02*
X3928465D01*
X3530945Y6970787D02*
Y7069213D01*
X3649055Y6970787D02*
Y7069213D01*
X3530945D02*
X3649055D01*
X3530945Y6970787D02*
X3649055D01*
D58*
X3222477Y6308196D02*
X3542477Y6862453D01*
X3368773Y6943499D02*
X3368163Y6945775D01*
X3369829Y6948660D01*
X3372105Y6949270D01*
X3377876Y6945938D01*
X3378486Y6943662D01*
X3376820Y6940776D01*
X3374544Y6940166D01*
X3365663Y6941446D02*
X3372878Y6937280D01*
X3373488Y6935005D01*
X3371822Y6932119D01*
X3369546Y6931509D01*
X3362331Y6935674D01*
X3360665Y6932788D02*
X3357333Y6927017D01*
X3358999Y6929903D01*
X3367656Y6924904D01*
X3353167Y6919802D02*
X3354834Y6922688D01*
X3357110Y6923298D01*
X3362881Y6919966D01*
X3363491Y6917690D01*
X3361825Y6914804D01*
X3359549Y6914194D01*
X3353777Y6917526D01*
X3353167Y6919802D01*
X3350668Y6915473D02*
X3357883Y6911308D01*
X3358493Y6909032D01*
X3356827Y6906146D01*
X3354551Y6905536D01*
X3347336Y6909702D01*
X3345670Y6906816D02*
X3342338Y6901044D01*
X3344004Y6903930D01*
X3352661Y6898932D01*
X3344331Y6884502D02*
X3335673Y6889501D01*
X3333174Y6885172D01*
X3333784Y6882896D01*
X3336669Y6881230D01*
X3338945Y6881840D01*
X3341445Y6886169D01*
X3328175Y6876515D02*
X3329842Y6879401D01*
X3332118Y6880010D01*
X3337889Y6876678D01*
X3338499Y6874402D01*
X3336833Y6871516D01*
X3334557Y6870907D01*
X3328785Y6874239D01*
X3328175Y6876515D01*
X3325676Y6872186D02*
X3334334Y6867188D01*
X3331001Y6861416D01*
X3320678Y6863529D02*
X3322121Y6862695D01*
X3323340Y6858143D01*
X3318789Y6856924D01*
X3317346Y6857757D01*
X3323340Y6858143D02*
X3327669Y6855644D01*
X3313790Y6848266D02*
X3313180Y6850542D01*
X3314846Y6853428D01*
X3317122Y6854038D01*
X3322894Y6850706D01*
X3323504Y6848430D01*
X3321838Y6845544D01*
X3319562Y6844934D01*
X3316676Y6846600D01*
X3318342Y6849486D01*
X3308182Y6841885D02*
X3309848Y6844771D01*
X3312124Y6845380D01*
X3317896Y6842048D01*
X3318505Y6839772D01*
X3316839Y6836886D01*
X3314563Y6836276D01*
X3308792Y6839609D01*
X3308182Y6841885D01*
X3314340Y6832558D02*
X3305683Y6837556D01*
X3311008Y6826786D01*
X3302350Y6831784D01*
X3361999Y6955105D02*
X3356227Y6958437D01*
X3351675Y6957217D01*
X3352895Y6952665D01*
X3358666Y6949333D01*
X3354338Y6951832D01*
X3357670Y6957604D01*
X3357000Y6946447D02*
X3348343Y6951446D01*
X3353668Y6940676D01*
X3345011Y6945674D01*
X3343344Y6942788D02*
X3340012Y6937017D01*
X3341678Y6939902D01*
X3350336Y6934904D01*
X3335014Y6928359D02*
X3338346Y6934131D01*
X3347003Y6929132D01*
X3343671Y6923361D01*
X3342675Y6931632D02*
X3341009Y6928746D01*
X3342005Y6920475D02*
X3333348Y6925473D01*
X3338673Y6914703D01*
X3330015Y6919702D01*
X3337007Y6911817D02*
X3328349Y6916816D01*
X3333674Y6906046D01*
X3325017Y6911044D01*
X3332008Y6903160D02*
X3326237Y6906492D01*
X3321685Y6905272D01*
X3322904Y6900721D01*
X3328676Y6897388D01*
X3324347Y6899887D01*
X3327680Y6905659D01*
X3322012Y6885845D02*
X3316240Y6889177D01*
X3311688Y6887958D01*
X3312908Y6883406D01*
X3318679Y6880073D01*
X3314351Y6882573D01*
X3317683Y6888344D01*
X3317013Y6877188D02*
X3308356Y6882186D01*
X3305856Y6877857D01*
X3306466Y6875581D01*
X3309352Y6873915D01*
X3311628Y6874525D01*
X3314127Y6878854D01*
X3312461Y6875968D02*
X3313681Y6871416D01*
X3300025Y6867757D02*
X3303357Y6873528D01*
X3312015Y6868530D01*
X3308682Y6862758D01*
X3307686Y6871029D02*
X3306020Y6868143D01*
X3307016Y6859873D02*
X3301245Y6863205D01*
X3296693Y6861985D01*
X3297912Y6857433D01*
X3303684Y6854101D01*
X3299355Y6856600D01*
X3302688Y6862372D01*
%TF.MD5,364f3a284d2cbe36127f6b2f3c215d25*%
M02*
