%TF.GenerationSoftware,Altium Limited,Altium Designer,18.1.6 (161)*%
G04 Layer_Color=8388736*
%FSLAX26Y26*%
%MOIN*%
%TF.FileFunction,Other,Mechanical_6*%
%TF.Part,Single*%
G01*
G75*
%TA.AperFunction,NonConductor*%
%ADD34C,0.003937*%
D34*
X4481240Y2657913D02*
X4842067D01*
X4940492Y2653701D02*
Y2665508D01*
X4934588D01*
X4932620Y2663540D01*
Y2659604D01*
X4934588Y2657637D01*
X4940492D01*
X4920813Y2663540D02*
X4922781Y2665508D01*
X4926717D01*
X4928685Y2663540D01*
Y2655669D01*
X4926717Y2653701D01*
X4922781D01*
X4920813Y2655669D01*
X4916877Y2665508D02*
Y2653701D01*
X4910974D01*
X4909006Y2655669D01*
Y2657637D01*
X4910974Y2659604D01*
X4916877D01*
X4910974D01*
X4909006Y2661572D01*
Y2663540D01*
X4910974Y2665508D01*
X4916877D01*
X4885392D02*
X4893263D01*
Y2653701D01*
X4885392D01*
X4893263Y2659604D02*
X4889327D01*
X4881456Y2665508D02*
Y2653701D01*
X4875552D01*
X4873584Y2655669D01*
Y2663540D01*
X4875552Y2665508D01*
X4881456D01*
X4861777Y2663540D02*
X4863745Y2665508D01*
X4867681D01*
X4869649Y2663540D01*
Y2655669D01*
X4867681Y2653701D01*
X4863745D01*
X4861777Y2655669D01*
Y2659604D01*
X4865713D01*
X4849970Y2665508D02*
X4857842D01*
Y2653701D01*
X4849970D01*
X4857842Y2659604D02*
X4853906D01*
%TF.MD5,6cdaccc08e84deae7b6c08a35e308164*%
M02*
