%TF.GenerationSoftware,Altium Limited,Altium Designer,18.1.6 (161)*%
G04 Layer_Color=32896*
%FSLAX26Y26*%
%MOIN*%
%TF.FileFunction,Legend,Bot*%
%TF.Part,Single*%
G01*
G75*
%TA.AperFunction,NonConductor*%
%ADD10C,0.000500*%
%ADD33C,0.009842*%
%ADD34C,0.003937*%
%ADD35C,0.007874*%
%ADD36C,0.010000*%
G36*
X4257629Y6456731D02*
X4257742Y6456708D01*
X4257792Y6456722D01*
X4259024Y6456599D01*
X4260215Y6456332D01*
X4261351Y6455970D01*
X4262356Y6455600D01*
X4262802Y6455426D01*
X4263230Y6455221D01*
X4263564Y6455071D01*
X4263879Y6454889D01*
X4264118Y6454793D01*
X4264307Y6454684D01*
X4264433Y6454611D01*
X4264464Y6454593D01*
X4265563Y6453874D01*
X4266593Y6453111D01*
X4267480Y6452389D01*
X4267880Y6451990D01*
X4268235Y6451659D01*
X4268559Y6451346D01*
X4268833Y6451020D01*
X4269093Y6450743D01*
X4269309Y6450535D01*
X4269443Y6450331D01*
X4269583Y6450208D01*
X4269641Y6450091D01*
X4269673Y6450073D01*
X4270345Y6449054D01*
X4270887Y6448026D01*
X4271284Y6447040D01*
X4271404Y6446593D01*
X4271542Y6446177D01*
X4271649Y6445779D01*
X4271724Y6445400D01*
X4271786Y6445070D01*
X4271803Y6444808D01*
X4271856Y6444609D01*
X4271878Y6444428D01*
X4271873Y6444347D01*
X4271886Y6444297D01*
X4271884Y6443710D01*
X4271850Y6443141D01*
X4271650Y6441996D01*
X4271356Y6440904D01*
X4270986Y6439899D01*
X4270794Y6439421D01*
X4270639Y6439007D01*
X4270471Y6438642D01*
X4270307Y6438358D01*
X4270193Y6438088D01*
X4269992Y6437741D01*
X4269597Y6437129D01*
X4269188Y6436566D01*
X4268797Y6436035D01*
X4268362Y6435572D01*
X4267913Y6435159D01*
X4267482Y6434777D01*
X4267070Y6434426D01*
X4266644Y6434126D01*
X4266287Y6433870D01*
X4265929Y6433614D01*
X4265625Y6433453D01*
X4265322Y6433292D01*
X4265105Y6433207D01*
X4264951Y6433086D01*
X4264852Y6433059D01*
X4264802Y6433046D01*
X4264169Y6432823D01*
X4263572Y6432663D01*
X4262931Y6432571D01*
X4262289Y6432479D01*
X4261079Y6432421D01*
X4259941Y6432490D01*
X4259422Y6432537D01*
X4258953Y6432598D01*
X4258533Y6432672D01*
X4258195Y6432741D01*
X4257888Y6432792D01*
X4257663Y6432838D01*
X4257519Y6432880D01*
X4257487Y6432898D01*
X4258436Y6436217D01*
X4259014Y6436052D01*
X4259578Y6435936D01*
X4260110Y6435839D01*
X4260611Y6435760D01*
X4261098Y6435731D01*
X4261523Y6435738D01*
X4261965Y6435777D01*
X4262358Y6435802D01*
X4262701Y6435814D01*
X4263000Y6435894D01*
X4263280Y6435942D01*
X4263510Y6435977D01*
X4263677Y6436049D01*
X4263827Y6436089D01*
X4263876Y6436102D01*
X4263926Y6436115D01*
X4264360Y6436285D01*
X4264750Y6436523D01*
X4265497Y6437016D01*
X4266131Y6437532D01*
X4266671Y6438103D01*
X4267125Y6438598D01*
X4267284Y6438800D01*
X4267411Y6439021D01*
X4267552Y6439192D01*
X4267679Y6439413D01*
X4268066Y6440156D01*
X4268341Y6440922D01*
X4268547Y6441644D01*
X4268685Y6442320D01*
X4268751Y6442871D01*
X4268766Y6443115D01*
X4268794Y6443309D01*
X4268803Y6443471D01*
X4268795Y6443602D01*
X4268800Y6443683D01*
X4268818Y6443715D01*
X4268722Y6444569D01*
X4268541Y6445346D01*
X4268260Y6446097D01*
X4267956Y6446735D01*
X4267678Y6447273D01*
X4267409Y6447681D01*
X4267288Y6447835D01*
X4267230Y6447952D01*
X4267185Y6448020D01*
X4267153Y6448038D01*
X4266479Y6448764D01*
X4265769Y6449426D01*
X4265040Y6450057D01*
X4264338Y6450588D01*
X4264010Y6450820D01*
X4263713Y6451034D01*
X4263429Y6451198D01*
X4263226Y6451356D01*
X4263037Y6451466D01*
X4262880Y6451557D01*
X4262785Y6451611D01*
X4262754Y6451629D01*
X4261916Y6452071D01*
X4261123Y6452445D01*
X4260356Y6452719D01*
X4259653Y6452957D01*
X4259063Y6453172D01*
X4258806Y6453236D01*
X4258580Y6453282D01*
X4258404Y6453342D01*
X4258292Y6453365D01*
X4258210Y6453370D01*
X4258179Y6453388D01*
X4257272Y6453491D01*
X4256410Y6453527D01*
X4255655Y6453458D01*
X4254946Y6453321D01*
X4254367Y6453193D01*
X4253951Y6453055D01*
X4253666Y6452925D01*
X4253585Y6452930D01*
X4253567Y6452898D01*
X4252775Y6452473D01*
X4252041Y6451930D01*
X4251420Y6451364D01*
X4250912Y6450775D01*
X4250471Y6450230D01*
X4250294Y6449996D01*
X4250167Y6449776D01*
X4250044Y6449636D01*
X4249899Y6449384D01*
X4249475Y6448578D01*
X4249183Y6447780D01*
X4249026Y6447072D01*
X4248906Y6446427D01*
X4248890Y6445890D01*
X4248865Y6445483D01*
X4248882Y6445221D01*
X4248909Y6445122D01*
X4249091Y6444345D01*
X4249354Y6443562D01*
X4249703Y6442856D01*
X4250088Y6442213D01*
X4250447Y6441670D01*
X4250644Y6441430D01*
X4250797Y6441258D01*
X4250918Y6441104D01*
X4251008Y6440968D01*
X4251053Y6440900D01*
X4251084Y6440882D01*
X4248784Y6438427D01*
X4248326Y6438944D01*
X4247931Y6439424D01*
X4247604Y6439949D01*
X4247258Y6440443D01*
X4246994Y6440931D01*
X4246780Y6441434D01*
X4246547Y6441904D01*
X4246377Y6442338D01*
X4246271Y6442736D01*
X4246146Y6443102D01*
X4246053Y6443450D01*
X4245986Y6443699D01*
X4245919Y6443948D01*
X4245898Y6444128D01*
X4245903Y6444210D01*
X4245889Y6444259D01*
X4245860Y6444864D01*
X4245831Y6445470D01*
X4245865Y6446038D01*
X4245949Y6446620D01*
X4246212Y6447730D01*
X4246514Y6448690D01*
X4246656Y6449155D01*
X4246825Y6449520D01*
X4246993Y6449885D01*
X4247126Y6450186D01*
X4247221Y6450425D01*
X4247404Y6450741D01*
X4248067Y6451744D01*
X4248807Y6452662D01*
X4249506Y6453436D01*
X4249869Y6453773D01*
X4250213Y6454078D01*
X4250539Y6454352D01*
X4250847Y6454595D01*
X4251088Y6454792D01*
X4251328Y6454990D01*
X4251513Y6455093D01*
X4251649Y6455182D01*
X4251735Y6455259D01*
X4251785Y6455272D01*
X4252812Y6455814D01*
X4253861Y6456175D01*
X4254856Y6456441D01*
X4255796Y6456613D01*
X4256600Y6456695D01*
X4256943Y6456708D01*
X4257236Y6456706D01*
X4257467Y6456741D01*
X4257629Y6456731D01*
D02*
G37*
G36*
X4279660Y6455360D02*
X4277986Y6452460D01*
X4256172Y6465055D01*
X4257846Y6467955D01*
X4279660Y6455360D01*
D02*
G37*
G36*
X4245342Y6437051D02*
X4244943Y6435559D01*
X4244723Y6434887D01*
X4244522Y6434247D01*
X4244343Y6433720D01*
X4244297Y6433494D01*
X4244220Y6433287D01*
X4244178Y6433142D01*
X4244124Y6433048D01*
X4244119Y6432967D01*
X4244101Y6432935D01*
X4244318Y6433020D01*
X4244598Y6433068D01*
X4245226Y6433210D01*
X4245904Y6433365D01*
X4246613Y6433502D01*
X4247273Y6433625D01*
X4247815Y6433690D01*
X4248046Y6433726D01*
X4248195Y6433766D01*
X4248276Y6433761D01*
X4248326Y6433774D01*
X4248554Y6431330D01*
X4247931Y6431270D01*
X4247226Y6431214D01*
X4246508Y6431209D01*
X4245822Y6431185D01*
X4245235Y6431187D01*
X4244748Y6431216D01*
X4244535Y6431213D01*
X4244404Y6431204D01*
X4244323Y6431209D01*
X4244292Y6431227D01*
X4244748Y6430417D01*
X4245142Y6429644D01*
X4245478Y6428987D01*
X4245787Y6428431D01*
X4245988Y6427978D01*
X4246131Y6427644D01*
X4246216Y6427426D01*
X4246261Y6427359D01*
X4244012Y6426303D01*
X4243646Y6427271D01*
X4243357Y6428153D01*
X4243121Y6428835D01*
X4242929Y6429450D01*
X4242809Y6429898D01*
X4242748Y6430227D01*
X4242694Y6430426D01*
X4242681Y6430476D01*
X4242186Y6429837D01*
X4241678Y6429248D01*
X4241156Y6428709D01*
X4240702Y6428214D01*
X4240303Y6427814D01*
X4240131Y6427661D01*
X4239959Y6427508D01*
X4239855Y6427400D01*
X4239768Y6427324D01*
X4239700Y6427279D01*
X4239682Y6427248D01*
X4237971Y6429161D01*
X4238641Y6429740D01*
X4239276Y6430257D01*
X4239874Y6430710D01*
X4240386Y6431087D01*
X4240811Y6431387D01*
X4241151Y6431612D01*
X4241287Y6431701D01*
X4241373Y6431778D01*
X4241423Y6431791D01*
X4241441Y6431823D01*
X4240598Y6432183D01*
X4239819Y6432507D01*
X4239138Y6432858D01*
X4238566Y6433104D01*
X4238138Y6433309D01*
X4237773Y6433478D01*
X4237678Y6433532D01*
X4237584Y6433587D01*
X4237552Y6433605D01*
X4237521Y6433623D01*
X4238758Y6435767D01*
X4238979Y6435640D01*
X4239231Y6435494D01*
X4239749Y6435153D01*
X4240343Y6434726D01*
X4240906Y6434317D01*
X4241455Y6433958D01*
X4241689Y6433781D01*
X4241891Y6433622D01*
X4242080Y6433513D01*
X4242188Y6433408D01*
X4242283Y6433354D01*
X4242314Y6433336D01*
X4242349Y6433904D01*
X4242406Y6434586D01*
X4242481Y6435299D01*
X4242588Y6435994D01*
X4242690Y6436607D01*
X4242741Y6436914D01*
X4242756Y6437158D01*
X4242815Y6437334D01*
X4242825Y6437496D01*
X4242830Y6437577D01*
X4242848Y6437609D01*
X4245342Y6437051D01*
D02*
G37*
D10*
X3202911Y6568376D02*
X3296911Y6731189D01*
X3201845Y6565528D02*
X3298844Y6733537D01*
X3201277Y6563546D02*
X3300277Y6735019D01*
X3200710Y6561564D02*
X3301710Y6736501D01*
X3200393Y6560015D02*
X3302893Y6737550D01*
X3200076Y6558466D02*
X3304076Y6738599D01*
X3200009Y6557350D02*
X3305009Y6739215D01*
X3199692Y6555801D02*
X3306192Y6740264D01*
X3184692Y6529820D02*
X3187192Y6534150D01*
X3199625Y6554685D02*
X3307125Y6740880D01*
X3184625Y6528704D02*
X3188375Y6535199D01*
X3234558Y6614190D02*
X3308058Y6741496D01*
X3199559Y6553569D02*
X3206308Y6565260D01*
X3184559Y6527588D02*
X3189058Y6535382D01*
X3236491Y6616538D02*
X3308991Y6742112D01*
X3199491Y6552453D02*
X3205491Y6562845D01*
X3187991Y6532534D02*
X3189741Y6535565D01*
X3184742Y6526905D02*
X3186491Y6529936D01*
X3237674Y6617588D02*
X3309925Y6742728D01*
X3199425Y6551337D02*
X3204924Y6560863D01*
X3189175Y6533583D02*
X3190674Y6536181D01*
X3184925Y6526222D02*
X3186174Y6528387D01*
X3239108Y6619070D02*
X3310608Y6742911D01*
X3199608Y6550654D02*
X3204358Y6558881D01*
X3189858Y6533766D02*
X3191107Y6535931D01*
X3185108Y6525539D02*
X3186357Y6527704D01*
X3240041Y6619686D02*
X3311541Y6743527D01*
X3199541Y6549538D02*
X3204041Y6557332D01*
X3190790Y6534382D02*
X3191790Y6536114D01*
X3185291Y6524856D02*
X3186541Y6527021D01*
X3241224Y6620735D02*
X3312474Y6744143D01*
X3199724Y6548855D02*
X3203974Y6556216D01*
X3191473Y6534565D02*
X3192474Y6536297D01*
X3188474Y6529369D02*
X3190724Y6533266D01*
X3185724Y6524606D02*
X3186724Y6526338D01*
X3242157Y6621351D02*
X3313157Y6744326D01*
X3199657Y6547739D02*
X3203657Y6554667D01*
X3191907Y6534315D02*
X3192907Y6536047D01*
X3188157Y6527820D02*
X3191157Y6533016D01*
X3185907Y6523923D02*
X3186907Y6525655D01*
X3243090Y6621967D02*
X3313840Y6744509D01*
X3199840Y6547056D02*
X3203590Y6553551D01*
X3192590Y6534498D02*
X3193590Y6536230D01*
X3188340Y6527137D02*
X3191590Y6532766D01*
X3186340Y6523673D02*
X3187090Y6524972D01*
X3244023Y6622583D02*
X3314773Y6745126D01*
X3199773Y6545940D02*
X3203523Y6552435D01*
X3193023Y6534248D02*
X3194023Y6535980D01*
X3191273Y6531217D02*
X3192023Y6532516D01*
X3188773Y6526887D02*
X3190022Y6529052D01*
X3186523Y6522990D02*
X3187523Y6524722D01*
X3244956Y6623199D02*
X3315456Y6745308D01*
X3199956Y6545257D02*
X3203456Y6551319D01*
X3193706Y6534431D02*
X3194456Y6535730D01*
X3191706Y6530967D02*
X3192456Y6532266D01*
X3189206Y6526637D02*
X3190206Y6528369D01*
X3186956Y6522740D02*
X3187706Y6524039D01*
X3245889Y6623815D02*
X3316139Y6745491D01*
X3200139Y6544574D02*
X3203639Y6550636D01*
X3194139Y6534181D02*
X3195139Y6535913D01*
X3192139Y6530717D02*
X3192889Y6532016D01*
X3189639Y6526387D02*
X3190639Y6528119D01*
X3187389Y6522490D02*
X3188139Y6523789D01*
X3246572Y6623998D02*
X3317072Y6746107D01*
X3200072Y6543458D02*
X3203572Y6549520D01*
X3194572Y6533931D02*
X3195572Y6535663D01*
X3192572Y6530467D02*
X3193322Y6531766D01*
X3190072Y6526137D02*
X3191072Y6527869D01*
X3187822Y6522240D02*
X3188572Y6523539D01*
X3247505Y6624614D02*
X3317755Y6746291D01*
X3200255Y6542775D02*
X3203755Y6548837D01*
X3195005Y6533681D02*
X3196005Y6535413D01*
X3190505Y6525887D02*
X3193755Y6531516D01*
X3188005Y6521557D02*
X3189005Y6523289D01*
X3248188Y6624797D02*
X3318438Y6746474D01*
X3200438Y6542092D02*
X3203688Y6547721D01*
X3195438Y6533431D02*
X3196438Y6535163D01*
X3191188Y6526070D02*
X3194188Y6531266D01*
X3188438Y6521307D02*
X3189438Y6523039D01*
X3249121Y6625413D02*
X3319120Y6746657D01*
X3200621Y6541408D02*
X3203871Y6547038D01*
X3196121Y6533614D02*
X3196871Y6534913D01*
X3192121Y6526686D02*
X3194621Y6531016D01*
X3188871Y6521057D02*
X3189870Y6522789D01*
X3249804Y6625596D02*
X3319804Y6746840D01*
X3200804Y6540726D02*
X3203804Y6545922D01*
X3196304Y6532931D02*
X3197304Y6534663D01*
X3194304Y6529467D02*
X3195054Y6530766D01*
X3192554Y6526436D02*
X3193804Y6528601D01*
X3189304Y6520807D02*
X3190304Y6522539D01*
X3250487Y6625779D02*
X3320487Y6747023D01*
X3200987Y6540042D02*
X3203987Y6545239D01*
X3196737Y6532681D02*
X3197736Y6534413D01*
X3194737Y6529217D02*
X3195487Y6530516D01*
X3192737Y6525753D02*
X3193737Y6527485D01*
X3189987Y6520990D02*
X3190737Y6522289D01*
X3251170Y6625962D02*
X3321170Y6747206D01*
X3201170Y6539359D02*
X3204170Y6544556D01*
X3197170Y6532431D02*
X3198170Y6534163D01*
X3195170Y6528967D02*
X3195920Y6530266D01*
X3192920Y6525070D02*
X3194170Y6527235D01*
X3190420Y6520740D02*
X3191170Y6522039D01*
X3252103Y6626578D02*
X3321853Y6747389D01*
X3201353Y6538676D02*
X3204103Y6543440D01*
X3197603Y6532181D02*
X3198353Y6533480D01*
X3195603Y6528717D02*
X3196353Y6530016D01*
X3193353Y6524820D02*
X3194353Y6526552D01*
X3190853Y6520490D02*
X3191853Y6522222D01*
X3252786Y6626761D02*
X3322536Y6747572D01*
X3201536Y6537993D02*
X3204286Y6542757D01*
X3197786Y6531498D02*
X3198786Y6533230D01*
X3196036Y6528467D02*
X3196786Y6529766D01*
X3193536Y6524137D02*
X3194536Y6525869D01*
X3191286Y6520240D02*
X3192286Y6521972D01*
X3253469Y6626944D02*
X3323219Y6747755D01*
X3201719Y6537310D02*
X3204469Y6542074D01*
X3198219Y6531248D02*
X3198969Y6532547D01*
X3196469Y6528217D02*
X3197219Y6529516D01*
X3193719Y6523454D02*
X3194969Y6525619D01*
X3191969Y6520423D02*
X3192969Y6522155D01*
X3254152Y6627127D02*
X3323902Y6747938D01*
X3201902Y6536627D02*
X3204652Y6541391D01*
X3198402Y6530565D02*
X3199402Y6532297D01*
X3196902Y6527967D02*
X3197652Y6529266D01*
X3194152Y6523204D02*
X3195152Y6524936D01*
X3192402Y6520173D02*
X3193402Y6521905D01*
X3254835Y6627310D02*
X3324585Y6748121D01*
X3202085Y6535944D02*
X3204835Y6540708D01*
X3198585Y6529882D02*
X3199585Y6531614D01*
X3193085Y6520356D02*
X3194085Y6522088D01*
X3255518Y6627493D02*
X3325268Y6748304D01*
X3202518Y6535694D02*
X3205018Y6540025D01*
X3198768Y6529199D02*
X3200018Y6531364D01*
X3193768Y6520539D02*
X3195018Y6522704D01*
X3256201Y6627676D02*
X3325701Y6748054D01*
X3202701Y6535011D02*
X3205201Y6539342D01*
X3198701Y6528083D02*
X3200201Y6530681D01*
X3194451Y6520722D02*
X3195701Y6522887D01*
X3256634Y6627426D02*
X3326384Y6748237D01*
X3202884Y6534328D02*
X3205384Y6538658D01*
X3198634Y6526967D02*
X3200384Y6529998D01*
X3195134Y6520905D02*
X3196634Y6523503D01*
X3257317Y6627609D02*
X3327067Y6748420D01*
X3203067Y6533645D02*
X3205567Y6537975D01*
X3195817Y6521088D02*
X3200317Y6528882D01*
X3258000Y6627792D02*
X3327750Y6748603D01*
X3203250Y6532962D02*
X3206000Y6537725D01*
X3196500Y6521271D02*
X3200500Y6528199D01*
X3258683Y6627975D02*
X3328183Y6748353D01*
X3203683Y6532712D02*
X3206183Y6537042D01*
X3197683Y6522320D02*
X3200183Y6526650D01*
X3259366Y6628158D02*
X3328866Y6748536D01*
X3203866Y6532029D02*
X3206366Y6536359D01*
X3260049Y6628341D02*
X3329549Y6748719D01*
X3204049Y6531346D02*
X3206549Y6535676D01*
X3260482Y6628091D02*
X3330232Y6748902D01*
X3204482Y6531096D02*
X3206732Y6534993D01*
X3261165Y6628274D02*
X3330665Y6748652D01*
X3204665Y6530413D02*
X3207165Y6534743D01*
X3261848Y6628457D02*
X3331348Y6748835D01*
X3204848Y6529730D02*
X3207348Y6534060D01*
X3262281Y6628207D02*
X3331781Y6748585D01*
X3205281Y6529480D02*
X3207531Y6533377D01*
X3262964Y6628390D02*
X3332464Y6748768D01*
X3205464Y6528797D02*
X3207964Y6533127D01*
X3263647Y6628573D02*
X3333147Y6748951D01*
X3205897Y6528547D02*
X3208147Y6532444D01*
X3264080Y6628323D02*
X3333580Y6748701D01*
X3206080Y6527864D02*
X3208330Y6531761D01*
X3264763Y6628506D02*
X3334263Y6748884D01*
X3206263Y6527181D02*
X3208763Y6531511D01*
X3265196Y6628256D02*
X3334696Y6748634D01*
X3206696Y6526931D02*
X3208946Y6530828D01*
X3265879Y6628439D02*
X3335379Y6748817D01*
X3206879Y6526248D02*
X3209379Y6530578D01*
X3266312Y6628189D02*
X3335812Y6748567D01*
X3207312Y6525998D02*
X3209562Y6529895D01*
X3266995Y6628372D02*
X3336495Y6748750D01*
X3207495Y6525315D02*
X3209745Y6529212D01*
X3282178Y6653670D02*
X3336928Y6748500D01*
X3267428Y6628122D02*
X3280928Y6651505D01*
X3228178Y6560139D02*
X3229178Y6561871D01*
X3207928Y6525065D02*
X3210178Y6528962D01*
X3283611Y6655152D02*
X3337611Y6748683D01*
X3268111Y6628305D02*
X3280611Y6649956D01*
X3227611Y6558157D02*
X3230611Y6563353D01*
X3208361Y6524815D02*
X3210361Y6528279D01*
X3284544Y6655768D02*
X3338044Y6748433D01*
X3268544Y6628055D02*
X3280544Y6648840D01*
X3227544Y6557041D02*
X3231544Y6563969D01*
X3208544Y6524132D02*
X3210794Y6528029D01*
X3328477Y6730862D02*
X3338477Y6748183D01*
X3327977Y6729996D02*
X3328227Y6730429D01*
X3322977Y6721336D02*
X3323477Y6722202D01*
X3311977Y6702283D02*
X3322727Y6720903D01*
X3307227Y6694056D02*
X3307477Y6694489D01*
X3306477Y6692757D02*
X3306977Y6693623D01*
X3295727Y6674138D02*
X3306227Y6692324D01*
X3289977Y6664178D02*
X3290227Y6664611D01*
X3285227Y6655951D02*
X3289727Y6663745D01*
X3269227Y6628238D02*
X3280477Y6647724D01*
X3227477Y6555925D02*
X3232227Y6564152D01*
X3208977Y6523882D02*
X3211227Y6527779D01*
X3329160Y6731045D02*
X3339160Y6748366D01*
X3312410Y6702033D02*
X3322410Y6719354D01*
X3296410Y6674321D02*
X3306660Y6692074D01*
X3285910Y6656134D02*
X3290160Y6663495D01*
X3269660Y6627988D02*
X3280660Y6647041D01*
X3238160Y6573429D02*
X3260910Y6612833D01*
X3227660Y6555242D02*
X3232910Y6564335D01*
X3209160Y6523199D02*
X3211410Y6527096D01*
X3329593Y6730795D02*
X3339593Y6748116D01*
X3312843Y6701783D02*
X3322843Y6719104D01*
X3296843Y6674071D02*
X3306843Y6691391D01*
X3286593Y6656317D02*
X3290593Y6663245D01*
X3270093Y6627738D02*
X3280843Y6646358D01*
X3238343Y6572746D02*
X3261343Y6612583D01*
X3227843Y6554559D02*
X3233593Y6564518D01*
X3209593Y6522949D02*
X3211843Y6526846D01*
X3329776Y6730112D02*
X3340276Y6748299D01*
X3313526Y6701966D02*
X3323276Y6718854D01*
X3297276Y6673821D02*
X3307276Y6691141D01*
X3287276Y6656500D02*
X3291276Y6663428D01*
X3270776Y6627921D02*
X3281026Y6645675D01*
X3239026Y6572929D02*
X3261776Y6612333D01*
X3228276Y6554309D02*
X3234276Y6564701D01*
X3210026Y6522699D02*
X3212026Y6526163D01*
X3330209Y6729862D02*
X3340709Y6748049D01*
X3313959Y6701716D02*
X3323709Y6718604D01*
X3297959Y6674004D02*
X3307709Y6690891D01*
X3287959Y6656683D02*
X3291709Y6663178D01*
X3271209Y6627671D02*
X3281459Y6645425D01*
X3239459Y6572679D02*
X3262209Y6612083D01*
X3228459Y6553626D02*
X3234959Y6564884D01*
X3210209Y6522016D02*
X3212459Y6525913D01*
X3330642Y6729612D02*
X3341142Y6747799D01*
X3314392Y6701466D02*
X3323892Y6717921D01*
X3298392Y6673754D02*
X3308142Y6690641D01*
X3288392Y6656433D02*
X3292142Y6662928D01*
X3271892Y6627854D02*
X3281642Y6644742D01*
X3239892Y6572429D02*
X3262642Y6611833D01*
X3228642Y6552943D02*
X3235392Y6564634D01*
X3210642Y6521766D02*
X3212892Y6525663D01*
X3331075Y6729362D02*
X3341825Y6747982D01*
X3315075Y6701650D02*
X3324325Y6717671D01*
X3298825Y6673504D02*
X3308325Y6689958D01*
X3289075Y6656616D02*
X3292575Y6662678D01*
X3272325Y6627604D02*
X3282075Y6644492D01*
X3240325Y6572179D02*
X3263075Y6611583D01*
X3229075Y6552693D02*
X3236075Y6564817D01*
X3210825Y6521083D02*
X3213075Y6524980D01*
X3331258Y6728679D02*
X3342258Y6747732D01*
X3315508Y6701399D02*
X3324758Y6717421D01*
X3299258Y6673254D02*
X3308758Y6689708D01*
X3289508Y6656366D02*
X3293258Y6662861D01*
X3272758Y6627354D02*
X3282258Y6643809D01*
X3240758Y6571929D02*
X3263508Y6611333D01*
X3229258Y6552010D02*
X3236508Y6564567D01*
X3211258Y6520833D02*
X3213508Y6524730D01*
X3331691Y6728429D02*
X3342691Y6747482D01*
X3315941Y6701150D02*
X3325191Y6717171D01*
X3299691Y6673004D02*
X3309191Y6689458D01*
X3289941Y6656116D02*
X3293691Y6662611D01*
X3273441Y6627537D02*
X3282691Y6643559D01*
X3241191Y6571679D02*
X3263941Y6611083D01*
X3229691Y6551760D02*
X3236941Y6564317D01*
X3211691Y6520583D02*
X3213691Y6524047D01*
X3332124Y6728179D02*
X3343374Y6747665D01*
X3316624Y6701333D02*
X3325374Y6716488D01*
X3300374Y6673187D02*
X3309374Y6688775D01*
X3290624Y6656299D02*
X3294124Y6662361D01*
X3273874Y6627287D02*
X3283124Y6643309D01*
X3241624Y6571429D02*
X3264374Y6610833D01*
X3230124Y6551510D02*
X3237624Y6564500D01*
X3212124Y6520333D02*
X3214124Y6523797D01*
X3332557Y6727929D02*
X3343807Y6747415D01*
X3317057Y6701082D02*
X3325807Y6716238D01*
X3300807Y6672937D02*
X3309807Y6688525D01*
X3291057Y6656049D02*
X3294557Y6662111D01*
X3274307Y6627037D02*
X3283557Y6643059D01*
X3242057Y6571179D02*
X3264807Y6610583D01*
X3230557Y6551260D02*
X3238057Y6564250D01*
X3212307Y6519650D02*
X3214557Y6523547D01*
X3332740Y6727246D02*
X3344240Y6747165D01*
X3317490Y6700832D02*
X3326240Y6715988D01*
X3301240Y6672687D02*
X3310240Y6688275D01*
X3291490Y6655799D02*
X3295240Y6662294D01*
X3274740Y6626787D02*
X3283990Y6642809D01*
X3242490Y6570929D02*
X3265240Y6610333D01*
X3230990Y6551010D02*
X3238490Y6564000D01*
X3212740Y6519400D02*
X3214990Y6523297D01*
X3333173Y6726996D02*
X3344673Y6746915D01*
X3317923Y6700582D02*
X3326673Y6715738D01*
X3301673Y6672437D02*
X3310673Y6688025D01*
X3291923Y6655549D02*
X3295673Y6662044D01*
X3275423Y6626970D02*
X3284173Y6642126D01*
X3242923Y6570679D02*
X3265673Y6610083D01*
X3231423Y6550760D02*
X3238923Y6563750D01*
X3213173Y6519150D02*
X3215173Y6522614D01*
X3333606Y6726746D02*
X3345356Y6747098D01*
X3318606Y6700766D02*
X3327106Y6715488D01*
X3302356Y6672620D02*
X3310856Y6687342D01*
X3292356Y6655299D02*
X3296106Y6661794D01*
X3275856Y6626720D02*
X3284856Y6642309D01*
X3243356Y6570429D02*
X3266106Y6609833D01*
X3231856Y6550510D02*
X3239356Y6563501D01*
X3213356Y6518467D02*
X3215606Y6522364D01*
X3334039Y6726496D02*
X3345789Y6746848D01*
X3319039Y6700515D02*
X3327289Y6714805D01*
X3302789Y6672370D02*
X3311289Y6687092D01*
X3292789Y6655049D02*
X3296539Y6661544D01*
X3276289Y6626470D02*
X3285289Y6642059D01*
X3243789Y6570179D02*
X3266539Y6609583D01*
X3232289Y6550260D02*
X3239789Y6563250D01*
X3213789Y6518217D02*
X3216039Y6522114D01*
X3334222Y6725813D02*
X3346222Y6746598D01*
X3319472Y6700266D02*
X3327722Y6714555D01*
X3303222Y6672120D02*
X3311722Y6686842D01*
X3292972Y6654366D02*
X3297222Y6661727D01*
X3276722Y6626220D02*
X3285722Y6641809D01*
X3244222Y6569929D02*
X3266972Y6609333D01*
X3232722Y6550010D02*
X3240222Y6563001D01*
X3214222Y6517967D02*
X3216472Y6521864D01*
X3334655Y6725563D02*
X3346655Y6746348D01*
X3320155Y6700449D02*
X3328155Y6714305D01*
X3303655Y6671870D02*
X3311905Y6686159D01*
X3293405Y6654116D02*
X3297655Y6661477D01*
X3277405Y6626403D02*
X3286155Y6641559D01*
X3244655Y6569679D02*
X3267405Y6609083D01*
X3233155Y6549760D02*
X3240405Y6562318D01*
X3214655Y6517717D02*
X3216655Y6521181D01*
X3335088Y6725313D02*
X3347088Y6746098D01*
X3320588Y6700198D02*
X3328588Y6714055D01*
X3304338Y6672053D02*
X3312338Y6685909D01*
X3293838Y6653866D02*
X3298088Y6661227D01*
X3277838Y6626153D02*
X3286588Y6641309D01*
X3245088Y6569429D02*
X3267838Y6608833D01*
X3233838Y6549943D02*
X3240838Y6562067D01*
X3215088Y6517467D02*
X3217088Y6520931D01*
X3335271Y6724630D02*
X3347771Y6746281D01*
X3321021Y6699949D02*
X3328771Y6713372D01*
X3304771Y6671803D02*
X3312771Y6685659D01*
X3294271Y6653616D02*
X3298521Y6660977D01*
X3278271Y6625903D02*
X3287271Y6641492D01*
X3245521Y6569179D02*
X3268271Y6608583D01*
X3234271Y6549693D02*
X3241271Y6561817D01*
X3215271Y6516784D02*
X3217521Y6520681D01*
X3335704Y6724380D02*
X3348204Y6746031D01*
X3321454Y6699698D02*
X3329204Y6713122D01*
X3305204Y6671553D02*
X3313204Y6685409D01*
X3294454Y6652933D02*
X3299204Y6661160D01*
X3278704Y6625653D02*
X3287704Y6641242D01*
X3245954Y6568929D02*
X3268704Y6608333D01*
X3234704Y6549443D02*
X3241454Y6561134D01*
X3215704Y6516534D02*
X3217954Y6520431D01*
X3336137Y6724130D02*
X3348637Y6745781D01*
X3322137Y6699882D02*
X3329637Y6712872D01*
X3305637Y6671302D02*
X3313387Y6684726D01*
X3294887Y6652683D02*
X3299637Y6660910D01*
X3279137Y6625403D02*
X3288387Y6641425D01*
X3246387Y6568679D02*
X3269137Y6608083D01*
X3235387Y6549626D02*
X3241887Y6560884D01*
X3216137Y6516284D02*
X3218387Y6520181D01*
X3336570Y6723880D02*
X3349070Y6745531D01*
X3322570Y6699632D02*
X3330070Y6712622D01*
X3306320Y6671486D02*
X3313820Y6684476D01*
X3295070Y6652000D02*
X3300070Y6660660D01*
X3279570Y6625153D02*
X3289070Y6641608D01*
X3246820Y6568429D02*
X3269570Y6607833D01*
X3236070Y6549809D02*
X3242070Y6560201D01*
X3216570Y6516034D02*
X3218570Y6519498D01*
X3336753Y6723197D02*
X3349503Y6745281D01*
X3323003Y6699382D02*
X3330503Y6712372D01*
X3306753Y6671236D02*
X3314253Y6684226D01*
X3295253Y6651317D02*
X3300753Y6660843D01*
X3280003Y6624903D02*
X3289503Y6641358D01*
X3247253Y6568179D02*
X3270003Y6607583D01*
X3236503Y6549559D02*
X3242253Y6559518D01*
X3217003Y6515784D02*
X3219003Y6519248D01*
X3337186Y6722947D02*
X3349936Y6745031D01*
X3323686Y6699565D02*
X3330686Y6711689D01*
X3307186Y6670986D02*
X3314436Y6683543D01*
X3295436Y6650634D02*
X3301186Y6660593D01*
X3280686Y6625086D02*
X3290186Y6641541D01*
X3247436Y6567496D02*
X3270436Y6607333D01*
X3237186Y6549742D02*
X3242436Y6558835D01*
X3217436Y6515534D02*
X3219436Y6518998D01*
X3337619Y6722697D02*
X3350369Y6744781D01*
X3324119Y6699315D02*
X3331119Y6711439D01*
X3307619Y6670736D02*
X3314869Y6683293D01*
X3295619Y6649951D02*
X3301619Y6660343D01*
X3281119Y6624836D02*
X3290869Y6641724D01*
X3248119Y6567679D02*
X3270869Y6607083D01*
X3238119Y6550358D02*
X3242619Y6558152D01*
X3217869Y6515284D02*
X3219869Y6518748D01*
X3338052Y6722447D02*
X3351052Y6744964D01*
X3324552Y6699065D02*
X3331552Y6711189D01*
X3308052Y6670486D02*
X3315302Y6683043D01*
X3295552Y6648835D02*
X3302052Y6660093D01*
X3281552Y6624586D02*
X3291802Y6642340D01*
X3264552Y6595141D02*
X3271302Y6606833D01*
X3238802Y6550541D02*
X3242802Y6557470D01*
X3218052Y6514601D02*
X3220302Y6518498D01*
X3338235Y6721764D02*
X3351485Y6744714D01*
X3325235Y6699248D02*
X3331985Y6710939D01*
X3308735Y6670669D02*
X3315735Y6682793D01*
X3295485Y6647719D02*
X3302735Y6660276D01*
X3281985Y6624336D02*
X3292735Y6642956D01*
X3264985Y6594891D02*
X3271735Y6606583D01*
X3239735Y6551157D02*
X3242485Y6555920D01*
X3218485Y6514351D02*
X3220735Y6518248D01*
X3338668Y6721514D02*
X3351918Y6744464D01*
X3325668Y6698998D02*
X3332168Y6710256D01*
X3309168Y6670419D02*
X3315918Y6682110D01*
X3294918Y6645737D02*
X3303168Y6660026D01*
X3282418Y6624086D02*
X3294668Y6645304D01*
X3265418Y6594641D02*
X3272168Y6606333D01*
X3241668Y6553505D02*
X3241918Y6553938D01*
X3218918Y6514101D02*
X3221168Y6517998D01*
X3339101Y6721264D02*
X3352351Y6744214D01*
X3326101Y6698748D02*
X3332601Y6710006D01*
X3309601Y6670169D02*
X3316351Y6681860D01*
X3282851Y6623836D02*
X3303601Y6659776D01*
X3265851Y6594391D02*
X3272601Y6606083D01*
X3219351Y6513851D02*
X3221601Y6517748D01*
X3339534Y6721014D02*
X3352784Y6743964D01*
X3326534Y6698498D02*
X3333034Y6709756D01*
X3310034Y6669919D02*
X3316784Y6681610D01*
X3283284Y6623586D02*
X3304034Y6659526D01*
X3266284Y6594141D02*
X3273034Y6605833D01*
X3219784Y6513601D02*
X3222034Y6517498D01*
X3339717Y6720331D02*
X3353217Y6743714D01*
X3327217Y6698681D02*
X3333467Y6709506D01*
X3310467Y6669669D02*
X3316967Y6680927D01*
X3283717Y6623336D02*
X3304717Y6659709D01*
X3266717Y6593891D02*
X3273467Y6605583D01*
X3220217Y6513351D02*
X3222467Y6517248D01*
X3340151Y6720081D02*
X3353651Y6743464D01*
X3327650Y6698431D02*
X3333900Y6709256D01*
X3311150Y6669852D02*
X3317400Y6680677D01*
X3284150Y6623086D02*
X3305150Y6659459D01*
X3267151Y6593641D02*
X3273900Y6605333D01*
X3220651Y6513101D02*
X3222900Y6516998D01*
X3340583Y6719831D02*
X3354083Y6743214D01*
X3328084Y6698181D02*
X3334083Y6708573D01*
X3311583Y6669602D02*
X3317833Y6680427D01*
X3284583Y6622836D02*
X3305584Y6659209D01*
X3267583Y6593391D02*
X3274333Y6605083D01*
X3221083Y6512851D02*
X3223333Y6516748D01*
X3340766Y6719148D02*
X3354517Y6742964D01*
X3328767Y6698364D02*
X3334516Y6708323D01*
X3312016Y6669352D02*
X3318266Y6680177D01*
X3285016Y6622586D02*
X3306016Y6658959D01*
X3268016Y6593141D02*
X3274766Y6604833D01*
X3221517Y6512601D02*
X3223766Y6516498D01*
X3341199Y6718898D02*
X3354949Y6742714D01*
X3329199Y6698114D02*
X3334950Y6708073D01*
X3312449Y6669102D02*
X3318449Y6679494D01*
X3285449Y6622336D02*
X3306699Y6659142D01*
X3268449Y6592891D02*
X3275199Y6604583D01*
X3221949Y6512351D02*
X3224199Y6516248D01*
X3341633Y6718648D02*
X3355383Y6742464D01*
X3329633Y6697864D02*
X3335383Y6707823D01*
X3313133Y6669285D02*
X3318883Y6679244D01*
X3285883Y6622086D02*
X3307133Y6658892D01*
X3268882Y6592641D02*
X3275632Y6604333D01*
X3222383Y6512101D02*
X3224633Y6515998D01*
X3342066Y6718398D02*
X3355815Y6742214D01*
X3330066Y6697614D02*
X3335566Y6707140D01*
X3313566Y6669035D02*
X3319315Y6678994D01*
X3286316Y6621836D02*
X3307565Y6658642D01*
X3269316Y6592391D02*
X3276066Y6604083D01*
X3222815Y6511851D02*
X3225066Y6515748D01*
X3342249Y6717715D02*
X3356249Y6741964D01*
X3330748Y6697797D02*
X3335999Y6706890D01*
X3313999Y6668785D02*
X3319498Y6678311D01*
X3286748Y6621586D02*
X3307999Y6658392D01*
X3269749Y6592141D02*
X3276499Y6603833D01*
X3223249Y6511601D02*
X3225499Y6515498D01*
X3342681Y6717465D02*
X3356682Y6741714D01*
X3331182Y6697547D02*
X3336432Y6706640D01*
X3314432Y6668535D02*
X3319932Y6678061D01*
X3287182Y6621336D02*
X3308682Y6658575D01*
X3270182Y6591891D02*
X3276931Y6603583D01*
X3223682Y6511351D02*
X3225932Y6515248D01*
X3343115Y6717215D02*
X3357115Y6741464D01*
X3331615Y6697297D02*
X3336865Y6706390D01*
X3326115Y6687770D02*
X3326365Y6688203D01*
X3315115Y6668718D02*
X3320365Y6677811D01*
X3303115Y6647933D02*
X3309115Y6658325D01*
X3287615Y6621086D02*
X3296615Y6636675D01*
X3270615Y6591641D02*
X3277365Y6603333D01*
X3243615Y6544876D02*
X3250115Y6556134D01*
X3224115Y6511101D02*
X3226365Y6514998D01*
X3343548Y6716965D02*
X3357548Y6741214D01*
X3332298Y6697480D02*
X3337048Y6705707D01*
X3326298Y6687087D02*
X3326798Y6687953D01*
X3315548Y6668468D02*
X3320798Y6677561D01*
X3303548Y6647683D02*
X3309548Y6658075D01*
X3288048Y6620836D02*
X3297048Y6636425D01*
X3271048Y6591391D02*
X3277798Y6603083D01*
X3244048Y6544626D02*
X3250548Y6555884D01*
X3224548Y6510851D02*
X3226798Y6514748D01*
X3343731Y6716282D02*
X3357981Y6740964D01*
X3332731Y6697230D02*
X3337481Y6705457D01*
X3326731Y6686837D02*
X3327231Y6687703D01*
X3315981Y6668218D02*
X3320981Y6676878D01*
X3303981Y6647433D02*
X3310231Y6658258D01*
X3288481Y6620586D02*
X3297481Y6636175D01*
X3271481Y6591141D02*
X3278231Y6602833D01*
X3244481Y6544376D02*
X3250981Y6555634D01*
X3224981Y6510601D02*
X3227231Y6514498D01*
X3344164Y6716032D02*
X3358414Y6740714D01*
X3333164Y6696980D02*
X3337914Y6705207D01*
X3327164Y6686587D02*
X3327664Y6687453D01*
X3316414Y6667968D02*
X3321414Y6676628D01*
X3304414Y6647183D02*
X3310664Y6658008D01*
X3288914Y6620336D02*
X3297914Y6635925D01*
X3271914Y6590891D02*
X3278664Y6602583D01*
X3244914Y6544126D02*
X3251414Y6555384D01*
X3225414Y6510351D02*
X3227664Y6514248D01*
X3344597Y6715782D02*
X3358847Y6740464D01*
X3333847Y6697163D02*
X3338347Y6704957D01*
X3327597Y6686337D02*
X3328347Y6687636D01*
X3317097Y6668151D02*
X3321847Y6676378D01*
X3304847Y6646933D02*
X3311097Y6657758D01*
X3289347Y6620086D02*
X3298347Y6635675D01*
X3272347Y6590641D02*
X3279097Y6602333D01*
X3245347Y6543876D02*
X3251847Y6555134D01*
X3225847Y6510101D02*
X3228097Y6513998D01*
X3345030Y6715532D02*
X3359280Y6740214D01*
X3334280Y6696913D02*
X3338780Y6704707D01*
X3327780Y6685654D02*
X3328780Y6687386D01*
X3317530Y6667901D02*
X3322280Y6676128D01*
X3305030Y6646250D02*
X3311530Y6657508D01*
X3289780Y6619836D02*
X3298780Y6635425D01*
X3272780Y6590391D02*
X3279530Y6602083D01*
X3245780Y6543626D02*
X3252280Y6554884D01*
X3226280Y6509851D02*
X3228530Y6513748D01*
X3345213Y6714849D02*
X3359713Y6739964D01*
X3334713Y6696663D02*
X3338963Y6704024D01*
X3328213Y6685404D02*
X3329213Y6687136D01*
X3317963Y6667651D02*
X3322463Y6675445D01*
X3305713Y6646433D02*
X3312213Y6657691D01*
X3290213Y6619586D02*
X3299213Y6635175D01*
X3273213Y6590141D02*
X3279963Y6601833D01*
X3246213Y6543376D02*
X3252713Y6554634D01*
X3226713Y6509601D02*
X3228963Y6513498D01*
X3345646Y6714599D02*
X3360146Y6739714D01*
X3335146Y6696413D02*
X3339396Y6703774D01*
X3328646Y6685154D02*
X3329896Y6687319D01*
X3318396Y6667401D02*
X3322896Y6675195D01*
X3306146Y6646183D02*
X3312646Y6657441D01*
X3290646Y6619336D02*
X3299646Y6634925D01*
X3273646Y6589891D02*
X3280396Y6601583D01*
X3246646Y6543126D02*
X3253146Y6554384D01*
X3227146Y6509351D02*
X3229396Y6513248D01*
X3346079Y6714349D02*
X3360579Y6739464D01*
X3335829Y6696596D02*
X3339829Y6703524D01*
X3328829Y6684471D02*
X3330329Y6687069D01*
X3318829Y6667151D02*
X3323329Y6674945D01*
X3306579Y6645933D02*
X3313079Y6657191D01*
X3291079Y6619086D02*
X3300079Y6634675D01*
X3274079Y6589641D02*
X3280829Y6601333D01*
X3247079Y6542876D02*
X3253579Y6554134D01*
X3227579Y6509101D02*
X3229829Y6512998D01*
X3346262Y6713666D02*
X3361012Y6739214D01*
X3336262Y6696346D02*
X3340262Y6703274D01*
X3329262Y6684221D02*
X3330762Y6686819D01*
X3319512Y6667334D02*
X3323512Y6674262D01*
X3307012Y6645683D02*
X3313512Y6656941D01*
X3291512Y6618836D02*
X3300512Y6634425D01*
X3274512Y6589392D02*
X3281262Y6601083D01*
X3247512Y6542626D02*
X3254012Y6553884D01*
X3228012Y6508851D02*
X3230262Y6512748D01*
X3346695Y6713416D02*
X3361445Y6738964D01*
X3336695Y6696096D02*
X3340445Y6702591D01*
X3329695Y6683971D02*
X3331195Y6686569D01*
X3319945Y6667084D02*
X3323945Y6674012D01*
X3307445Y6645433D02*
X3314195Y6657124D01*
X3291945Y6618586D02*
X3300945Y6634175D01*
X3274945Y6589141D02*
X3281695Y6600833D01*
X3247945Y6542376D02*
X3254445Y6553634D01*
X3228445Y6508601D02*
X3230695Y6512498D01*
X3347128Y6713166D02*
X3361878Y6738714D01*
X3337378Y6696279D02*
X3340878Y6702341D01*
X3330128Y6683721D02*
X3331878Y6686752D01*
X3320378Y6666834D02*
X3324378Y6673762D01*
X3307878Y6645183D02*
X3314628Y6656874D01*
X3292378Y6618336D02*
X3301378Y6633925D01*
X3260378Y6562911D02*
X3282128Y6600583D01*
X3248378Y6542126D02*
X3254878Y6553384D01*
X3228878Y6508351D02*
X3231128Y6512248D01*
X3347561Y6712916D02*
X3362311Y6738464D01*
X3337811Y6696029D02*
X3341311Y6702091D01*
X3330311Y6683038D02*
X3332311Y6686502D01*
X3320811Y6666584D02*
X3324811Y6673512D01*
X3308311Y6644933D02*
X3315061Y6656624D01*
X3292811Y6618086D02*
X3301811Y6633675D01*
X3260811Y6562661D02*
X3282561Y6600333D01*
X3248811Y6541876D02*
X3255311Y6553134D01*
X3229311Y6508101D02*
X3231561Y6511998D01*
X3347744Y6712233D02*
X3362744Y6738214D01*
X3338244Y6695779D02*
X3341744Y6701841D01*
X3330744Y6682788D02*
X3332744Y6686252D01*
X3321494Y6666767D02*
X3324994Y6672829D01*
X3308744Y6644683D02*
X3315494Y6656374D01*
X3293244Y6617836D02*
X3302244Y6633425D01*
X3261244Y6562411D02*
X3282994Y6600083D01*
X3249244Y6541626D02*
X3255744Y6552884D01*
X3229744Y6507851D02*
X3231994Y6511748D01*
X3348177Y6711983D02*
X3363177Y6737964D01*
X3338927Y6695962D02*
X3342177Y6701591D01*
X3331177Y6682538D02*
X3333427Y6686435D01*
X3321927Y6666517D02*
X3325427Y6672579D01*
X3309177Y6644433D02*
X3316177Y6656557D01*
X3293677Y6617586D02*
X3302677Y6633175D01*
X3261677Y6562161D02*
X3283427Y6599833D01*
X3249677Y6541376D02*
X3256177Y6552634D01*
X3230177Y6507601D02*
X3232427Y6511498D01*
X3348610Y6711733D02*
X3363610Y6737714D01*
X3339360Y6695712D02*
X3342360Y6700908D01*
X3331360Y6681855D02*
X3333860Y6686185D01*
X3322360Y6666267D02*
X3325860Y6672329D01*
X3309610Y6644183D02*
X3316610Y6656307D01*
X3294110Y6617336D02*
X3303110Y6632925D01*
X3262110Y6561911D02*
X3283860Y6599583D01*
X3250110Y6541126D02*
X3256610Y6552384D01*
X3230610Y6507351D02*
X3232860Y6511248D01*
X3349043Y6711483D02*
X3364043Y6737464D01*
X3339793Y6695462D02*
X3342793Y6700658D01*
X3331793Y6681605D02*
X3334293Y6685935D01*
X3322793Y6666017D02*
X3326043Y6671646D01*
X3310043Y6643933D02*
X3317043Y6656057D01*
X3294543Y6617086D02*
X3303543Y6632675D01*
X3262543Y6561661D02*
X3284293Y6599333D01*
X3250543Y6540876D02*
X3257043Y6552134D01*
X3231043Y6507101D02*
X3233293Y6510998D01*
X3349226Y6710800D02*
X3364476Y6737214D01*
X3340226Y6695212D02*
X3343226Y6700408D01*
X3332226Y6681355D02*
X3334726Y6685685D01*
X3323476Y6666200D02*
X3326476Y6671396D01*
X3310476Y6643683D02*
X3317726Y6656240D01*
X3294976Y6616836D02*
X3303976Y6632425D01*
X3262976Y6561411D02*
X3284726Y6599083D01*
X3250976Y6540626D02*
X3257476Y6551884D01*
X3231476Y6506851D02*
X3233726Y6510748D01*
X3349659Y6710550D02*
X3364909Y6736964D01*
X3340909Y6695395D02*
X3343659Y6700158D01*
X3332659Y6681105D02*
X3335409Y6685868D01*
X3323909Y6665950D02*
X3326909Y6671146D01*
X3310909Y6643433D02*
X3318159Y6655990D01*
X3295409Y6616586D02*
X3304409Y6632175D01*
X3263409Y6561161D02*
X3285159Y6598833D01*
X3251409Y6540376D02*
X3257909Y6551634D01*
X3231909Y6506601D02*
X3234159Y6510498D01*
X3350092Y6710300D02*
X3365342Y6736714D01*
X3341342Y6695145D02*
X3343842Y6699475D01*
X3332842Y6680422D02*
X3335842Y6685618D01*
X3324342Y6665700D02*
X3327342Y6670896D01*
X3311342Y6643183D02*
X3318592Y6655740D01*
X3295842Y6616336D02*
X3304842Y6631925D01*
X3263842Y6560911D02*
X3285592Y6598583D01*
X3251842Y6540126D02*
X3258342Y6551384D01*
X3232342Y6506351D02*
X3234592Y6510248D01*
X3350275Y6709617D02*
X3365775Y6736464D01*
X3341775Y6694895D02*
X3344275Y6699225D01*
X3333275Y6680172D02*
X3336275Y6685368D01*
X3324775Y6665450D02*
X3327525Y6670213D01*
X3311775Y6642933D02*
X3319025Y6655490D01*
X3296275Y6616086D02*
X3305275Y6631675D01*
X3264275Y6560661D02*
X3286025Y6598333D01*
X3252275Y6539876D02*
X3258775Y6551134D01*
X3232775Y6506101D02*
X3235025Y6509998D01*
X3350708Y6709367D02*
X3366208Y6736214D01*
X3342458Y6695078D02*
X3344708Y6698975D01*
X3333708Y6679922D02*
X3336958Y6685551D01*
X3325208Y6665200D02*
X3327958Y6669963D01*
X3312208Y6642683D02*
X3319708Y6655673D01*
X3296708Y6615836D02*
X3305708Y6631425D01*
X3264708Y6560411D02*
X3286458Y6598083D01*
X3252708Y6539626D02*
X3259208Y6550884D01*
X3233208Y6505851D02*
X3235458Y6509748D01*
X3351141Y6709117D02*
X3366641Y6735964D01*
X3342891Y6694828D02*
X3345141Y6698725D01*
X3333891Y6679239D02*
X3337391Y6685301D01*
X3325891Y6665383D02*
X3328391Y6669713D01*
X3312641Y6642433D02*
X3320141Y6655423D01*
X3297141Y6615586D02*
X3306141Y6631175D01*
X3265141Y6560161D02*
X3286891Y6597833D01*
X3253141Y6539376D02*
X3259641Y6550634D01*
X3233641Y6505601D02*
X3235891Y6509498D01*
X3351574Y6708867D02*
X3367074Y6735714D01*
X3343324Y6694578D02*
X3345574Y6698475D01*
X3334324Y6678989D02*
X3337824Y6685051D01*
X3326324Y6665133D02*
X3328574Y6669030D01*
X3313074Y6642183D02*
X3320574Y6655173D01*
X3297574Y6615336D02*
X3306574Y6630925D01*
X3265574Y6559911D02*
X3287324Y6597583D01*
X3253574Y6539126D02*
X3260074Y6550384D01*
X3234074Y6505351D02*
X3236324Y6509248D01*
X3351757Y6708184D02*
X3367507Y6735464D01*
X3343757Y6694328D02*
X3345757Y6697792D01*
X3334757Y6678739D02*
X3338257Y6684801D01*
X3326757Y6664883D02*
X3329007Y6668780D01*
X3313507Y6641933D02*
X3321007Y6654923D01*
X3298007Y6615086D02*
X3307007Y6630675D01*
X3266007Y6559661D02*
X3287757Y6597333D01*
X3254007Y6538876D02*
X3260507Y6550134D01*
X3234507Y6505101D02*
X3236757Y6508998D01*
X3352190Y6707934D02*
X3367940Y6735214D01*
X3344440Y6694511D02*
X3346190Y6697542D01*
X3335190Y6678489D02*
X3338940Y6684984D01*
X3327190Y6664633D02*
X3329440Y6668530D01*
X3313940Y6641683D02*
X3321690Y6655106D01*
X3298440Y6614836D02*
X3307440Y6630425D01*
X3266440Y6559411D02*
X3288190Y6597083D01*
X3254440Y6538626D02*
X3260940Y6549884D01*
X3234940Y6504851D02*
X3237190Y6508748D01*
X3352623Y6707684D02*
X3368373Y6734964D01*
X3344873Y6694261D02*
X3346623Y6697292D01*
X3335373Y6677806D02*
X3339373Y6684734D01*
X3327873Y6664816D02*
X3329623Y6667847D01*
X3314373Y6641433D02*
X3322123Y6654856D01*
X3298873Y6614586D02*
X3307873Y6630175D01*
X3266873Y6559161D02*
X3288623Y6596833D01*
X3254873Y6538376D02*
X3261373Y6549634D01*
X3235373Y6504601D02*
X3237623Y6508498D01*
X3353056Y6707434D02*
X3368806Y6734714D01*
X3345306Y6694011D02*
X3347056Y6697042D01*
X3335806Y6677556D02*
X3339806Y6684484D01*
X3328306Y6664566D02*
X3330056Y6667597D01*
X3314806Y6641183D02*
X3322556Y6654606D01*
X3299306Y6614336D02*
X3308306Y6629925D01*
X3267306Y6558911D02*
X3289056Y6596583D01*
X3255306Y6538126D02*
X3261806Y6549384D01*
X3235806Y6504351D02*
X3238056Y6508248D01*
X3353239Y6706751D02*
X3369239Y6734464D01*
X3345989Y6694194D02*
X3347239Y6696359D01*
X3336239Y6677306D02*
X3340489Y6684667D01*
X3328739Y6664316D02*
X3330489Y6667347D01*
X3315239Y6640933D02*
X3322989Y6654356D01*
X3299739Y6614086D02*
X3308739Y6629675D01*
X3267739Y6558661D02*
X3289489Y6596333D01*
X3255739Y6537876D02*
X3262239Y6549134D01*
X3236239Y6504101D02*
X3238489Y6507998D01*
X3353672Y6706501D02*
X3369672Y6734214D01*
X3346422Y6693944D02*
X3347672Y6696109D01*
X3336422Y6676623D02*
X3340922Y6684417D01*
X3329172Y6664066D02*
X3330922Y6667097D01*
X3315672Y6640683D02*
X3323672Y6654539D01*
X3300172Y6613836D02*
X3309172Y6629425D01*
X3268172Y6558411D02*
X3289922Y6596083D01*
X3256172Y6537626D02*
X3262672Y6548884D01*
X3236672Y6503851D02*
X3238922Y6507748D01*
X3354105Y6706251D02*
X3370105Y6733964D01*
X3346855Y6693694D02*
X3348105Y6695859D01*
X3336855Y6676373D02*
X3341355Y6684167D01*
X3329855Y6664249D02*
X3331105Y6666414D01*
X3316105Y6640433D02*
X3324105Y6654289D01*
X3300605Y6613586D02*
X3309605Y6629175D01*
X3268605Y6558161D02*
X3290355Y6595833D01*
X3256605Y6537376D02*
X3263105Y6548634D01*
X3237105Y6503601D02*
X3239355Y6507498D01*
X3354538Y6706001D02*
X3370538Y6733714D01*
X3347538Y6693877D02*
X3348538Y6695609D01*
X3337288Y6676123D02*
X3341788Y6683917D01*
X3330288Y6663999D02*
X3331538Y6666164D01*
X3316538Y6640183D02*
X3324538Y6654039D01*
X3301038Y6613336D02*
X3310038Y6628925D01*
X3269038Y6557911D02*
X3290788Y6595583D01*
X3257038Y6537126D02*
X3263538Y6548384D01*
X3237538Y6503351D02*
X3239788Y6507248D01*
X3354721Y6705318D02*
X3370971Y6733464D01*
X3347971Y6693627D02*
X3348971Y6695359D01*
X3337721Y6675873D02*
X3342471Y6684100D01*
X3330721Y6663749D02*
X3331971Y6665914D01*
X3316971Y6639933D02*
X3324971Y6653789D01*
X3301471Y6613086D02*
X3310471Y6628675D01*
X3269471Y6557661D02*
X3291221Y6595333D01*
X3257471Y6536876D02*
X3263971Y6548134D01*
X3237971Y6503101D02*
X3240221Y6506998D01*
X3355154Y6705068D02*
X3371404Y6733214D01*
X3348404Y6693377D02*
X3349154Y6694676D01*
X3337904Y6675190D02*
X3342904Y6683850D01*
X3331154Y6663499D02*
X3332404Y6665664D01*
X3317404Y6639683D02*
X3325654Y6653972D01*
X3301904Y6612836D02*
X3310904Y6628425D01*
X3269904Y6557411D02*
X3291654Y6595083D01*
X3257904Y6536626D02*
X3264404Y6547884D01*
X3238404Y6502851D02*
X3240654Y6506748D01*
X3355587Y6704818D02*
X3371837Y6732964D01*
X3348837Y6693127D02*
X3349587Y6694426D01*
X3338337Y6674940D02*
X3343337Y6683600D01*
X3331587Y6663249D02*
X3332587Y6664981D01*
X3317837Y6639433D02*
X3326087Y6653722D01*
X3302337Y6612586D02*
X3311337Y6628175D01*
X3270337Y6557161D02*
X3292087Y6594833D01*
X3258337Y6536376D02*
X3264837Y6547634D01*
X3238837Y6502601D02*
X3241087Y6506498D01*
X3355770Y6704135D02*
X3372270Y6732714D01*
X3349520Y6693310D02*
X3350020Y6694176D01*
X3338770Y6674690D02*
X3344020Y6683783D01*
X3332270Y6663432D02*
X3333020Y6664731D01*
X3318270Y6639183D02*
X3326520Y6653472D01*
X3302770Y6612336D02*
X3311770Y6627925D01*
X3270770Y6556911D02*
X3292520Y6594583D01*
X3258770Y6536126D02*
X3265270Y6547384D01*
X3239270Y6502351D02*
X3241520Y6506248D01*
X3356203Y6703885D02*
X3372703Y6732464D01*
X3349953Y6693060D02*
X3350453Y6693926D01*
X3338953Y6674007D02*
X3344453Y6683533D01*
X3332703Y6663182D02*
X3333453Y6664481D01*
X3318703Y6638933D02*
X3327203Y6653655D01*
X3303203Y6612086D02*
X3312203Y6627675D01*
X3286203Y6582641D02*
X3292953Y6594333D01*
X3259203Y6535876D02*
X3265703Y6547134D01*
X3239703Y6502101D02*
X3241953Y6505998D01*
X3356636Y6703635D02*
X3373136Y6732214D01*
X3350386Y6692810D02*
X3350636Y6693243D01*
X3339386Y6673757D02*
X3344886Y6683283D01*
X3333136Y6662932D02*
X3333636Y6663798D01*
X3319136Y6638683D02*
X3327636Y6653406D01*
X3303636Y6611836D02*
X3312636Y6627425D01*
X3286636Y6582391D02*
X3293386Y6594083D01*
X3259636Y6535626D02*
X3266136Y6546884D01*
X3240136Y6501851D02*
X3242386Y6505748D01*
X3357069Y6703385D02*
X3373569Y6731964D01*
X3339819Y6673507D02*
X3345319Y6683033D01*
X3333569Y6662682D02*
X3334069Y6663548D01*
X3319569Y6638433D02*
X3328069Y6653155D01*
X3304069Y6611586D02*
X3313069Y6627175D01*
X3287069Y6582141D02*
X3293819Y6593833D01*
X3260069Y6535376D02*
X3266569Y6546634D01*
X3240569Y6501601D02*
X3242819Y6505498D01*
X3357252Y6702702D02*
X3374002Y6731714D01*
X3340252Y6673257D02*
X3346002Y6683216D01*
X3334252Y6662865D02*
X3334502Y6663298D01*
X3320002Y6638183D02*
X3328502Y6652905D01*
X3304502Y6611336D02*
X3313502Y6626925D01*
X3287502Y6581891D02*
X3294252Y6593583D01*
X3260502Y6535126D02*
X3267002Y6546384D01*
X3241002Y6501351D02*
X3243252Y6505248D01*
X3357685Y6702452D02*
X3374435Y6731464D01*
X3340435Y6672574D02*
X3346435Y6682966D01*
X3334685Y6662615D02*
X3334935Y6663048D01*
X3320435Y6637933D02*
X3329185Y6653088D01*
X3304935Y6611086D02*
X3313935Y6626675D01*
X3287935Y6581641D02*
X3294685Y6593333D01*
X3260935Y6534876D02*
X3267435Y6546134D01*
X3241435Y6501101D02*
X3243685Y6504998D01*
X3358118Y6702202D02*
X3374868Y6731214D01*
X3340868Y6672324D02*
X3346868Y6682716D01*
X3320868Y6637683D02*
X3329618Y6652838D01*
X3305368Y6610836D02*
X3314368Y6626425D01*
X3288368Y6581391D02*
X3295118Y6593083D01*
X3261368Y6534626D02*
X3267868Y6545884D01*
X3241868Y6500851D02*
X3244118Y6504748D01*
X3358551Y6701952D02*
X3375301Y6730964D01*
X3341301Y6672074D02*
X3347551Y6682900D01*
X3321301Y6637433D02*
X3330051Y6652588D01*
X3305801Y6610586D02*
X3314801Y6626175D01*
X3288801Y6581141D02*
X3295551Y6592833D01*
X3261801Y6534376D02*
X3268301Y6545634D01*
X3242301Y6500601D02*
X3244551Y6504498D01*
X3358734Y6701269D02*
X3375734Y6730714D01*
X3341484Y6671391D02*
X3347984Y6682649D01*
X3321734Y6637183D02*
X3330484Y6652339D01*
X3306234Y6610336D02*
X3315234Y6625925D01*
X3289234Y6580891D02*
X3295984Y6592583D01*
X3262234Y6534126D02*
X3268734Y6545384D01*
X3242734Y6500351D02*
X3244984Y6504248D01*
X3359167Y6701019D02*
X3376167Y6730464D01*
X3341917Y6671141D02*
X3348417Y6682399D01*
X3322167Y6636933D02*
X3331167Y6652522D01*
X3306667Y6610086D02*
X3315667Y6625675D01*
X3289667Y6580641D02*
X3296417Y6592333D01*
X3262667Y6533876D02*
X3269167Y6545134D01*
X3243167Y6500101D02*
X3245417Y6503998D01*
X3359600Y6700769D02*
X3376600Y6730214D01*
X3342350Y6670891D02*
X3349100Y6682582D01*
X3322600Y6636683D02*
X3331600Y6652271D01*
X3307100Y6609836D02*
X3316100Y6625425D01*
X3290100Y6580391D02*
X3296850Y6592083D01*
X3263100Y6533626D02*
X3269600Y6544884D01*
X3243600Y6499851D02*
X3245850Y6503748D01*
X3359783Y6700086D02*
X3377033Y6729964D01*
X3342533Y6670208D02*
X3349533Y6682332D01*
X3323033Y6636433D02*
X3332033Y6652022D01*
X3307533Y6609586D02*
X3316533Y6625175D01*
X3290533Y6580141D02*
X3297283Y6591833D01*
X3263533Y6533376D02*
X3270033Y6544634D01*
X3244033Y6499601D02*
X3246283Y6503498D01*
X3360216Y6699836D02*
X3377466Y6729714D01*
X3342966Y6669958D02*
X3349966Y6682082D01*
X3323466Y6636183D02*
X3332466Y6651771D01*
X3307966Y6609336D02*
X3316966Y6624925D01*
X3290966Y6579891D02*
X3297716Y6591583D01*
X3263966Y6533126D02*
X3270466Y6544384D01*
X3244466Y6499351D02*
X3246716Y6503248D01*
X3360649Y6699586D02*
X3377899Y6729464D01*
X3343399Y6669708D02*
X3350399Y6681832D01*
X3323899Y6635933D02*
X3333149Y6651954D01*
X3308399Y6609086D02*
X3317399Y6624675D01*
X3291399Y6579641D02*
X3298149Y6591333D01*
X3264399Y6532876D02*
X3270899Y6544134D01*
X3244899Y6499101D02*
X3247149Y6502998D01*
X3361082Y6699336D02*
X3378332Y6729214D01*
X3343832Y6669458D02*
X3351082Y6682016D01*
X3324332Y6635683D02*
X3333582Y6651705D01*
X3308832Y6608836D02*
X3317832Y6624425D01*
X3291832Y6579391D02*
X3298582Y6591083D01*
X3264832Y6532626D02*
X3271332Y6543884D01*
X3245332Y6498851D02*
X3247582Y6502748D01*
X3361265Y6698653D02*
X3378765Y6728964D01*
X3344015Y6668775D02*
X3351515Y6681765D01*
X3324765Y6635433D02*
X3334015Y6651455D01*
X3309265Y6608586D02*
X3318265Y6624175D01*
X3292265Y6579141D02*
X3299015Y6590833D01*
X3265265Y6532376D02*
X3271765Y6543634D01*
X3245765Y6498601D02*
X3248015Y6502498D01*
X3361698Y6698403D02*
X3379198Y6728714D01*
X3344448Y6668525D02*
X3351948Y6681516D01*
X3325198Y6635183D02*
X3334448Y6651204D01*
X3309698Y6608336D02*
X3318698Y6623925D01*
X3292698Y6578891D02*
X3299448Y6590583D01*
X3265698Y6532126D02*
X3272198Y6543384D01*
X3246198Y6498351D02*
X3248448Y6502248D01*
X3362131Y6698153D02*
X3379631Y6728464D01*
X3344881Y6668275D02*
X3352631Y6681699D01*
X3325631Y6634933D02*
X3335131Y6651387D01*
X3310131Y6608086D02*
X3319131Y6623675D01*
X3293131Y6578641D02*
X3299881Y6590333D01*
X3266131Y6531876D02*
X3272631Y6543134D01*
X3246631Y6498101D02*
X3248881Y6501998D01*
X3362564Y6697903D02*
X3380064Y6728214D01*
X3345314Y6668025D02*
X3353064Y6681449D01*
X3326064Y6634683D02*
X3335564Y6651138D01*
X3310564Y6607836D02*
X3319564Y6623425D01*
X3293564Y6578391D02*
X3300314Y6590083D01*
X3266564Y6531626D02*
X3273064Y6542884D01*
X3247064Y6497851D02*
X3249314Y6501748D01*
X3362747Y6697220D02*
X3380497Y6727964D01*
X3345497Y6667342D02*
X3353497Y6681199D01*
X3326497Y6634433D02*
X3335997Y6650887D01*
X3310997Y6607586D02*
X3319997Y6623175D01*
X3293997Y6578141D02*
X3300747Y6589833D01*
X3266997Y6531376D02*
X3273497Y6542634D01*
X3247497Y6497601D02*
X3249747Y6501498D01*
X3363180Y6696970D02*
X3380930Y6727714D01*
X3345930Y6667092D02*
X3353930Y6680949D01*
X3326930Y6634183D02*
X3336680Y6651070D01*
X3311430Y6607336D02*
X3320430Y6622925D01*
X3294430Y6577891D02*
X3301180Y6589583D01*
X3267430Y6531126D02*
X3273930Y6542384D01*
X3247930Y6497351D02*
X3250180Y6501248D01*
X3363613Y6696720D02*
X3381363Y6727464D01*
X3346363Y6666842D02*
X3354613Y6681132D01*
X3327363Y6633933D02*
X3337113Y6650821D01*
X3311863Y6607086D02*
X3320863Y6622675D01*
X3294863Y6577641D02*
X3301613Y6589333D01*
X3267863Y6530876D02*
X3274363Y6542134D01*
X3248363Y6497101D02*
X3250613Y6500998D01*
X3364046Y6696470D02*
X3381796Y6727214D01*
X3346546Y6666159D02*
X3355046Y6680882D01*
X3327796Y6633683D02*
X3337546Y6650571D01*
X3312296Y6606836D02*
X3321296Y6622425D01*
X3295296Y6577391D02*
X3302046Y6589083D01*
X3268296Y6530626D02*
X3274796Y6541884D01*
X3248796Y6496851D02*
X3251046Y6500748D01*
X3364229Y6695787D02*
X3382229Y6726964D01*
X3346979Y6665909D02*
X3355479Y6680632D01*
X3328229Y6633433D02*
X3337979Y6650321D01*
X3312729Y6606586D02*
X3321729Y6622175D01*
X3295729Y6577141D02*
X3302479Y6588833D01*
X3268729Y6530376D02*
X3275229Y6541634D01*
X3249229Y6496601D02*
X3251479Y6500498D01*
X3364662Y6695537D02*
X3382662Y6726714D01*
X3347412Y6665659D02*
X3356162Y6680815D01*
X3328662Y6633183D02*
X3338662Y6650504D01*
X3313162Y6606336D02*
X3322162Y6621925D01*
X3296162Y6576891D02*
X3302912Y6588583D01*
X3269162Y6530126D02*
X3275662Y6541384D01*
X3249662Y6496351D02*
X3251912Y6500248D01*
X3365095Y6695287D02*
X3382845Y6726031D01*
X3347845Y6665409D02*
X3356595Y6680565D01*
X3329095Y6632933D02*
X3339095Y6650254D01*
X3313595Y6606086D02*
X3322595Y6621675D01*
X3296595Y6576641D02*
X3303345Y6588333D01*
X3269595Y6529876D02*
X3276095Y6541134D01*
X3250345Y6496534D02*
X3252345Y6499998D01*
X3365278Y6694604D02*
X3383278Y6725781D01*
X3348028Y6664726D02*
X3357028Y6680315D01*
X3329528Y6632683D02*
X3339528Y6650004D01*
X3314278Y6606269D02*
X3323028Y6621425D01*
X3297028Y6576391D02*
X3303778Y6588083D01*
X3270028Y6529626D02*
X3276528Y6540884D01*
X3250778Y6496284D02*
X3252778Y6499748D01*
X3365711Y6694354D02*
X3383711Y6725531D01*
X3348461Y6664476D02*
X3357461Y6680065D01*
X3329961Y6632433D02*
X3339961Y6649754D01*
X3314711Y6606019D02*
X3323461Y6621175D01*
X3297461Y6576141D02*
X3304211Y6587833D01*
X3270461Y6529376D02*
X3276961Y6540634D01*
X3251211Y6496034D02*
X3253211Y6499498D01*
X3366144Y6694104D02*
X3384144Y6725281D01*
X3348894Y6664226D02*
X3358144Y6680248D01*
X3330394Y6632183D02*
X3340644Y6649937D01*
X3315144Y6605769D02*
X3323894Y6620925D01*
X3297894Y6575891D02*
X3304644Y6587583D01*
X3270894Y6529126D02*
X3277394Y6540384D01*
X3251644Y6495784D02*
X3253644Y6499248D01*
X3366577Y6693854D02*
X3384577Y6725031D01*
X3349077Y6663543D02*
X3358577Y6679998D01*
X3330827Y6631933D02*
X3341077Y6649687D01*
X3315577Y6605519D02*
X3324327Y6620675D01*
X3298327Y6575641D02*
X3305077Y6587333D01*
X3271327Y6528876D02*
X3277827Y6540134D01*
X3252077Y6495534D02*
X3254327Y6499431D01*
X3366760Y6693171D02*
X3385010Y6724781D01*
X3349510Y6663293D02*
X3359010Y6679747D01*
X3331260Y6631683D02*
X3341510Y6649437D01*
X3316010Y6605269D02*
X3324760Y6620425D01*
X3298760Y6575391D02*
X3305510Y6587083D01*
X3271760Y6528626D02*
X3278260Y6539884D01*
X3252510Y6495284D02*
X3254760Y6499181D01*
X3367193Y6692921D02*
X3385443Y6724531D01*
X3349943Y6663043D02*
X3359693Y6679931D01*
X3331693Y6631433D02*
X3341943Y6649187D01*
X3316443Y6605019D02*
X3325193Y6620175D01*
X3299193Y6575141D02*
X3305943Y6586833D01*
X3272193Y6528376D02*
X3278693Y6539634D01*
X3253193Y6495467D02*
X3255193Y6498931D01*
X3367626Y6692671D02*
X3385626Y6723848D01*
X3350126Y6662360D02*
X3360126Y6679681D01*
X3332126Y6631183D02*
X3342626Y6649370D01*
X3316876Y6604769D02*
X3325626Y6619925D01*
X3299626Y6574891D02*
X3306376Y6586583D01*
X3272626Y6528126D02*
X3279126Y6539384D01*
X3253626Y6495217D02*
X3255626Y6498681D01*
X3368059Y6692421D02*
X3386059Y6723598D01*
X3350559Y6662110D02*
X3360559Y6679431D01*
X3332559Y6630933D02*
X3343059Y6649120D01*
X3317309Y6604519D02*
X3326059Y6619675D01*
X3300059Y6574641D02*
X3306809Y6586333D01*
X3273059Y6527876D02*
X3279559Y6539134D01*
X3254059Y6494967D02*
X3256059Y6498431D01*
X3368242Y6691738D02*
X3386492Y6723348D01*
X3350992Y6661860D02*
X3360992Y6679181D01*
X3332992Y6630683D02*
X3343492Y6648870D01*
X3317992Y6604702D02*
X3326492Y6619425D01*
X3300492Y6574391D02*
X3307242Y6586083D01*
X3273492Y6527626D02*
X3279992Y6538884D01*
X3254492Y6494717D02*
X3256742Y6498614D01*
X3368675Y6691488D02*
X3386925Y6723098D01*
X3351425Y6661610D02*
X3361675Y6679364D01*
X3333425Y6630433D02*
X3343925Y6648620D01*
X3318425Y6604452D02*
X3326925Y6619175D01*
X3300925Y6574141D02*
X3307675Y6585833D01*
X3273925Y6527376D02*
X3280425Y6538634D01*
X3254925Y6494467D02*
X3257175Y6498364D01*
X3369108Y6691238D02*
X3387358Y6722848D01*
X3351608Y6660927D02*
X3362108Y6679114D01*
X3333858Y6630183D02*
X3344608Y6648803D01*
X3318858Y6604202D02*
X3327358Y6618925D01*
X3301358Y6573891D02*
X3308108Y6585583D01*
X3274358Y6527126D02*
X3280858Y6538384D01*
X3255608Y6494650D02*
X3257608Y6498114D01*
X3369541Y6690988D02*
X3387542Y6722165D01*
X3352041Y6660677D02*
X3362541Y6678864D01*
X3334291Y6629933D02*
X3345041Y6648553D01*
X3319291Y6603952D02*
X3327791Y6618675D01*
X3301791Y6573641D02*
X3308541Y6585333D01*
X3274791Y6526876D02*
X3281291Y6538134D01*
X3256041Y6494400D02*
X3258041Y6497864D01*
X3369724Y6690305D02*
X3387974Y6721915D01*
X3352474Y6660427D02*
X3363224Y6679047D01*
X3334725Y6629683D02*
X3345474Y6648303D01*
X3319724Y6603702D02*
X3328224Y6618425D01*
X3302224Y6573391D02*
X3308974Y6585083D01*
X3275224Y6526626D02*
X3281724Y6537884D01*
X3256474Y6494150D02*
X3258724Y6498047D01*
X3370157Y6690055D02*
X3388407Y6721665D01*
X3352657Y6659744D02*
X3363657Y6678797D01*
X3335157Y6629433D02*
X3346157Y6648486D01*
X3320407Y6603885D02*
X3328657Y6618175D01*
X3302657Y6573141D02*
X3309407Y6584833D01*
X3275657Y6526376D02*
X3282157Y6537634D01*
X3256907Y6493900D02*
X3259157Y6497797D01*
X3370590Y6689805D02*
X3388590Y6720982D01*
X3353090Y6659494D02*
X3364090Y6678546D01*
X3335590Y6629183D02*
X3346590Y6648236D01*
X3320840Y6603635D02*
X3329090Y6617925D01*
X3303090Y6572891D02*
X3309840Y6584583D01*
X3276090Y6526126D02*
X3282590Y6537384D01*
X3257590Y6494083D02*
X3259590Y6497547D01*
X3370773Y6689122D02*
X3389023Y6720732D01*
X3353523Y6659244D02*
X3364523Y6678297D01*
X3336023Y6628933D02*
X3347023Y6647986D01*
X3321273Y6603385D02*
X3329524Y6617675D01*
X3303523Y6572641D02*
X3310274Y6584333D01*
X3276524Y6525876D02*
X3283023Y6537134D01*
X3258023Y6493833D02*
X3260273Y6497730D01*
X3371206Y6688872D02*
X3389456Y6720482D01*
X3353956Y6658994D02*
X3365206Y6678480D01*
X3336456Y6628683D02*
X3347456Y6647736D01*
X3321706Y6603135D02*
X3329956Y6617425D01*
X3303956Y6572391D02*
X3310706Y6584083D01*
X3276956Y6525626D02*
X3283456Y6536884D01*
X3258456Y6493583D02*
X3260706Y6497480D01*
X3371640Y6688622D02*
X3389889Y6720232D01*
X3354140Y6658311D02*
X3365640Y6678230D01*
X3336640Y6628000D02*
X3348140Y6647919D01*
X3322390Y6603318D02*
X3330390Y6617175D01*
X3304390Y6572141D02*
X3311139Y6583833D01*
X3277390Y6525376D02*
X3283890Y6536634D01*
X3259140Y6493766D02*
X3261139Y6497230D01*
X3372073Y6688372D02*
X3390073Y6719549D01*
X3354573Y6658061D02*
X3366073Y6677980D01*
X3337073Y6627750D02*
X3348573Y6647669D01*
X3322823Y6603068D02*
X3330823Y6616925D01*
X3304823Y6571891D02*
X3311573Y6583583D01*
X3277823Y6525126D02*
X3284323Y6536384D01*
X3259573Y6493516D02*
X3261822Y6497413D01*
X3372256Y6687689D02*
X3390506Y6719299D01*
X3355006Y6657811D02*
X3366756Y6678163D01*
X3337756Y6627933D02*
X3349006Y6647419D01*
X3323256Y6602818D02*
X3331256Y6616675D01*
X3305256Y6571642D02*
X3312006Y6583333D01*
X3278256Y6524876D02*
X3284756Y6536134D01*
X3260006Y6493266D02*
X3262256Y6497163D01*
X3372689Y6687439D02*
X3390688Y6718616D01*
X3355189Y6657128D02*
X3367188Y6677913D01*
X3338189Y6627683D02*
X3349438Y6647169D01*
X3323688Y6602568D02*
X3331688Y6616425D01*
X3305689Y6571391D02*
X3312439Y6583083D01*
X3278689Y6524626D02*
X3285189Y6535884D01*
X3260689Y6493449D02*
X3262689Y6496913D01*
X3373122Y6687189D02*
X3391122Y6718366D01*
X3355622Y6656878D02*
X3367622Y6677663D01*
X3338622Y6627433D02*
X3350122Y6647352D01*
X3324372Y6602751D02*
X3332122Y6616175D01*
X3306122Y6571141D02*
X3312872Y6582833D01*
X3279122Y6524376D02*
X3285622Y6535634D01*
X3261122Y6493199D02*
X3263372Y6497096D01*
X3373305Y6686506D02*
X3391555Y6718116D01*
X3372555Y6685207D02*
X3372805Y6685640D01*
X3356055Y6656628D02*
X3368555Y6678279D01*
X3355305Y6655329D02*
X3355555Y6655762D01*
X3354555Y6654030D02*
X3355055Y6654896D01*
X3338805Y6626750D02*
X3350555Y6647102D01*
X3324805Y6602501D02*
X3332555Y6615925D01*
X3306555Y6570891D02*
X3312805Y6581717D01*
X3285055Y6533652D02*
X3285555Y6534518D01*
X3280555Y6525858D02*
X3284555Y6532786D01*
X3279555Y6524126D02*
X3279805Y6524559D01*
X3261555Y6492949D02*
X3263805Y6496846D01*
X3325238Y6602251D02*
X3391738Y6717433D01*
X3262238Y6493132D02*
X3264488Y6497029D01*
X3325921Y6602434D02*
X3392171Y6717183D01*
X3262671Y6492882D02*
X3264921Y6496779D01*
X3326354Y6602184D02*
X3392354Y6716500D01*
X3263354Y6493065D02*
X3265604Y6496962D01*
X3326787Y6601934D02*
X3392787Y6716250D01*
X3263787Y6492815D02*
X3266037Y6496712D01*
X3327470Y6602117D02*
X3393220Y6716000D01*
X3264470Y6492998D02*
X3266720Y6496895D01*
X3327903Y6601867D02*
X3393403Y6715317D01*
X3264903Y6492748D02*
X3267153Y6496645D01*
X3328586Y6602050D02*
X3393836Y6715067D01*
X3265586Y6492931D02*
X3267836Y6496828D01*
X3329019Y6601800D02*
X3394019Y6714384D01*
X3266019Y6492681D02*
X3268269Y6496578D01*
X3329452Y6601550D02*
X3394452Y6714134D01*
X3266702Y6492864D02*
X3268952Y6496761D01*
X3330135Y6601733D02*
X3394635Y6713451D01*
X3267135Y6492614D02*
X3269385Y6496511D01*
X3330568Y6601483D02*
X3394818Y6712768D01*
X3267818Y6492797D02*
X3270068Y6496694D01*
X3331251Y6601666D02*
X3395251Y6712518D01*
X3268251Y6492547D02*
X3270751Y6496877D01*
X3331684Y6601416D02*
X3395434Y6711835D01*
X3268934Y6492730D02*
X3271184Y6496627D01*
X3332367Y6601599D02*
X3395867Y6711585D01*
X3269367Y6492480D02*
X3271867Y6496810D01*
X3332800Y6601349D02*
X3396050Y6710902D01*
X3270050Y6492663D02*
X3272550Y6496993D01*
X3333483Y6601532D02*
X3396233Y6710219D01*
X3270733Y6492846D02*
X3273233Y6497176D01*
X3333916Y6601283D02*
X3396666Y6709968D01*
X3271166Y6492596D02*
X3273666Y6496926D01*
X3334599Y6601466D02*
X3396849Y6709286D01*
X3271849Y6492779D02*
X3274349Y6497109D01*
X3335032Y6601215D02*
X3397032Y6708603D01*
X3272532Y6492962D02*
X3275032Y6497292D01*
X3335715Y6601398D02*
X3397215Y6707920D01*
X3273215Y6493145D02*
X3275715Y6497475D01*
X3336398Y6601582D02*
X3397648Y6707670D01*
X3273648Y6492895D02*
X3276398Y6497658D01*
X3336831Y6601332D02*
X3397831Y6706987D01*
X3274331Y6493078D02*
X3277081Y6497841D01*
X3337514Y6601515D02*
X3398014Y6706304D01*
X3275014Y6493261D02*
X3277514Y6497592D01*
X3338197Y6601698D02*
X3398197Y6705621D01*
X3275697Y6493444D02*
X3278197Y6497775D01*
X3338630Y6601448D02*
X3398630Y6705370D01*
X3276380Y6493627D02*
X3278880Y6497958D01*
X3339313Y6601631D02*
X3398813Y6704688D01*
X3276813Y6493377D02*
X3279563Y6498141D01*
X3339996Y6601814D02*
X3398996Y6704005D01*
X3277496Y6493560D02*
X3280496Y6498757D01*
X3340429Y6601564D02*
X3399179Y6703322D01*
X3278179Y6493743D02*
X3281179Y6498940D01*
X3341112Y6601747D02*
X3399362Y6702639D01*
X3278862Y6493926D02*
X3281862Y6499123D01*
X3341795Y6601930D02*
X3399545Y6701956D01*
X3279545Y6494109D02*
X3282545Y6499306D01*
X3342478Y6602113D02*
X3399728Y6701273D01*
X3280228Y6494292D02*
X3283228Y6499489D01*
X3343161Y6602296D02*
X3399911Y6700590D01*
X3280911Y6494475D02*
X3284161Y6500105D01*
X3343594Y6602046D02*
X3400094Y6699907D01*
X3281594Y6494658D02*
X3284844Y6500288D01*
X3344277Y6602229D02*
X3400277Y6699224D01*
X3282277Y6494841D02*
X3285527Y6500471D01*
X3344960Y6602412D02*
X3400210Y6698107D01*
X3283210Y6495457D02*
X3286460Y6501087D01*
X3345643Y6602595D02*
X3400393Y6697424D01*
X3283893Y6495641D02*
X3287143Y6501270D01*
X3346326Y6602778D02*
X3400576Y6696741D01*
X3284576Y6495824D02*
X3288076Y6501886D01*
X3347009Y6602961D02*
X3400759Y6696058D01*
X3285259Y6496007D02*
X3289009Y6502502D01*
X3347692Y6603144D02*
X3400942Y6695376D01*
X3286192Y6496623D02*
X3289942Y6503118D01*
X3348375Y6603327D02*
X3400875Y6694259D01*
X3286875Y6496806D02*
X3290875Y6503734D01*
X3349058Y6603510D02*
X3401058Y6693576D01*
X3287558Y6496989D02*
X3291808Y6504350D01*
X3349741Y6603693D02*
X3400991Y6692460D01*
X3288491Y6497605D02*
X3292741Y6504966D01*
X3350424Y6603876D02*
X3401174Y6691777D01*
X3289174Y6497788D02*
X3293924Y6506015D01*
X3351107Y6604059D02*
X3401107Y6690661D01*
X3290107Y6498404D02*
X3295107Y6507064D01*
X3351790Y6604242D02*
X3401040Y6689545D01*
X3291040Y6499020D02*
X3296290Y6508113D01*
X3352723Y6604858D02*
X3400973Y6688429D01*
X3291973Y6499636D02*
X3297973Y6510028D01*
X3353406Y6605041D02*
X3400906Y6687313D01*
X3292906Y6500252D02*
X3300156Y6512809D01*
X3293839Y6500868D02*
X3400839Y6686197D01*
X3294772Y6501484D02*
X3400772Y6685081D01*
X3295705Y6502100D02*
X3400705Y6683965D01*
X3296888Y6503149D02*
X3400388Y6682416D01*
X3298071Y6504198D02*
X3400071Y6680867D01*
X3299254Y6505247D02*
X3399754Y6679318D01*
X3300687Y6506729D02*
X3399187Y6677336D01*
X3302120Y6508211D02*
X3398370Y6674921D01*
X3304553Y6511425D02*
X3397053Y6671640D01*
D33*
X4799912Y8104055D02*
G03*
X4799912Y8104055I-4921J0D01*
G01*
X4713130Y2868543D02*
G03*
X4713130Y2868543I-4921J0D01*
G01*
X5186063Y3881890D02*
G03*
X5186063Y3881890I-4921J0D01*
G01*
X4159252Y5735000D02*
G03*
X4159252Y5735000I-4921J0D01*
G01*
X3490591Y7020000D02*
G03*
X3490591Y7020000I-4921J0D01*
G01*
D34*
X4422047Y3745000D02*
G03*
X4422047Y3745000I-1968J0D01*
G01*
D35*
X4212362Y6533031D02*
Y6536968D01*
X4257638Y6533031D02*
Y6536968D01*
X4296654Y6493031D02*
Y6496968D01*
X4341929Y6493031D02*
Y6496968D01*
X4998032Y3992362D02*
X5001969D01*
X4998032Y4037638D02*
X5001969D01*
X3621220Y5823032D02*
Y5826968D01*
X3648780Y5823032D02*
Y5826968D01*
X3758032Y7028780D02*
X3761968D01*
X3758032Y7001220D02*
X3761968D01*
X3878032Y6911220D02*
X3881968D01*
X3878032Y6938780D02*
X3881968D01*
X4548376Y8222953D02*
X4778298D01*
Y8557992D01*
X4548376D02*
X4778298D01*
X4548376Y8222953D02*
Y8557992D01*
X4798760Y2815394D02*
X4804665D01*
Y2768740D02*
Y2815394D01*
X4509390D02*
X4515295D01*
X4509390Y2768740D02*
Y2815394D01*
X4759725Y3729252D02*
X4763662D01*
X4759725Y3760748D02*
X4763662D01*
X4988031Y3512362D02*
X4991968D01*
X4988031Y3557638D02*
X4991968D01*
X5116181Y3618110D02*
Y3881890D01*
X5013819Y3618110D02*
Y3881890D01*
X5116181D01*
X5013819Y3618110D02*
X5116181D01*
X4494882Y3769606D02*
X4518504D01*
X4494882Y3720394D02*
X4518504D01*
X4233032Y5721220D02*
X4236968D01*
X4233032Y5748780D02*
X4236968D01*
X3990945Y5784213D02*
X4109055D01*
X3990945Y5685787D02*
X4109055D01*
X4403032Y5861220D02*
X4406968D01*
X4403032Y5888780D02*
X4406968D01*
X3893032Y5833780D02*
X3896968D01*
X3893032Y5806220D02*
X3896968D01*
X3530945Y6970787D02*
X3649055D01*
X3530945Y7069213D02*
X3649055D01*
D36*
X3026879Y6423480D02*
X3346879Y6977736D01*
X3026879Y6423480D02*
X3286687Y6273480D01*
X3827953Y5960980D02*
X3853934Y5945980D01*
X3893934Y6015262D01*
X4133934Y6430954D02*
X4173934Y6500236D01*
X4152283Y6512736D02*
X4173934Y6500236D01*
X3346879Y6977736D02*
X3606687Y6827736D01*
X4508000Y6086981D02*
Y6027000D01*
X4537990D01*
X4547987Y6036997D01*
Y6076984D01*
X4537990Y6086981D01*
X4508000D01*
X4607968Y6076984D02*
X4597971Y6086981D01*
X4577977D01*
X4567981Y6076984D01*
Y6066987D01*
X4577977Y6056990D01*
X4597971D01*
X4607968Y6046993D01*
Y6036997D01*
X4597971Y6027000D01*
X4577977D01*
X4567981Y6036997D01*
X4627961Y6027000D02*
X4647955D01*
X4637958D01*
Y6086981D01*
X4627961Y6076984D01*
X4440013Y6512342D02*
X4450010Y6522339D01*
X4470003D01*
X4480000Y6512342D01*
Y6472355D01*
X4470003Y6462359D01*
X4450010D01*
X4440013Y6472355D01*
X4390029Y6462359D02*
Y6522339D01*
X4420019Y6492349D01*
X4380032D01*
X4445013Y6414984D02*
X4455010Y6424981D01*
X4475003D01*
X4485000Y6414984D01*
Y6374997D01*
X4475003Y6365000D01*
X4455010D01*
X4445013Y6374997D01*
X4425019Y6414984D02*
X4415023Y6424981D01*
X4395029D01*
X4385032Y6414984D01*
Y6404987D01*
X4395029Y6394990D01*
X4405026D01*
X4395029D01*
X4385032Y6384993D01*
Y6374997D01*
X4395029Y6365000D01*
X4415023D01*
X4425019Y6374997D01*
X4880013Y4034984D02*
X4890010Y4044981D01*
X4910003D01*
X4920000Y4034984D01*
Y3994997D01*
X4910003Y3985000D01*
X4890010D01*
X4880013Y3994997D01*
X4820032Y3985000D02*
X4860019D01*
X4820032Y4024987D01*
Y4034984D01*
X4830029Y4044981D01*
X4850023D01*
X4860019Y4034984D01*
X4946487Y4184984D02*
X4956484Y4194981D01*
X4976478D01*
X4986474Y4184984D01*
Y4144997D01*
X4976478Y4135000D01*
X4956484D01*
X4946487Y4144997D01*
X4916497Y4174987D02*
X4896503D01*
X4886507Y4164990D01*
Y4135000D01*
X4916497D01*
X4926494Y4144997D01*
X4916497Y4154993D01*
X4886507D01*
X4866513Y4135000D02*
X4836523D01*
X4826526Y4144997D01*
X4836523Y4154993D01*
X4856516D01*
X4866513Y4164990D01*
X4856516Y4174987D01*
X4826526D01*
X4806533Y4194981D02*
Y4135000D01*
Y4164990D01*
X4796536Y4174987D01*
X4776542D01*
X4766546Y4164990D01*
Y4135000D01*
X4746552D02*
Y4194981D01*
X4726559Y4174987D01*
X4706565Y4194981D01*
Y4135000D01*
X4676575D02*
X4656581D01*
X4646584Y4144997D01*
Y4164990D01*
X4656581Y4174987D01*
X4676575D01*
X4686571Y4164990D01*
Y4144997D01*
X4676575Y4135000D01*
X4626591D02*
Y4174987D01*
X4596600D01*
X4586604Y4164990D01*
Y4135000D01*
X4536620D02*
X4556613D01*
X4566610Y4144997D01*
Y4164990D01*
X4556613Y4174987D01*
X4536620D01*
X4526623Y4164990D01*
Y4154993D01*
X4566610D01*
X4506630Y4174987D02*
Y4144997D01*
X4496633Y4135000D01*
X4466642D01*
Y4125003D01*
X4476639Y4115007D01*
X4486636D01*
X4466642Y4135000D02*
Y4174987D01*
X4386668Y4194981D02*
Y4154993D01*
X4366675Y4135000D01*
X4346681Y4154993D01*
Y4194981D01*
X4326688Y4135000D02*
X4306694D01*
X4316691D01*
Y4194981D01*
X4326688Y4184984D01*
X4216723Y4135000D02*
X4196730D01*
X4206727D01*
Y4194981D01*
X4216723Y4184984D01*
X4166740D02*
X4156743Y4194981D01*
X4136749D01*
X4126752Y4184984D01*
Y4144997D01*
X4136749Y4135000D01*
X4156743D01*
X4166740Y4144997D01*
Y4184984D01*
X4106759Y4135000D02*
X4066772Y4174987D01*
X4046778Y4144997D02*
X4036782Y4135000D01*
X4016788D01*
X4006791Y4144997D01*
Y4184984D01*
X4016788Y4194981D01*
X4036782D01*
X4046778Y4184984D01*
Y4174987D01*
X4036782Y4164990D01*
X4006791D01*
X3926817Y4194981D02*
Y4135000D01*
X3896827D01*
X3886830Y4144997D01*
Y4154993D01*
Y4164990D01*
X3896827Y4174987D01*
X3926817D01*
X3866837D02*
Y4144997D01*
X3856840Y4135000D01*
X3826849D01*
Y4125003D01*
X3836846Y4115007D01*
X3846843D01*
X3826849Y4135000D02*
Y4174987D01*
X3706888Y4184984D02*
X3716885Y4194981D01*
X3736879D01*
X3746875Y4184984D01*
Y4174987D01*
X3736879Y4164990D01*
X3716885D01*
X3706888Y4154993D01*
Y4144997D01*
X3716885Y4135000D01*
X3736879D01*
X3746875Y4144997D01*
X3676898Y4174987D02*
X3656905D01*
X3646908Y4164990D01*
Y4135000D01*
X3676898D01*
X3686895Y4144997D01*
X3676898Y4154993D01*
X3646908D01*
X3626914Y4135000D02*
Y4174987D01*
X3616917D01*
X3606921Y4164990D01*
Y4135000D01*
Y4164990D01*
X3596924Y4174987D01*
X3586927Y4164990D01*
Y4135000D01*
X3506953Y4194981D02*
Y4135000D01*
X3476963D01*
X3466966Y4144997D01*
Y4184984D01*
X3476963Y4194981D01*
X3506953D01*
X3416982Y4135000D02*
X3436976D01*
X3446972Y4144997D01*
Y4164990D01*
X3436976Y4174987D01*
X3416982D01*
X3406985Y4164990D01*
Y4154993D01*
X3446972D01*
X3366998Y4115007D02*
X3357001D01*
X3347005Y4125003D01*
Y4174987D01*
X3376995D01*
X3386992Y4164990D01*
Y4144997D01*
X3376995Y4135000D01*
X3347005D01*
X3327011Y4194981D02*
Y4135000D01*
Y4164990D01*
X3317014Y4174987D01*
X3297021D01*
X3287024Y4164990D01*
Y4135000D01*
X3267031Y4174987D02*
Y4144997D01*
X3257034Y4135000D01*
X3227044D01*
Y4174987D01*
X3177060Y4135000D02*
X3197053D01*
X3207050Y4144997D01*
Y4164990D01*
X3197053Y4174987D01*
X3177060D01*
X3167063Y4164990D01*
Y4154993D01*
X3207050D01*
X3117079Y4135000D02*
X3137073D01*
X3147069Y4144997D01*
Y4164990D01*
X3137073Y4174987D01*
X3117079D01*
X3107082Y4164990D01*
Y4154993D01*
X3147069D01*
X3420000Y7069981D02*
X3400006D01*
X3410003D01*
Y7010000D01*
X3420000D01*
X3400006D01*
X3330029Y7059984D02*
X3340026Y7069981D01*
X3360019D01*
X3370016Y7059984D01*
Y7019997D01*
X3360019Y7010000D01*
X3340026D01*
X3330029Y7019997D01*
X3310036Y7059984D02*
X3270048Y7019997D01*
X3310036D02*
X3270048Y7059984D01*
X3310036Y7039990D02*
X3270048D01*
X3290042Y7019997D02*
Y7059984D01*
X3780000Y5722441D02*
Y5782422D01*
X3750010D01*
X3740013Y5772425D01*
Y5752431D01*
X3750010Y5742435D01*
X3780000D01*
X3760007D02*
X3740013Y5722441D01*
X3720019Y5772425D02*
X3710023Y5782422D01*
X3690029D01*
X3680032Y5772425D01*
Y5762428D01*
X3690029Y5752431D01*
X3700026D01*
X3690029D01*
X3680032Y5742435D01*
Y5732438D01*
X3690029Y5722441D01*
X3710023D01*
X3720019Y5732438D01*
X3935000Y7005000D02*
Y7064981D01*
X3905010D01*
X3895013Y7054984D01*
Y7034990D01*
X3905010Y7024993D01*
X3935000D01*
X3915006D02*
X3895013Y7005000D01*
X3875019Y7064981D02*
X3835032D01*
Y7054984D01*
X3875019Y7014997D01*
Y7005000D01*
X4050000Y6895000D02*
Y6954981D01*
X4020010D01*
X4010013Y6944984D01*
Y6924990D01*
X4020010Y6914993D01*
X4050000D01*
X4030006D02*
X4010013Y6895000D01*
X3950032D02*
X3990019D01*
X3950032Y6934987D01*
Y6944984D01*
X3960029Y6954981D01*
X3980023D01*
X3990019Y6944984D01*
X4755043Y8657981D02*
X4775037D01*
X4765040D01*
Y8607997D01*
X4775037Y8598000D01*
X4785033D01*
X4795030Y8607997D01*
X4695062Y8598000D02*
X4735050D01*
X4695062Y8637987D01*
Y8647984D01*
X4705059Y8657981D01*
X4725053D01*
X4735050Y8647984D01*
X4894095Y2968705D02*
X4914089D01*
X4904092D01*
Y2918721D01*
X4914089Y2908724D01*
X4924086D01*
X4934082Y2918721D01*
X4874102Y2908724D02*
X4854108D01*
X4864105D01*
Y2968705D01*
X4874102Y2958708D01*
X4811693Y3806000D02*
Y3865981D01*
X4781703D01*
X4771706Y3855984D01*
Y3835990D01*
X4781703Y3825994D01*
X4811693D01*
X4791699D02*
X4771706Y3806000D01*
X4711725Y3865981D02*
X4731719Y3855984D01*
X4751712Y3835990D01*
Y3815997D01*
X4741716Y3806000D01*
X4721722D01*
X4711725Y3815997D01*
Y3825994D01*
X4721722Y3835990D01*
X4751712D01*
X4996013Y3646984D02*
X5006010Y3656981D01*
X5026003D01*
X5036000Y3646984D01*
Y3606997D01*
X5026003Y3597000D01*
X5006010D01*
X4996013Y3606997D01*
X4976019Y3597000D02*
X4956026D01*
X4966023D01*
Y3656981D01*
X4976019Y3646984D01*
X5245000Y3992981D02*
Y3942997D01*
X5235003Y3933000D01*
X5215010D01*
X5205013Y3942997D01*
Y3992981D01*
X5185019Y3933000D02*
X5165026D01*
X5175023D01*
Y3992981D01*
X5185019Y3982984D01*
X4572693Y3864981D02*
Y3805000D01*
X4542703D01*
X4532706Y3814997D01*
Y3854984D01*
X4542703Y3864981D01*
X4572693D01*
X4512712Y3805000D02*
X4492719D01*
X4502716D01*
Y3864981D01*
X4512712Y3854984D01*
X4370000Y5720000D02*
Y5779981D01*
X4340010D01*
X4330013Y5769984D01*
Y5749990D01*
X4340010Y5739993D01*
X4370000D01*
X4350007D02*
X4330013Y5720000D01*
X4310019D02*
X4290026D01*
X4300023D01*
Y5779981D01*
X4310019Y5769984D01*
X4114588Y5868984D02*
X4124584Y5878981D01*
X4144578D01*
X4154575Y5868984D01*
Y5858987D01*
X4144578Y5848990D01*
X4124584D01*
X4114588Y5838993D01*
Y5828997D01*
X4124584Y5819000D01*
X4144578D01*
X4154575Y5828997D01*
X4094594Y5878981D02*
Y5819000D01*
X4074601Y5838993D01*
X4054607Y5819000D01*
Y5878981D01*
X3994626Y5819000D02*
X4034614D01*
X3994626Y5858987D01*
Y5868984D01*
X4004623Y5878981D01*
X4024617D01*
X4034614Y5868984D01*
X4441000Y5928000D02*
Y5987981D01*
X4411010D01*
X4401013Y5977984D01*
Y5957990D01*
X4411010Y5947993D01*
X4441000D01*
X4421007D02*
X4401013Y5928000D01*
X4341032Y5987981D02*
X4381019D01*
Y5957990D01*
X4361026Y5967987D01*
X4351029D01*
X4341032Y5957990D01*
Y5937997D01*
X4351029Y5928000D01*
X4371023D01*
X4381019Y5937997D01*
X3931000Y5873000D02*
Y5932981D01*
X3901010D01*
X3891013Y5922984D01*
Y5902990D01*
X3901010Y5892993D01*
X3931000D01*
X3911006D02*
X3891013Y5873000D01*
X3841029D02*
Y5932981D01*
X3871019Y5902990D01*
X3831032D01*
X3627367Y7153984D02*
X3637364Y7163981D01*
X3657358D01*
X3667354Y7153984D01*
Y7143987D01*
X3657358Y7133990D01*
X3637364D01*
X3627367Y7123993D01*
Y7113997D01*
X3637364Y7104000D01*
X3657358D01*
X3667354Y7113997D01*
X3607374Y7163981D02*
Y7104000D01*
X3587380Y7123993D01*
X3567387Y7104000D01*
Y7163981D01*
X3547393Y7104000D02*
X3527400D01*
X3537396D01*
Y7163981D01*
X3547393Y7153984D01*
%TF.MD5,d0adbd0017a1f90769316e0c53ae5279*%
M02*
